M48
;GenerationSoftware,Autodesk,EAGLE,9.3.2*%
;CreationDate,2019-04-09T01:45:35Z*%
FMAT,2
ICI,OFF
METRIC,TZ,000.000
T5C0.508
T4C0.914
T3C1.016
T2C1.200
T1C3.000
%
G90
M71
T1
X81280Y8890
X81280Y64770
X-6350Y64770
X-6350Y8890
T2
X20320Y46990
X17780Y46990
X15240Y46990
X20320Y25400
X17780Y25400
X15240Y25400
T3
X0Y44450
X29210Y10160
X10160Y58420
X12700Y58420
X39370Y62230
X41910Y62230
X64491Y15951
X64491Y9449
X59969Y15951
X59969Y9449
X76911Y58699
X70409Y58699
X76911Y63221
X15240Y62230
X58446Y62273
X34290Y10160
X80010Y52070
X70409Y63221
X80010Y49530
X80010Y46990
X36830Y10135
X34290Y62230
X31750Y62230
X29210Y62230
X26670Y62230
X24130Y62230
X21590Y62230
X19050Y62230
X46990Y62230
X49530Y62230
X52070Y62230
X54610Y62230
X41910Y10160
X44450Y10160
X46990Y10160
X52070Y10160
X-2540Y25400
X0Y25400
X-2540Y30480
X0Y30480
X2540Y30480
X49530Y10160
X73660Y10160
X71120Y10160
X26670Y10160
X24130Y10160
X21590Y10160
X-2540Y54610
X-2540Y52070
X-2540Y36830
X-2540Y39370
X0Y36830
X0Y39370
X2540Y36830
X2540Y39370
X5080Y36830
X5080Y39370
X-2540Y46990
X-2540Y44450
X0Y46990
T4
X29210Y38100
X29210Y35560
X73866Y51236
X73866Y53776
T5
X54971Y47727
X45720Y41910
X46457Y47107
X50800Y46990
X44654Y37926
X67310Y59690
X64770Y54610
X59690Y44450
X60960Y36830
X32258Y44196
X42799Y52807
X25400Y35560
X25400Y40640
X66040Y19050
X66040Y12700
X55559Y32360
X43543Y39497
X59690Y34290
X63500Y24130
X55880Y21590
X46990Y36830
X48260Y45720
X49530Y53340
X62230Y57150
X45720Y45720
X58420Y52070
X51283Y52070
X21590Y41910
X10846Y44450
X54391Y32320
X72390Y31750
X73990Y18415
X59175Y40242
X34539Y42755
X35937Y39187
X35560Y25400
X74930Y48260
X66040Y22860
X57150Y34290
X58420Y19050
X63500Y30480
X60960Y27940
X58420Y27940
X58420Y34290
X36916Y55880
X55245Y40411
X55390Y44374
X53340Y59690
X62230Y39370
X50902Y36202
X64592Y42875
X46990Y53561
X49530Y58522
X63500Y50800
X67458Y8407
X41250Y50800
X74930Y24130
X40716Y34452
X58674Y48514
X38912Y33563
X46300Y39370
X52070Y38384
X72746Y17120
X62230Y41910
X38100Y19050
X68580Y24130
X71120Y21590
X71120Y24130
X77470Y21590
M30