G04 EAGLE Gerber RS-274X export*
G75*
%MOMM*%
%FSLAX34Y34*%
%LPD*%
%INTop Copper*%
%IPPOS*%
%AMOC8*
5,1,8,0,0,1.08239X$1,22.5*%
G01*
%ADD10R,0.900000X0.850000*%
%ADD11R,1.100000X1.000000*%
%ADD12R,0.300000X1.600000*%
%ADD13R,1.600000X0.300000*%
%ADD14C,1.422400*%
%ADD15C,1.524000*%
%ADD16C,1.879600*%
%ADD17R,1.000000X1.100000*%
%ADD18R,1.200000X2.000000*%
%ADD19R,1.700000X1.100000*%
%ADD20R,1.800000X1.800000*%
%ADD21C,1.800000*%
%ADD22R,5.334000X1.930400*%
%ADD23C,0.152400*%
%ADD24C,0.756400*%
%ADD25C,0.609600*%
%ADD26C,0.304800*%
%ADD27C,0.914400*%
%ADD28C,0.914400*%


D10*
X571500Y311700D03*
X571500Y323300D03*
X635000Y577300D03*
X635000Y565700D03*
D11*
X182000Y342900D03*
X199000Y342900D03*
X465700Y215900D03*
X448700Y215900D03*
X512200Y215900D03*
X529200Y215900D03*
X249800Y508000D03*
X232800Y508000D03*
X182000Y508000D03*
X199000Y508000D03*
X249057Y343081D03*
X232057Y343081D03*
D12*
X435300Y343100D03*
X440300Y343100D03*
X445300Y343100D03*
X450300Y343100D03*
X455300Y343100D03*
X460300Y343100D03*
X465300Y343100D03*
X470300Y343100D03*
X475300Y343100D03*
X480300Y343100D03*
X485300Y343100D03*
X490300Y343100D03*
X495300Y343100D03*
X500300Y343100D03*
X505300Y343100D03*
X510300Y343100D03*
X515300Y343100D03*
X520300Y343100D03*
X525300Y343100D03*
X530300Y343100D03*
X535300Y343100D03*
X540300Y343100D03*
X545300Y343100D03*
X550300Y343100D03*
X555300Y343100D03*
D13*
X571300Y359100D03*
X571300Y364100D03*
X571300Y369100D03*
X571300Y374100D03*
X571300Y379100D03*
X571300Y384100D03*
X571300Y389100D03*
X571300Y394100D03*
X571300Y399100D03*
X571300Y404100D03*
X571300Y409100D03*
X571300Y414100D03*
X571300Y419100D03*
X571300Y424100D03*
X571300Y429100D03*
X571300Y434100D03*
X571300Y439100D03*
X571300Y444100D03*
X571300Y449100D03*
X571300Y454100D03*
X571300Y459100D03*
X571300Y464100D03*
X571300Y469100D03*
X571300Y474100D03*
X571300Y479100D03*
D12*
X555300Y495100D03*
X550300Y495100D03*
X545300Y495100D03*
X540300Y495100D03*
X535300Y495100D03*
X530300Y495100D03*
X525300Y495100D03*
X520300Y495100D03*
X515300Y495100D03*
X510300Y495100D03*
X505300Y495100D03*
X500300Y495100D03*
X495300Y495100D03*
X490300Y495100D03*
X485300Y495100D03*
X480300Y495100D03*
X475300Y495100D03*
X470300Y495100D03*
X465300Y495100D03*
X460300Y495100D03*
X455300Y495100D03*
X450300Y495100D03*
X445300Y495100D03*
X440300Y495100D03*
X435300Y495100D03*
D13*
X419300Y479100D03*
X419300Y474100D03*
X419300Y469100D03*
X419300Y464100D03*
X419300Y459100D03*
X419300Y454100D03*
X419300Y449100D03*
X419300Y444100D03*
X419300Y439100D03*
X419300Y434100D03*
X419300Y429100D03*
X419300Y424100D03*
X419300Y419100D03*
X419300Y414100D03*
X419300Y409100D03*
X419300Y404100D03*
X419300Y399100D03*
X419300Y394100D03*
X419300Y389100D03*
X419300Y384100D03*
X419300Y379100D03*
X419300Y374100D03*
X419300Y369100D03*
X419300Y364100D03*
X419300Y359100D03*
D14*
X337312Y355600D02*
X323088Y355600D01*
X323088Y381000D02*
X337312Y381000D01*
X731549Y474258D02*
X745773Y474258D01*
X745773Y499658D02*
X731549Y499658D01*
D15*
X165100Y538480D02*
X165100Y553720D01*
X190500Y553720D02*
X190500Y538480D01*
D16*
X406400Y165100D03*
X381000Y165100D03*
X355600Y165100D03*
X330200Y165100D03*
X304800Y165100D03*
X393700Y584200D03*
X419100Y584200D03*
D17*
X660400Y592700D03*
X660400Y575700D03*
D11*
X506351Y312398D03*
X523351Y312398D03*
D17*
X673100Y474100D03*
X673100Y491100D03*
X698500Y474100D03*
X698500Y491100D03*
X368300Y397900D03*
X368300Y414900D03*
X368300Y376800D03*
X368300Y359800D03*
X609600Y309000D03*
X609600Y326000D03*
D16*
X632206Y223012D03*
X632206Y157988D03*
X586994Y223012D03*
X586994Y157988D03*
X769112Y536194D03*
X704088Y536194D03*
X769112Y581406D03*
X704088Y581406D03*
D18*
X806600Y417900D03*
X786600Y417900D03*
X766600Y417900D03*
X746600Y417900D03*
X726600Y417900D03*
X706600Y417900D03*
X686600Y417900D03*
X666600Y417900D03*
X666600Y267900D03*
X686600Y267900D03*
X706600Y267900D03*
X726600Y267900D03*
X746600Y267900D03*
X766600Y267900D03*
X786600Y267900D03*
X806600Y267900D03*
D19*
X651600Y392900D03*
X651600Y372900D03*
X651600Y352900D03*
X651600Y332900D03*
X651600Y312900D03*
X651600Y292900D03*
D20*
X203200Y254000D03*
D21*
X228600Y254000D03*
X254000Y254000D03*
D20*
X203200Y444500D03*
D21*
X228600Y444500D03*
X254000Y444500D03*
D22*
X543560Y266700D03*
X447040Y266700D03*
D16*
X317500Y482600D03*
X227197Y583669D03*
X609860Y584629D03*
X442766Y161571D03*
D11*
X448132Y537586D03*
X465132Y537586D03*
X601100Y469900D03*
X618100Y469900D03*
D16*
X495300Y152400D03*
X304800Y292100D03*
X800100Y520700D03*
X800100Y495300D03*
X800100Y469900D03*
X546100Y152400D03*
X375233Y546676D03*
X349833Y546676D03*
X324433Y546676D03*
X299033Y546676D03*
X273633Y546676D03*
X248233Y546676D03*
X222833Y546676D03*
X457200Y584200D03*
X482600Y584200D03*
X508000Y584200D03*
X533400Y584200D03*
D17*
X698859Y456171D03*
X698859Y439171D03*
X672725Y456259D03*
X672725Y439259D03*
X772750Y458282D03*
X772750Y441282D03*
D16*
X469900Y190500D03*
X495300Y190500D03*
X520700Y190500D03*
X546100Y190500D03*
D23*
X419300Y429100D02*
X345600Y429100D01*
X317500Y457200D01*
D24*
X317500Y457200D03*
X279400Y508000D03*
D23*
X248233Y539167D01*
X248233Y546676D01*
X304800Y457200D02*
X337900Y424100D01*
X402376Y424100D02*
X419300Y424100D01*
X402376Y424100D02*
X402042Y424434D01*
X395518Y424434D01*
X395184Y424100D01*
X337900Y424100D01*
D24*
X304800Y457200D03*
X279400Y495300D03*
D23*
X254000Y520700D01*
X228600Y520700D01*
X222833Y526467D01*
X222833Y546676D01*
D25*
X254000Y338138D02*
X254000Y254000D01*
X254000Y338138D02*
X249057Y343081D01*
X254000Y254000D02*
X314200Y254000D01*
X406400Y346200D01*
X406400Y355600D01*
D26*
X655828Y428752D02*
X665480Y419100D01*
X655828Y428752D02*
X645922Y428752D01*
X665480Y419100D02*
X666600Y417900D01*
D27*
X645922Y428752D03*
X586740Y485140D03*
D26*
X460300Y363636D02*
X460300Y343100D01*
X460300Y363636D02*
X460300Y381000D01*
X460300Y391000D01*
X463000Y393700D01*
D27*
X463000Y393700D03*
X520700Y383836D03*
D26*
X522600Y381936D02*
X522600Y368300D01*
X522600Y381936D02*
X520700Y383836D01*
X419300Y359100D02*
X415800Y355600D01*
X406400Y355600D01*
X419300Y359100D02*
X455764Y359100D01*
X460300Y363636D01*
X460300Y343100D02*
X460300Y330649D01*
X465300Y325649D01*
X478049Y325649D01*
X485300Y332900D02*
X485300Y343100D01*
X485300Y332900D02*
X478049Y325649D01*
X525300Y365600D02*
X533663Y357237D01*
X540300Y357237D01*
X540300Y343100D01*
X525300Y343100D02*
X525300Y365600D01*
X522600Y368300D01*
X552163Y369100D02*
X571300Y369100D01*
X552163Y369100D02*
X540300Y357237D01*
X551544Y479100D02*
X571300Y479100D01*
X551544Y479100D02*
X549709Y477266D01*
D27*
X549709Y477266D03*
D26*
X435300Y495100D02*
X435300Y441000D01*
X457200Y419100D01*
D27*
X457200Y419100D03*
X464566Y471068D03*
D26*
X506832Y471068D01*
X508000Y469900D01*
D27*
X508000Y469900D03*
D26*
X535300Y355600D02*
X535300Y343100D01*
X535300Y355600D02*
X533663Y357237D01*
X571300Y479100D02*
X577340Y485140D01*
X586740Y485140D01*
D27*
X446544Y379264D03*
D26*
X458564Y379264D01*
X460300Y381000D01*
D25*
X292100Y292100D02*
X254000Y254000D01*
X292100Y292100D02*
X304800Y292100D01*
D23*
X545300Y333889D02*
X545300Y343100D01*
X545300Y333889D02*
X555593Y323596D01*
D27*
X555593Y323596D03*
D26*
X658000Y542700D02*
X635000Y565700D01*
X673100Y520700D02*
X753618Y520700D01*
X769112Y536194D01*
D25*
X232057Y343081D02*
X228600Y339624D01*
X228600Y254000D01*
X228600Y355600D02*
X228600Y444500D01*
X228600Y355600D02*
X228600Y346538D01*
X232057Y343081D01*
X232800Y448700D02*
X232800Y508000D01*
X232800Y448700D02*
X228600Y444500D01*
X232800Y508000D02*
X199000Y508000D01*
X199000Y537600D01*
X190500Y546100D01*
D26*
X402200Y364100D02*
X419300Y364100D01*
X402200Y364100D02*
X381000Y342900D01*
X342900Y342900D01*
X330200Y355600D01*
D27*
X434412Y381000D03*
D26*
X434412Y364100D02*
X419300Y364100D01*
X434412Y364100D02*
X434412Y381000D01*
X769112Y504710D02*
X769112Y536194D01*
X769112Y504710D02*
X738661Y474258D01*
X666600Y267900D02*
X666600Y257406D01*
X649097Y239903D01*
X632206Y223012D01*
X590000Y323300D02*
X571500Y323300D01*
X596900Y330200D02*
X596900Y342900D01*
X596900Y330200D02*
X590000Y323300D01*
D27*
X596900Y342900D03*
X635000Y241300D03*
D26*
X636397Y239903D01*
X649097Y239903D01*
D25*
X330200Y355600D02*
X228600Y355600D01*
D28*
X231876Y342900D02*
X199000Y342900D01*
X231876Y342900D02*
X232057Y343081D01*
D26*
X596900Y342900D02*
X596900Y355600D01*
D27*
X558800Y215900D03*
D26*
X529200Y215900D01*
X480300Y343100D02*
X480300Y357900D01*
X469900Y368300D01*
D27*
X469900Y368300D03*
D26*
X440300Y483121D02*
X440300Y495100D01*
X466221Y457200D02*
X482600Y457200D01*
D27*
X482600Y457200D03*
X508000Y533400D03*
D26*
X440300Y483121D02*
X461711Y461711D01*
X466221Y457200D01*
X449453Y215900D02*
X448700Y215900D01*
X528447Y215900D02*
X529200Y215900D01*
X458517Y206836D02*
X449453Y215900D01*
X519383Y206836D02*
X528447Y215900D01*
X519383Y206836D02*
X458517Y206836D01*
X635000Y558800D02*
X635000Y565700D01*
X635000Y558800D02*
X622300Y546100D01*
D27*
X622300Y546100D03*
D26*
X588400Y364100D02*
X571300Y364100D01*
X588400Y364100D02*
X596900Y355600D01*
D27*
X457200Y457200D03*
D26*
X461711Y461711D01*
X461711Y461711D01*
X658000Y535800D02*
X673100Y520700D01*
X658000Y535800D02*
X658000Y542700D01*
X628789Y565700D02*
X609860Y584629D01*
X628789Y565700D02*
X635000Y565700D01*
X503814Y537586D02*
X465132Y537586D01*
X503814Y537586D02*
X508000Y533400D01*
X584200Y503800D02*
X618100Y469900D01*
X584200Y503800D02*
X584200Y508000D01*
D27*
X584200Y508000D03*
D28*
X227197Y582797D02*
X190500Y546100D01*
X227197Y582797D02*
X227197Y583669D01*
D26*
X458517Y206836D02*
X442766Y191085D01*
X442766Y161571D01*
D28*
X203200Y254000D02*
X203200Y295054D01*
X181680Y316574D01*
X181680Y330200D01*
X181680Y342580D01*
X182000Y342900D01*
X203200Y413200D02*
X203200Y444500D01*
X203200Y413200D02*
X181613Y391613D01*
X181613Y330267D01*
X181680Y330200D01*
X165100Y523240D02*
X165100Y546100D01*
X182000Y508000D02*
X182000Y465700D01*
X203200Y444500D01*
X180340Y508000D02*
X165100Y523240D01*
X180340Y508000D02*
X182000Y508000D01*
X254000Y444500D02*
X292100Y482600D01*
X317500Y482600D01*
D25*
X254000Y503800D02*
X249800Y508000D01*
X254000Y503800D02*
X254000Y444500D01*
D23*
X772750Y458282D02*
X788482Y458282D01*
X800100Y469900D01*
D26*
X698500Y474100D02*
X673100Y474100D01*
X664600Y474100D01*
X604600Y414100D01*
X571300Y414100D01*
D23*
X419300Y449100D02*
X394732Y449100D01*
X349833Y493998D02*
X349833Y546676D01*
X349833Y493998D02*
X394732Y449100D01*
X418900Y444500D02*
X419300Y444100D01*
X418900Y444500D02*
X393700Y444500D01*
X324433Y513767D01*
X324433Y546676D01*
X392660Y439100D02*
X419300Y439100D01*
X299033Y532727D02*
X299033Y546676D01*
X299033Y532727D02*
X392660Y439100D01*
X391400Y434100D02*
X419300Y434100D01*
X391400Y434100D02*
X317500Y508000D01*
X292100Y508000D01*
X273633Y526467D01*
X273633Y546676D01*
D26*
X530300Y343100D02*
X530300Y333300D01*
X540396Y323204D02*
X543909Y323204D01*
D27*
X543909Y323204D03*
D26*
X540396Y323204D02*
X530300Y333300D01*
X445300Y495100D02*
X445300Y534754D01*
X448132Y537586D01*
X571300Y474100D02*
X596900Y474100D01*
X601100Y469900D01*
X663194Y595494D02*
X755024Y595494D01*
X663194Y595494D02*
X660400Y592700D01*
X755024Y595494D02*
X769112Y581406D01*
X660400Y592700D02*
X650400Y592700D01*
X635000Y577300D01*
X816506Y534012D02*
X816506Y427806D01*
X806600Y417900D01*
X816506Y534012D02*
X769112Y581406D01*
X419300Y389100D02*
X397600Y389100D01*
X378900Y370400D01*
X378900Y370840D02*
X378900Y387300D01*
X378900Y370840D02*
X378900Y370400D01*
X378900Y359800D01*
X368300Y359800D01*
X378900Y387300D02*
X368300Y397900D01*
D23*
X378460Y370840D02*
X378900Y370840D01*
X378460Y370840D02*
X378900Y370400D01*
D26*
X406400Y571500D02*
X419100Y584200D01*
X406400Y571500D02*
X406400Y533400D01*
X404274Y469100D02*
X419300Y469100D01*
X404274Y469100D02*
X399600Y473774D01*
X399600Y526600D01*
X406400Y533400D01*
X393700Y584200D02*
X393700Y470316D01*
X399916Y464100D01*
X419300Y464100D01*
X660400Y575700D02*
X673100Y563000D01*
X673100Y546100D01*
D27*
X673100Y546100D03*
X673100Y508000D03*
D26*
X673100Y491100D01*
X651070Y469070D01*
X626500Y444500D01*
X596900Y444500D01*
D27*
X596900Y444500D03*
X609600Y368300D03*
D26*
X398780Y416560D02*
X368300Y416560D01*
X415290Y528066D02*
X438404Y551180D01*
X415290Y528066D02*
X415290Y502666D01*
X438404Y551180D02*
X566420Y551180D01*
X647700Y469900D01*
X650240Y469900D01*
X368300Y416560D02*
X368300Y414900D01*
X650240Y469900D02*
X651070Y469070D01*
D27*
X398780Y416560D03*
X415290Y502666D03*
D26*
X609092Y367411D02*
X609092Y326898D01*
X609600Y326000D01*
X609092Y367411D02*
X609600Y368300D01*
X500300Y343100D02*
X500300Y332441D01*
X504676Y328065D02*
X526835Y328065D01*
X543200Y311700D01*
X555900Y311700D02*
X571500Y311700D01*
X555900Y311700D02*
X543200Y311700D01*
X504676Y328065D02*
X500300Y332441D01*
X571500Y311700D02*
X606900Y311700D01*
X609600Y309000D01*
X609600Y301888D02*
X625094Y286394D01*
X609600Y301888D02*
X609600Y309000D01*
X625094Y286394D02*
X625094Y261112D01*
X586994Y223012D01*
X574294Y218694D02*
X546100Y190500D01*
X574294Y293306D02*
X555900Y311700D01*
X574294Y293306D02*
X574294Y218694D01*
X495300Y323449D02*
X495300Y343100D01*
X495300Y323449D02*
X506351Y312398D01*
X490300Y320153D02*
X490300Y343100D01*
X490300Y320153D02*
X447040Y276893D01*
X447040Y266700D01*
X447040Y234560D02*
X465700Y215900D01*
X447040Y234560D02*
X447040Y266700D01*
X543560Y266700D02*
X543560Y292189D01*
X523351Y312398D01*
X543560Y266700D02*
X512200Y235340D01*
X512200Y215900D01*
X698500Y491100D02*
X730102Y491100D01*
X738661Y499658D01*
X364100Y381000D02*
X330200Y381000D01*
X364100Y381000D02*
X368300Y376800D01*
D23*
X816664Y279583D02*
X816664Y243517D01*
X766600Y329647D02*
X766600Y417900D01*
X766600Y329647D02*
X816664Y279583D01*
X816664Y243517D02*
X712847Y139700D01*
X330200Y139700D01*
X304800Y165100D01*
X571498Y463902D02*
X571300Y464100D01*
X571498Y463902D02*
X580668Y463902D01*
X589026Y455544D01*
X589026Y441238D01*
X598464Y431800D01*
X609600Y431800D01*
D27*
X609600Y431800D03*
X635000Y254000D03*
D23*
X599694Y218694D01*
X599694Y207845D01*
X468703Y143764D02*
X393700Y143764D01*
X468703Y143764D02*
X492325Y167386D01*
X559235Y167386D02*
X599694Y207845D01*
X559235Y167386D02*
X492325Y167386D01*
X393700Y143764D02*
X381000Y156464D01*
X381000Y165100D01*
D27*
X626305Y457788D03*
D23*
X622495Y461598D01*
X586730Y469100D02*
X571300Y469100D01*
X586730Y469100D02*
X594232Y461598D01*
X622495Y461598D01*
D27*
X591746Y402416D03*
D23*
X571498Y389298D02*
X571300Y389100D01*
X571498Y389298D02*
X580668Y389298D01*
X591746Y400376D01*
X591746Y402416D01*
D26*
X419300Y399100D02*
X398223Y399100D01*
X390091Y407232D01*
D27*
X390091Y407232D03*
X368300Y279400D03*
D26*
X330200Y241300D01*
X330200Y165100D01*
X392447Y394100D02*
X419300Y394100D01*
X392447Y394100D02*
X392135Y394411D01*
D27*
X392135Y394411D03*
X381000Y266700D03*
D26*
X355600Y241300D01*
X355600Y165100D01*
D23*
X395479Y454100D02*
X419300Y454100D01*
X395479Y454100D02*
X373990Y475590D01*
X373990Y545432D02*
X375233Y546676D01*
X373990Y545432D02*
X373990Y475590D01*
X785852Y495300D02*
X800100Y495300D01*
X738937Y448385D02*
X692912Y448385D01*
X738937Y448385D02*
X785852Y495300D01*
X685038Y456259D02*
X672725Y456259D01*
X685038Y456259D02*
X692912Y448385D01*
X756187Y469945D02*
X756187Y476787D01*
X800100Y520700D01*
X742413Y456171D02*
X698859Y456171D01*
X742413Y456171D02*
X756187Y469945D01*
D26*
X786600Y267900D02*
X786600Y253200D01*
X736600Y203200D01*
X647700Y203200D01*
D27*
X647700Y203200D03*
X571500Y342900D03*
D26*
X556064Y342900D01*
X555864Y343100D01*
X796664Y277836D02*
X806600Y267900D01*
X796664Y277836D02*
X796664Y279583D01*
X641417Y303336D02*
X639953Y304800D01*
X635000Y304800D01*
X772911Y303336D02*
X796664Y279583D01*
X772911Y303336D02*
X641417Y303336D01*
D27*
X635000Y304800D03*
X609600Y279400D03*
D26*
X584200Y279400D01*
D27*
X584200Y279400D03*
X584200Y342900D03*
D26*
X584200Y345612D01*
X571300Y358512D01*
D23*
X419300Y459100D02*
X419126Y459274D01*
X397917Y459274D01*
X381864Y475328D01*
X381864Y520700D01*
D27*
X381864Y520700D03*
D23*
X552464Y404100D02*
X571300Y404100D01*
X552464Y404100D02*
X552450Y404114D01*
D27*
X552450Y404114D03*
X520700Y510212D03*
D23*
X520700Y542544D01*
D27*
X520700Y542544D03*
X556188Y444500D03*
D23*
X570110Y410290D02*
X571300Y409100D01*
X570110Y410290D02*
X562377Y410290D01*
X556188Y416479D01*
X556188Y444500D01*
D27*
X546100Y510212D03*
D23*
X546100Y542544D01*
D27*
X546100Y542544D03*
D23*
X571300Y374100D02*
X604264Y374100D01*
X606338Y376174D01*
X757298Y429268D02*
X759232Y431202D01*
X762669Y431202D01*
X772750Y441282D01*
X641732Y381702D02*
X636204Y376174D01*
X606338Y376174D01*
X641732Y381702D02*
X731072Y381702D01*
X757298Y407928D01*
X757298Y429268D01*
D27*
X622300Y393700D03*
D23*
X571498Y379298D02*
X571300Y379100D01*
X601378Y393700D02*
X622300Y393700D01*
X586976Y379298D02*
X571498Y379298D01*
X586976Y379298D02*
X601378Y393700D01*
D27*
X622300Y419100D03*
D23*
X642459Y439259D01*
X672725Y439259D01*
X695902Y406532D02*
X693968Y404598D01*
X586030Y384100D02*
X571300Y384100D01*
X586030Y384100D02*
X606528Y404598D01*
X695902Y436214D02*
X698859Y439171D01*
X693968Y404598D02*
X606528Y404598D01*
X695902Y406532D02*
X695902Y436214D01*
D27*
X508000Y358212D03*
D23*
X419498Y413902D02*
X419300Y414100D01*
X419498Y413902D02*
X428668Y413902D01*
X466262Y401574D02*
X470874Y396962D01*
X440996Y401574D02*
X428668Y413902D01*
X440996Y401574D02*
X466262Y401574D01*
X470874Y396962D02*
X470874Y395338D01*
X508000Y358212D01*
D27*
X411214Y336645D03*
D23*
X411214Y198386D01*
X430066Y156310D02*
X437505Y148871D01*
X460726Y148871D01*
X430066Y179534D02*
X411214Y198386D01*
X430066Y179534D02*
X430066Y156310D01*
X469900Y190500D02*
X482600Y177800D01*
X482600Y170745D01*
X460726Y148871D01*
D27*
X469900Y510212D03*
D23*
X450498Y495298D02*
X450300Y495100D01*
X450498Y495298D02*
X450498Y504468D01*
X456242Y510212D01*
X469900Y510212D01*
D27*
X508000Y559816D03*
X647700Y495300D03*
D23*
X511810Y556006D02*
X508000Y559816D01*
X511810Y556006D02*
X568419Y556006D01*
X629125Y495300D02*
X647700Y495300D01*
X629125Y495300D02*
X568419Y556006D01*
D27*
X674584Y147574D03*
X571129Y165471D03*
D23*
X639753Y147574D02*
X674584Y147574D01*
X639753Y147574D02*
X637467Y145288D01*
X581733Y145288D02*
X574294Y152727D01*
X574294Y162306D01*
X571129Y165471D01*
X581733Y145288D02*
X637467Y145288D01*
X419300Y479100D02*
X425196Y484996D01*
X425196Y495300D01*
D27*
X425196Y495300D03*
X419864Y344519D03*
X431800Y191262D03*
D23*
X419864Y331315D02*
X419864Y344519D01*
X419864Y331315D02*
X417068Y328520D01*
X417068Y205994D01*
X431800Y191262D01*
M02*
