G04 EAGLE Gerber RS-274X export*
G75*
%MOMM*%
%FSLAX34Y34*%
%LPD*%
%INBottom Copper*%
%IPPOS*%
%AMOC8*
5,1,8,0,0,1.08239X$1,22.5*%
G01*
%ADD10R,0.900000X0.850000*%
%ADD11R,0.850000X0.900000*%
%ADD12R,1.000000X1.100000*%
%ADD13C,1.422400*%
%ADD14C,1.524000*%
%ADD15C,1.879600*%
%ADD16R,1.800000X1.800000*%
%ADD17C,1.800000*%
%ADD18C,0.914400*%
%ADD19C,0.304800*%
%ADD20C,0.152400*%
%ADD21C,0.609600*%
%ADD22C,0.756400*%


D10*
X482600Y374100D03*
X482600Y362500D03*
X508000Y386800D03*
X508000Y375200D03*
X469900Y413300D03*
X469900Y424900D03*
X495300Y413300D03*
X495300Y424900D03*
X546100Y386800D03*
X546100Y375200D03*
D11*
X527600Y469900D03*
X539200Y469900D03*
X539200Y444500D03*
X527600Y444500D03*
X527600Y419100D03*
X539200Y419100D03*
D12*
X444500Y465700D03*
X444500Y448700D03*
D11*
X450300Y368300D03*
X438700Y368300D03*
D13*
X337312Y355600D02*
X323088Y355600D01*
X323088Y381000D02*
X337312Y381000D01*
X731549Y474258D02*
X745773Y474258D01*
X745773Y499658D02*
X731549Y499658D01*
D14*
X165100Y538480D02*
X165100Y553720D01*
X190500Y553720D02*
X190500Y538480D01*
D15*
X431800Y127000D03*
X457200Y127000D03*
X482600Y127000D03*
X508000Y127000D03*
X533400Y127000D03*
X393700Y584200D03*
X419100Y584200D03*
X355600Y584200D03*
X330200Y584200D03*
X304800Y584200D03*
X279400Y584200D03*
X254000Y584200D03*
X228600Y584200D03*
X241300Y139700D03*
X266700Y139700D03*
X292100Y139700D03*
X317500Y139700D03*
X342900Y139700D03*
X368300Y139700D03*
X457200Y584200D03*
X482600Y584200D03*
X508000Y584200D03*
X533400Y584200D03*
X558800Y584200D03*
X584200Y584200D03*
X632206Y223012D03*
X632206Y157988D03*
X586994Y223012D03*
X586994Y157988D03*
X769112Y536194D03*
X704088Y536194D03*
X769112Y581406D03*
X704088Y581406D03*
D16*
X203200Y254000D03*
D17*
X228600Y254000D03*
X254000Y254000D03*
D16*
X203200Y444500D03*
D17*
X228600Y444500D03*
X254000Y444500D03*
D15*
X317500Y482600D03*
X201797Y583669D03*
X609860Y584629D03*
X392461Y126909D03*
X571500Y127000D03*
X304800Y292100D03*
D18*
X596900Y368300D03*
D19*
X694436Y237723D02*
X689377Y232664D01*
X682223Y232664D01*
X596900Y363503D02*
X596900Y368300D01*
X682223Y232664D02*
X609600Y160041D01*
X609600Y127000D01*
X694436Y265967D02*
X596900Y363503D01*
X694436Y265967D02*
X694436Y237723D01*
D18*
X609600Y127000D03*
D19*
X637540Y434340D02*
X586740Y485140D01*
D18*
X637540Y434340D03*
X586740Y485140D03*
D19*
X508000Y400600D02*
X508000Y386800D01*
X508000Y400600D02*
X495300Y413300D01*
X469900Y413300D01*
X463000Y406400D02*
X463000Y393700D01*
X463000Y406400D02*
X469900Y413300D01*
D18*
X463000Y393700D03*
D19*
X539200Y444500D02*
X539200Y469900D01*
X539200Y419100D02*
X539200Y393700D01*
X546100Y386800D01*
X523664Y386800D01*
X520700Y383836D01*
D18*
X520700Y383836D03*
D19*
X517736Y386800D02*
X508000Y386800D01*
X517736Y386800D02*
X520700Y383836D01*
X482600Y374100D02*
X463000Y393700D01*
X539200Y419100D02*
X539200Y444500D01*
D18*
X549709Y477266D03*
D19*
X542344Y469900D01*
X542097Y469900D02*
X539200Y469900D01*
D18*
X457200Y419100D03*
D19*
X463000Y413300D01*
X469900Y413300D01*
D18*
X464566Y471068D03*
D19*
X453487Y465700D02*
X444500Y465700D01*
X453487Y465700D02*
X453623Y465836D01*
X459334Y465836D01*
X464566Y471068D01*
D18*
X508000Y469900D03*
D19*
X521667Y478464D02*
X533533Y478464D01*
X513103Y469900D02*
X508000Y469900D01*
X542097Y469900D02*
X542344Y469900D01*
X521667Y478464D02*
X513103Y469900D01*
X533533Y478464D02*
X542097Y469900D01*
X450300Y375508D02*
X450300Y368300D01*
X450300Y375508D02*
X446544Y379264D01*
D18*
X446544Y379264D03*
X555593Y320707D03*
D20*
X555593Y238093D01*
X495300Y177800D01*
X519684Y115316D02*
X520700Y114300D01*
X519684Y115316D02*
X503160Y115316D01*
X495300Y123176D01*
X495300Y177800D01*
X533400Y127000D02*
X520700Y114300D01*
D19*
X495300Y362500D02*
X508000Y375200D01*
X495300Y362500D02*
X482600Y362500D01*
X508000Y375200D02*
X546100Y375200D01*
X527600Y444500D02*
X527600Y469900D01*
X527600Y444500D02*
X527600Y419100D01*
X521800Y424900D01*
X495300Y424900D01*
X469900Y424900D01*
X444500Y387900D02*
X441312Y387900D01*
X434412Y381000D01*
D18*
X434412Y381000D03*
X596900Y342900D03*
D19*
X596900Y279400D01*
X609600Y266700D01*
D18*
X635000Y241300D03*
D19*
X609600Y266700D01*
D18*
X558800Y215900D03*
D19*
X609600Y266700D01*
D18*
X469900Y368300D03*
X482600Y457200D03*
D19*
X508000Y482600D01*
X508000Y533400D01*
D18*
X508000Y533400D03*
X622300Y546100D03*
D19*
X609600Y533400D01*
X584200Y533400D01*
X508000Y533400D01*
X527600Y469900D02*
X514900Y457200D01*
X482600Y457200D01*
X596900Y355600D02*
X596900Y342900D01*
X596900Y355600D02*
X577300Y375200D01*
X546100Y375200D01*
X448700Y448700D02*
X444500Y448700D01*
X448700Y448700D02*
X457200Y457200D01*
D18*
X457200Y457200D03*
D19*
X450300Y387900D02*
X469900Y368300D01*
X450300Y387900D02*
X444500Y387900D01*
X434412Y381000D02*
X434412Y372588D01*
X438700Y368300D01*
X475700Y362500D02*
X482600Y362500D01*
X475700Y362500D02*
X469900Y368300D01*
X444500Y387900D02*
X444500Y448700D01*
D18*
X584200Y508000D03*
D19*
X584200Y533400D01*
D21*
X228600Y254000D02*
X228600Y152400D01*
X241300Y139700D01*
X374507Y124714D02*
X376702Y126909D01*
X392461Y126909D01*
X374507Y124714D02*
X256286Y124714D01*
X241300Y139700D01*
D20*
X558800Y472512D02*
X558800Y520700D01*
D18*
X558800Y520700D03*
X558800Y542544D03*
D20*
X562356Y546100D01*
X596900Y546100D01*
D18*
X596900Y546100D03*
D20*
X558800Y472512D02*
X556188Y469900D01*
X556188Y431800D01*
D18*
X556188Y431800D03*
D20*
X624840Y408940D02*
X683260Y467360D01*
X683260Y548640D01*
X660400Y571500D01*
X558800Y571500D01*
X558800Y584200D01*
D22*
X624840Y408940D03*
D20*
X561340Y556260D02*
X533400Y584200D01*
X561340Y556260D02*
X660400Y556260D01*
X660400Y464820D01*
D22*
X660400Y464820D03*
D20*
X434340Y482600D02*
X434340Y398780D01*
X434340Y482600D02*
X482600Y530860D01*
X482600Y584200D01*
D22*
X434340Y398780D03*
D20*
X383540Y408940D02*
X381000Y406400D01*
X383540Y408940D02*
X383540Y538480D01*
X416560Y571500D01*
X457200Y571500D01*
X457200Y584200D01*
D22*
X381000Y406400D03*
D18*
X543909Y323204D03*
D19*
X543909Y239109D01*
X482600Y177800D01*
D18*
X482600Y177800D03*
X520700Y177800D03*
D19*
X571500Y127000D01*
D18*
X673100Y546100D03*
D19*
X673100Y508000D01*
D18*
X673100Y508000D03*
X609600Y444500D03*
X609600Y368300D03*
D19*
X609600Y402823D02*
X609600Y444500D01*
X609600Y402823D02*
X600964Y402823D01*
X416560Y434340D02*
X398780Y416560D01*
X416560Y434340D02*
X416560Y528320D01*
D18*
X398780Y416560D03*
X416560Y528320D03*
D19*
X600710Y377190D02*
X609600Y368300D01*
X600710Y377190D02*
X600710Y402336D01*
X600964Y402823D01*
D20*
X454660Y513080D02*
X426720Y541020D01*
X391160Y541020D01*
X391160Y421640D01*
X388620Y419100D01*
X388620Y152400D01*
X426720Y114300D01*
X457200Y114300D01*
X457200Y127000D01*
D22*
X454660Y513080D03*
D20*
X426720Y487680D02*
X424180Y485140D01*
X424180Y134620D01*
X431800Y127000D01*
D22*
X426720Y487680D03*
D20*
X472440Y515620D02*
X472440Y457200D01*
X472440Y515620D02*
X508000Y551180D01*
X508000Y584200D01*
D18*
X454364Y406400D03*
D20*
X454364Y410800D01*
X449326Y415838D01*
X449326Y434086D01*
X472440Y457200D01*
D18*
X685800Y241300D03*
D19*
X555223Y207264D02*
X550164Y212323D01*
X550164Y219477D01*
X571500Y240813D02*
X571500Y342900D01*
X571500Y240813D02*
X550164Y219477D01*
X669532Y241300D02*
X685800Y241300D01*
X669532Y241300D02*
X635496Y207264D01*
X555223Y207264D01*
D18*
X571500Y342900D03*
X635000Y304800D03*
D19*
X609600Y279400D01*
D18*
X609600Y279400D03*
X584200Y279400D03*
D19*
X584200Y342900D01*
D18*
X584200Y342900D03*
M02*
