G04 EAGLE Gerber RS-274X export*
G75*
%MOMM*%
%FSLAX34Y34*%
%LPD*%
%INTop Copper*%
%IPPOS*%
%AMOC8*
5,1,8,0,0,1.08239X$1,22.5*%
G01*
%ADD10R,0.900000X0.850000*%
%ADD11R,1.100000X1.000000*%
%ADD12R,0.300000X1.600000*%
%ADD13R,1.600000X0.300000*%
%ADD14C,1.422400*%
%ADD15C,1.524000*%
%ADD16C,1.879600*%
%ADD17R,1.000000X1.100000*%
%ADD18R,1.200000X2.000000*%
%ADD19R,1.700000X1.100000*%
%ADD20R,1.800000X1.800000*%
%ADD21C,1.800000*%
%ADD22R,5.334000X1.930400*%
%ADD23C,0.152400*%
%ADD24C,0.304800*%
%ADD25C,0.914400*%
%ADD26C,0.609600*%
%ADD27C,0.914400*%
%ADD28C,0.756400*%


D10*
X571500Y311700D03*
X571500Y323300D03*
X635000Y577300D03*
X635000Y565700D03*
D11*
X182000Y342900D03*
X199000Y342900D03*
X465700Y215900D03*
X448700Y215900D03*
X512200Y215900D03*
X529200Y215900D03*
X249800Y508000D03*
X232800Y508000D03*
X182000Y508000D03*
X199000Y508000D03*
X249057Y343081D03*
X232057Y343081D03*
D12*
X435300Y343100D03*
X440300Y343100D03*
X445300Y343100D03*
X450300Y343100D03*
X455300Y343100D03*
X460300Y343100D03*
X465300Y343100D03*
X470300Y343100D03*
X475300Y343100D03*
X480300Y343100D03*
X485300Y343100D03*
X490300Y343100D03*
X495300Y343100D03*
X500300Y343100D03*
X505300Y343100D03*
X510300Y343100D03*
X515300Y343100D03*
X520300Y343100D03*
X525300Y343100D03*
X530300Y343100D03*
X535300Y343100D03*
X540300Y343100D03*
X545300Y343100D03*
X550300Y343100D03*
X555300Y343100D03*
D13*
X571300Y359100D03*
X571300Y364100D03*
X571300Y369100D03*
X571300Y374100D03*
X571300Y379100D03*
X571300Y384100D03*
X571300Y389100D03*
X571300Y394100D03*
X571300Y399100D03*
X571300Y404100D03*
X571300Y409100D03*
X571300Y414100D03*
X571300Y419100D03*
X571300Y424100D03*
X571300Y429100D03*
X571300Y434100D03*
X571300Y439100D03*
X571300Y444100D03*
X571300Y449100D03*
X571300Y454100D03*
X571300Y459100D03*
X571300Y464100D03*
X571300Y469100D03*
X571300Y474100D03*
X571300Y479100D03*
D12*
X555300Y495100D03*
X550300Y495100D03*
X545300Y495100D03*
X540300Y495100D03*
X535300Y495100D03*
X530300Y495100D03*
X525300Y495100D03*
X520300Y495100D03*
X515300Y495100D03*
X510300Y495100D03*
X505300Y495100D03*
X500300Y495100D03*
X495300Y495100D03*
X490300Y495100D03*
X485300Y495100D03*
X480300Y495100D03*
X475300Y495100D03*
X470300Y495100D03*
X465300Y495100D03*
X460300Y495100D03*
X455300Y495100D03*
X450300Y495100D03*
X445300Y495100D03*
X440300Y495100D03*
X435300Y495100D03*
D13*
X419300Y479100D03*
X419300Y474100D03*
X419300Y469100D03*
X419300Y464100D03*
X419300Y459100D03*
X419300Y454100D03*
X419300Y449100D03*
X419300Y444100D03*
X419300Y439100D03*
X419300Y434100D03*
X419300Y429100D03*
X419300Y424100D03*
X419300Y419100D03*
X419300Y414100D03*
X419300Y409100D03*
X419300Y404100D03*
X419300Y399100D03*
X419300Y394100D03*
X419300Y389100D03*
X419300Y384100D03*
X419300Y379100D03*
X419300Y374100D03*
X419300Y369100D03*
X419300Y364100D03*
X419300Y359100D03*
D14*
X337312Y355600D02*
X323088Y355600D01*
X323088Y381000D02*
X337312Y381000D01*
X731549Y474258D02*
X745773Y474258D01*
X745773Y499658D02*
X731549Y499658D01*
D15*
X165100Y538480D02*
X165100Y553720D01*
X190500Y553720D02*
X190500Y538480D01*
D16*
X431800Y127000D03*
X457200Y127000D03*
X482600Y127000D03*
X508000Y127000D03*
X533400Y127000D03*
X393700Y584200D03*
X419100Y584200D03*
X355600Y584200D03*
X330200Y584200D03*
X304800Y584200D03*
X279400Y584200D03*
X254000Y584200D03*
X228600Y584200D03*
X241300Y139700D03*
X266700Y139700D03*
X292100Y139700D03*
X317500Y139700D03*
X342900Y139700D03*
X368300Y139700D03*
X457200Y584200D03*
X482600Y584200D03*
X508000Y584200D03*
X533400Y584200D03*
X558800Y584200D03*
X584200Y584200D03*
D17*
X660400Y592700D03*
X660400Y575700D03*
D11*
X506351Y312398D03*
X523351Y312398D03*
D17*
X673100Y474100D03*
X673100Y491100D03*
X698500Y474100D03*
X698500Y491100D03*
X368300Y397900D03*
X368300Y414900D03*
X368300Y376800D03*
X368300Y359800D03*
X609600Y309000D03*
X609600Y326000D03*
D16*
X632206Y223012D03*
X632206Y157988D03*
X586994Y223012D03*
X586994Y157988D03*
X769112Y536194D03*
X704088Y536194D03*
X769112Y581406D03*
X704088Y581406D03*
D18*
X806600Y417900D03*
X786600Y417900D03*
X766600Y417900D03*
X746600Y417900D03*
X726600Y417900D03*
X706600Y417900D03*
X686600Y417900D03*
X666600Y417900D03*
X666600Y267900D03*
X686600Y267900D03*
X706600Y267900D03*
X726600Y267900D03*
X746600Y267900D03*
X766600Y267900D03*
X786600Y267900D03*
X806600Y267900D03*
D19*
X651600Y392900D03*
X651600Y372900D03*
X651600Y352900D03*
X651600Y332900D03*
X651600Y312900D03*
X651600Y292900D03*
D20*
X203200Y254000D03*
D21*
X228600Y254000D03*
X254000Y254000D03*
D20*
X203200Y444500D03*
D21*
X228600Y444500D03*
X254000Y444500D03*
D22*
X543560Y266700D03*
X447040Y266700D03*
D16*
X317500Y482600D03*
X201797Y583669D03*
X609860Y584629D03*
X392461Y126909D03*
D11*
X448132Y537586D03*
X465132Y537586D03*
X601100Y469900D03*
X618100Y469900D03*
D16*
X571500Y127000D03*
X304800Y292100D03*
D23*
X419300Y429100D02*
X418086Y430314D01*
X399497Y430314D01*
X276352Y561848D02*
X254000Y584200D01*
X276352Y561848D02*
X276352Y558349D01*
X399497Y435204D02*
X399497Y430314D01*
X399497Y435204D02*
X276352Y558349D01*
X228600Y584200D02*
X304800Y508000D01*
X317500Y508000D01*
X401400Y424100D02*
X419300Y424100D01*
X401400Y424100D02*
X317500Y508000D01*
D24*
X571300Y379100D02*
X586100Y379100D01*
X596900Y368300D01*
D25*
X596900Y368300D03*
X609600Y127000D03*
D24*
X590538Y127000D01*
X514362Y127000D02*
X508000Y127000D01*
X577076Y113538D02*
X590538Y127000D01*
X527824Y113538D02*
X514362Y127000D01*
X527824Y113538D02*
X577076Y113538D01*
D26*
X254000Y254000D02*
X254000Y338138D01*
X249057Y343081D01*
X254000Y254000D02*
X279400Y254000D01*
X314200Y254000D01*
X406400Y346200D01*
X406400Y355600D01*
D24*
X650240Y434340D02*
X665480Y419100D01*
X650240Y434340D02*
X637540Y434340D01*
X665480Y419100D02*
X666600Y417900D01*
D25*
X637540Y434340D03*
X586740Y485140D03*
D24*
X460300Y363636D02*
X460300Y343100D01*
X460300Y363636D02*
X460300Y381000D01*
X460300Y391000D01*
X463000Y393700D01*
D25*
X463000Y393700D03*
X520700Y383836D03*
D24*
X522600Y381936D02*
X522600Y368300D01*
X522600Y381936D02*
X520700Y383836D01*
X419300Y359100D02*
X415800Y355600D01*
X406400Y355600D01*
X419300Y359100D02*
X455764Y359100D01*
X460300Y363636D01*
X460300Y343100D02*
X460300Y330649D01*
X465300Y325649D01*
X478049Y325649D01*
X485300Y332900D02*
X485300Y343100D01*
X485300Y332900D02*
X478049Y325649D01*
X525300Y365600D02*
X533663Y357237D01*
X540300Y357237D01*
X540300Y343100D01*
X525300Y343100D02*
X525300Y365600D01*
X522600Y368300D01*
X552163Y369100D02*
X571300Y369100D01*
X552163Y369100D02*
X540300Y357237D01*
X551544Y479100D02*
X571300Y479100D01*
X551544Y479100D02*
X549709Y477266D01*
D25*
X549709Y477266D03*
D24*
X435300Y495100D02*
X435300Y441000D01*
X457200Y419100D01*
D25*
X457200Y419100D03*
X464566Y471068D03*
D24*
X506832Y471068D01*
X508000Y469900D01*
D25*
X508000Y469900D03*
D24*
X535300Y355600D02*
X535300Y343100D01*
X535300Y355600D02*
X533663Y357237D01*
X571300Y479100D02*
X577340Y485140D01*
X586740Y485140D01*
D25*
X446544Y379264D03*
D24*
X458564Y379264D01*
X460300Y381000D01*
D26*
X292100Y292100D02*
X254000Y254000D01*
X292100Y292100D02*
X304800Y292100D01*
D25*
X555593Y320707D03*
D23*
X545498Y342902D02*
X545300Y343100D01*
X545498Y342902D02*
X545498Y333732D01*
X547432Y331798D01*
X553466Y331798D01*
X555107Y330157D01*
X555107Y321193D01*
X555593Y320707D01*
D24*
X658000Y542700D02*
X635000Y565700D01*
X673100Y520700D02*
X753618Y520700D01*
X769112Y536194D01*
D26*
X232057Y343081D02*
X228600Y339624D01*
X228600Y254000D01*
X228600Y355600D02*
X228600Y444500D01*
X228600Y355600D02*
X228600Y346538D01*
X232057Y343081D01*
X232800Y448700D02*
X232800Y508000D01*
X232800Y448700D02*
X228600Y444500D01*
X232800Y508000D02*
X199000Y508000D01*
X199000Y537600D01*
X190500Y546100D01*
D24*
X402200Y364100D02*
X419300Y364100D01*
X402200Y364100D02*
X381000Y342900D01*
X342900Y342900D01*
X330200Y355600D01*
D25*
X434412Y381000D03*
D24*
X434412Y364100D02*
X419300Y364100D01*
X434412Y364100D02*
X434412Y381000D01*
X769112Y504710D02*
X769112Y536194D01*
X769112Y504710D02*
X738661Y474258D01*
X666600Y267900D02*
X666600Y257406D01*
X649097Y239903D01*
X632206Y223012D01*
X590000Y323300D02*
X571500Y323300D01*
X596900Y330200D02*
X596900Y342900D01*
X596900Y330200D02*
X590000Y323300D01*
D25*
X596900Y342900D03*
X635000Y241300D03*
D24*
X636397Y239903D01*
X649097Y239903D01*
D26*
X330200Y355600D02*
X228600Y355600D01*
D27*
X231876Y342900D02*
X199000Y342900D01*
X231876Y342900D02*
X232057Y343081D01*
D24*
X596900Y342900D02*
X596900Y355600D01*
D25*
X558800Y215900D03*
D24*
X529200Y215900D01*
X480300Y343100D02*
X480300Y357900D01*
X469900Y368300D01*
D25*
X469900Y368300D03*
D24*
X440300Y483121D02*
X440300Y495100D01*
X466221Y457200D02*
X482600Y457200D01*
D25*
X482600Y457200D03*
X508000Y533400D03*
D24*
X440300Y483121D02*
X461711Y461711D01*
X466221Y457200D01*
X449453Y215900D02*
X448700Y215900D01*
X528447Y215900D02*
X529200Y215900D01*
X458517Y206836D02*
X449453Y215900D01*
X519383Y206836D02*
X528447Y215900D01*
X519383Y206836D02*
X458517Y206836D01*
X635000Y558800D02*
X635000Y565700D01*
X635000Y558800D02*
X622300Y546100D01*
D25*
X622300Y546100D03*
D24*
X588400Y364100D02*
X571300Y364100D01*
X588400Y364100D02*
X596900Y355600D01*
D25*
X457200Y457200D03*
D24*
X461711Y461711D01*
X461711Y461711D01*
X658000Y535800D02*
X673100Y520700D01*
X658000Y535800D02*
X658000Y542700D01*
X628789Y565700D02*
X609860Y584629D01*
X628789Y565700D02*
X635000Y565700D01*
X503814Y537586D02*
X465132Y537586D01*
X503814Y537586D02*
X508000Y533400D01*
X584200Y503800D02*
X618100Y469900D01*
X584200Y503800D02*
X584200Y508000D01*
D25*
X584200Y508000D03*
D27*
X201797Y557397D02*
X190500Y546100D01*
X201797Y557397D02*
X201797Y583669D01*
X203200Y295054D02*
X203200Y254000D01*
X203200Y295054D02*
X181680Y316574D01*
X181680Y330200D01*
X181680Y342580D01*
X182000Y342900D01*
X203200Y413200D02*
X203200Y444500D01*
X203200Y413200D02*
X181613Y391613D01*
X181613Y330267D01*
X181680Y330200D01*
X165100Y523240D02*
X165100Y546100D01*
X182000Y508000D02*
X182000Y465700D01*
X203200Y444500D01*
X180340Y508000D02*
X165100Y523240D01*
X180340Y508000D02*
X182000Y508000D01*
X254000Y444500D02*
X292100Y482600D01*
X317500Y482600D01*
D26*
X254000Y503800D02*
X249800Y508000D01*
X254000Y503800D02*
X254000Y444500D01*
D24*
X435300Y343100D02*
X435300Y333700D01*
X292100Y178768D02*
X266700Y153368D01*
X266700Y139700D01*
X292100Y190500D02*
X435300Y333700D01*
X292100Y190500D02*
X292100Y178768D01*
X439872Y342672D02*
X440300Y343100D01*
X439872Y342672D02*
X439872Y331806D01*
X297424Y189359D01*
X297424Y177034D02*
X292100Y171709D01*
X292100Y139700D01*
X297424Y177034D02*
X297424Y189359D01*
X444872Y342672D02*
X445300Y343100D01*
X317500Y202968D02*
X317500Y139700D01*
X444872Y330340D02*
X444872Y342672D01*
X444872Y330340D02*
X317500Y202968D01*
X449872Y342672D02*
X450300Y343100D01*
X449872Y342672D02*
X449872Y328875D01*
X346249Y225251D01*
X346249Y143049D01*
X342900Y139700D01*
X455300Y327451D02*
X455300Y343100D01*
X368725Y240876D02*
X368725Y158604D01*
X368300Y158179D01*
X368300Y139700D01*
X368725Y240876D02*
X455300Y327451D01*
D23*
X570086Y405314D02*
X571300Y404100D01*
X570086Y405314D02*
X562353Y405314D01*
D25*
X558800Y520700D03*
D23*
X558800Y542544D01*
D25*
X558800Y542544D03*
X596900Y546100D03*
D23*
X596900Y571500D01*
X584200Y584200D01*
D25*
X556188Y431800D03*
D23*
X556188Y411479D01*
X562353Y405314D01*
X571500Y408940D02*
X624840Y408940D01*
X571500Y408940D02*
X571300Y409100D01*
D28*
X624840Y408940D03*
D24*
X673100Y474100D02*
X698500Y474100D01*
X604600Y414100D02*
X571300Y414100D01*
X664600Y474100D02*
X673100Y474100D01*
X657860Y467360D02*
X604600Y414100D01*
X657860Y467360D02*
X664600Y474100D01*
D23*
X657860Y467360D02*
X660400Y464820D01*
D28*
X660400Y464820D03*
D23*
X434340Y398780D02*
X421640Y398780D01*
X419300Y399100D01*
D28*
X434340Y398780D03*
D23*
X419100Y393700D02*
X393700Y393700D01*
X381000Y406400D01*
X419100Y393700D02*
X419300Y394100D01*
D28*
X381000Y406400D03*
D23*
X355600Y502227D02*
X355600Y584200D01*
X419300Y449100D02*
X419056Y448856D01*
X408971Y448856D01*
X355600Y502227D01*
X409417Y444100D02*
X419300Y444100D01*
X330200Y523317D02*
X330200Y584200D01*
X330200Y523317D02*
X409417Y444100D01*
X419215Y439015D02*
X419300Y439100D01*
X419215Y439015D02*
X408081Y439015D01*
X304800Y542296D01*
X304800Y584200D01*
X419300Y434100D02*
X418891Y433691D01*
X405321Y433691D01*
X279400Y559612D01*
X279400Y584200D01*
D24*
X530300Y343100D02*
X530300Y333300D01*
X540396Y323204D02*
X543909Y323204D01*
D25*
X543909Y323204D03*
X482600Y177800D03*
D24*
X520700Y177800D01*
D25*
X520700Y177800D03*
D24*
X540396Y323204D02*
X530300Y333300D01*
X445300Y495100D02*
X445300Y534754D01*
X448132Y537586D01*
X571300Y474100D02*
X596900Y474100D01*
X601100Y469900D01*
X660400Y592700D02*
X757818Y592700D01*
X769112Y581406D01*
X660400Y592700D02*
X650400Y592700D01*
X635000Y577300D01*
X806600Y543918D02*
X806600Y417900D01*
X806600Y543918D02*
X769112Y581406D01*
X419300Y389100D02*
X397600Y389100D01*
X378900Y370400D01*
X378900Y370840D02*
X378900Y387300D01*
X378900Y370840D02*
X378900Y370400D01*
X378900Y359800D01*
X368300Y359800D01*
X378900Y387300D02*
X368300Y397900D01*
D23*
X378460Y370840D02*
X378900Y370840D01*
X378460Y370840D02*
X378900Y370400D01*
D24*
X406400Y571500D02*
X419100Y584200D01*
X406400Y571500D02*
X406400Y533400D01*
X404274Y469100D02*
X419300Y469100D01*
X404274Y469100D02*
X399600Y473774D01*
X399600Y526600D01*
X406400Y533400D01*
X393700Y584200D02*
X393700Y470316D01*
X399916Y464100D01*
X419300Y464100D01*
X660400Y575700D02*
X673100Y563000D01*
X673100Y546100D01*
D25*
X673100Y546100D03*
X673100Y508000D03*
D24*
X673100Y491100D01*
X651070Y469070D01*
X626500Y444500D01*
X609600Y444500D01*
D25*
X609600Y444500D03*
X609600Y368300D03*
D24*
X398780Y416560D02*
X368300Y416560D01*
X416560Y528320D02*
X439420Y551180D01*
X566420Y551180D01*
X647700Y469900D01*
X650240Y469900D01*
X368300Y416560D02*
X368300Y414900D01*
X650240Y469900D02*
X651070Y469070D01*
D25*
X398780Y416560D03*
X416560Y528320D03*
D24*
X609092Y367411D02*
X609092Y326898D01*
X609600Y326000D01*
X609092Y367411D02*
X609600Y368300D01*
X500300Y343100D02*
X500300Y332441D01*
X504676Y328065D02*
X526835Y328065D01*
X543200Y311700D01*
X571500Y311700D01*
X504676Y328065D02*
X500300Y332441D01*
X571500Y311700D02*
X606900Y311700D01*
X609600Y309000D01*
X609600Y301888D02*
X625094Y286394D01*
X609600Y301888D02*
X609600Y309000D01*
X625094Y286394D02*
X625094Y261112D01*
X586994Y223012D01*
D23*
X449580Y495300D02*
X449580Y513080D01*
X454660Y513080D01*
X449580Y495300D02*
X450300Y495100D01*
D28*
X454660Y513080D03*
D23*
X421640Y487680D02*
X421640Y480060D01*
X421640Y487680D02*
X426720Y487680D01*
X421640Y480060D02*
X419300Y479100D01*
D28*
X426720Y487680D03*
D25*
X454364Y406400D03*
D23*
X436800Y414100D02*
X419300Y414100D01*
X436800Y414100D02*
X444500Y406400D01*
X454364Y406400D01*
D24*
X495300Y343100D02*
X495300Y323449D01*
X506351Y312398D01*
X490300Y320153D02*
X490300Y343100D01*
X490300Y320153D02*
X447040Y276893D01*
X447040Y266700D01*
X447040Y234560D02*
X465700Y215900D01*
X447040Y234560D02*
X447040Y266700D01*
X543560Y266700D02*
X543560Y292189D01*
X523351Y312398D01*
X543560Y266700D02*
X512200Y235340D01*
X512200Y215900D01*
X698500Y491100D02*
X730102Y491100D01*
X738661Y499658D01*
X364100Y381000D02*
X330200Y381000D01*
X364100Y381000D02*
X368300Y376800D01*
X786600Y267900D02*
X786600Y253200D01*
X774700Y241300D01*
X685800Y241300D01*
D25*
X685800Y241300D03*
X571500Y342900D03*
D24*
X556064Y342900D01*
X555864Y343100D01*
X796664Y277836D02*
X806600Y267900D01*
X796664Y277836D02*
X796664Y279583D01*
X641417Y303336D02*
X639953Y304800D01*
X635000Y304800D01*
X772911Y303336D02*
X796664Y279583D01*
X772911Y303336D02*
X641417Y303336D01*
D25*
X635000Y304800D03*
X609600Y279400D03*
D24*
X584200Y279400D01*
D25*
X584200Y279400D03*
X584200Y342900D03*
D24*
X584200Y345612D01*
X571300Y358512D01*
X482600Y133900D02*
X482600Y127000D01*
X816664Y243517D02*
X816664Y279583D01*
X517864Y169164D02*
X482600Y133900D01*
X517864Y169164D02*
X552184Y169164D01*
X766600Y329647D02*
X766600Y417900D01*
X766600Y329647D02*
X816664Y279583D01*
X592570Y209550D02*
X552184Y169164D01*
X782697Y209550D02*
X816664Y243517D01*
X782697Y209550D02*
X592570Y209550D01*
M02*
