G04 EAGLE Gerber RS-274X export*
G75*
%MOMM*%
%FSLAX34Y34*%
%LPD*%
%IN*%
%IPPOS*%
%AMOC8*
5,1,8,0,0,1.08239X$1,22.5*%
G01*
%ADD10C,0.254000*%


D10*
X101600Y101600D02*
X834900Y101600D01*
X834900Y609500D01*
X101600Y609500D01*
X101600Y101600D01*
X827800Y126464D02*
X827724Y125396D01*
X827571Y124335D01*
X827343Y123288D01*
X827041Y122260D01*
X826667Y121256D01*
X826222Y120281D01*
X825708Y119341D01*
X825129Y118440D01*
X824487Y117582D01*
X823785Y116772D01*
X823028Y116015D01*
X822218Y115313D01*
X821360Y114671D01*
X820459Y114092D01*
X819519Y113578D01*
X818544Y113133D01*
X817540Y112759D01*
X816512Y112457D01*
X815465Y112229D01*
X814404Y112076D01*
X813336Y112000D01*
X812264Y112000D01*
X811196Y112076D01*
X810135Y112229D01*
X809088Y112457D01*
X808060Y112759D01*
X807056Y113133D01*
X806081Y113578D01*
X805141Y114092D01*
X804240Y114671D01*
X803382Y115313D01*
X802572Y116015D01*
X801815Y116772D01*
X801113Y117582D01*
X800471Y118440D01*
X799892Y119341D01*
X799378Y120281D01*
X798933Y121256D01*
X798559Y122260D01*
X798257Y123288D01*
X798029Y124335D01*
X797876Y125396D01*
X797800Y126464D01*
X797800Y127536D01*
X797876Y128604D01*
X798029Y129665D01*
X798257Y130712D01*
X798559Y131740D01*
X798933Y132744D01*
X799378Y133719D01*
X799892Y134659D01*
X800471Y135560D01*
X801113Y136418D01*
X801815Y137228D01*
X802572Y137985D01*
X803382Y138687D01*
X804240Y139329D01*
X805141Y139908D01*
X806081Y140422D01*
X807056Y140867D01*
X808060Y141241D01*
X809088Y141543D01*
X810135Y141771D01*
X811196Y141924D01*
X812264Y142000D01*
X813336Y142000D01*
X814404Y141924D01*
X815465Y141771D01*
X816512Y141543D01*
X817540Y141241D01*
X818544Y140867D01*
X819519Y140422D01*
X820459Y139908D01*
X821360Y139329D01*
X822218Y138687D01*
X823028Y137985D01*
X823785Y137228D01*
X824487Y136418D01*
X825129Y135560D01*
X825708Y134659D01*
X826222Y133719D01*
X826667Y132744D01*
X827041Y131740D01*
X827343Y130712D01*
X827571Y129665D01*
X827724Y128604D01*
X827800Y127536D01*
X827800Y126464D01*
X142000Y126464D02*
X141924Y125396D01*
X141771Y124335D01*
X141543Y123288D01*
X141241Y122260D01*
X140867Y121256D01*
X140422Y120281D01*
X139908Y119341D01*
X139329Y118440D01*
X138687Y117582D01*
X137985Y116772D01*
X137228Y116015D01*
X136418Y115313D01*
X135560Y114671D01*
X134659Y114092D01*
X133719Y113578D01*
X132744Y113133D01*
X131740Y112759D01*
X130712Y112457D01*
X129665Y112229D01*
X128604Y112076D01*
X127536Y112000D01*
X126464Y112000D01*
X125396Y112076D01*
X124335Y112229D01*
X123288Y112457D01*
X122260Y112759D01*
X121256Y113133D01*
X120281Y113578D01*
X119341Y114092D01*
X118440Y114671D01*
X117582Y115313D01*
X116772Y116015D01*
X116015Y116772D01*
X115313Y117582D01*
X114671Y118440D01*
X114092Y119341D01*
X113578Y120281D01*
X113133Y121256D01*
X112759Y122260D01*
X112457Y123288D01*
X112229Y124335D01*
X112076Y125396D01*
X112000Y126464D01*
X112000Y127536D01*
X112076Y128604D01*
X112229Y129665D01*
X112457Y130712D01*
X112759Y131740D01*
X113133Y132744D01*
X113578Y133719D01*
X114092Y134659D01*
X114671Y135560D01*
X115313Y136418D01*
X116015Y137228D01*
X116772Y137985D01*
X117582Y138687D01*
X118440Y139329D01*
X119341Y139908D01*
X120281Y140422D01*
X121256Y140867D01*
X122260Y141241D01*
X123288Y141543D01*
X124335Y141771D01*
X125396Y141924D01*
X126464Y142000D01*
X127536Y142000D01*
X128604Y141924D01*
X129665Y141771D01*
X130712Y141543D01*
X131740Y141241D01*
X132744Y140867D01*
X133719Y140422D01*
X134659Y139908D01*
X135560Y139329D01*
X136418Y138687D01*
X137228Y137985D01*
X137985Y137228D01*
X138687Y136418D01*
X139329Y135560D01*
X139908Y134659D01*
X140422Y133719D01*
X140867Y132744D01*
X141241Y131740D01*
X141543Y130712D01*
X141771Y129665D01*
X141924Y128604D01*
X142000Y127536D01*
X142000Y126464D01*
X142000Y583664D02*
X141924Y582596D01*
X141771Y581535D01*
X141543Y580488D01*
X141241Y579460D01*
X140867Y578456D01*
X140422Y577481D01*
X139908Y576541D01*
X139329Y575640D01*
X138687Y574782D01*
X137985Y573972D01*
X137228Y573215D01*
X136418Y572513D01*
X135560Y571871D01*
X134659Y571292D01*
X133719Y570778D01*
X132744Y570333D01*
X131740Y569959D01*
X130712Y569657D01*
X129665Y569429D01*
X128604Y569276D01*
X127536Y569200D01*
X126464Y569200D01*
X125396Y569276D01*
X124335Y569429D01*
X123288Y569657D01*
X122260Y569959D01*
X121256Y570333D01*
X120281Y570778D01*
X119341Y571292D01*
X118440Y571871D01*
X117582Y572513D01*
X116772Y573215D01*
X116015Y573972D01*
X115313Y574782D01*
X114671Y575640D01*
X114092Y576541D01*
X113578Y577481D01*
X113133Y578456D01*
X112759Y579460D01*
X112457Y580488D01*
X112229Y581535D01*
X112076Y582596D01*
X112000Y583664D01*
X112000Y584736D01*
X112076Y585804D01*
X112229Y586865D01*
X112457Y587912D01*
X112759Y588940D01*
X113133Y589944D01*
X113578Y590919D01*
X114092Y591859D01*
X114671Y592760D01*
X115313Y593618D01*
X116015Y594428D01*
X116772Y595185D01*
X117582Y595887D01*
X118440Y596529D01*
X119341Y597108D01*
X120281Y597622D01*
X121256Y598067D01*
X122260Y598441D01*
X123288Y598743D01*
X124335Y598971D01*
X125396Y599124D01*
X126464Y599200D01*
X127536Y599200D01*
X128604Y599124D01*
X129665Y598971D01*
X130712Y598743D01*
X131740Y598441D01*
X132744Y598067D01*
X133719Y597622D01*
X134659Y597108D01*
X135560Y596529D01*
X136418Y595887D01*
X137228Y595185D01*
X137985Y594428D01*
X138687Y593618D01*
X139329Y592760D01*
X139908Y591859D01*
X140422Y590919D01*
X140867Y589944D01*
X141241Y588940D01*
X141543Y587912D01*
X141771Y586865D01*
X141924Y585804D01*
X142000Y584736D01*
X142000Y583664D01*
X827800Y583664D02*
X827724Y582596D01*
X827571Y581535D01*
X827343Y580488D01*
X827041Y579460D01*
X826667Y578456D01*
X826222Y577481D01*
X825708Y576541D01*
X825129Y575640D01*
X824487Y574782D01*
X823785Y573972D01*
X823028Y573215D01*
X822218Y572513D01*
X821360Y571871D01*
X820459Y571292D01*
X819519Y570778D01*
X818544Y570333D01*
X817540Y569959D01*
X816512Y569657D01*
X815465Y569429D01*
X814404Y569276D01*
X813336Y569200D01*
X812264Y569200D01*
X811196Y569276D01*
X810135Y569429D01*
X809088Y569657D01*
X808060Y569959D01*
X807056Y570333D01*
X806081Y570778D01*
X805141Y571292D01*
X804240Y571871D01*
X803382Y572513D01*
X802572Y573215D01*
X801815Y573972D01*
X801113Y574782D01*
X800471Y575640D01*
X799892Y576541D01*
X799378Y577481D01*
X798933Y578456D01*
X798559Y579460D01*
X798257Y580488D01*
X798029Y581535D01*
X797876Y582596D01*
X797800Y583664D01*
X797800Y584736D01*
X797876Y585804D01*
X798029Y586865D01*
X798257Y587912D01*
X798559Y588940D01*
X798933Y589944D01*
X799378Y590919D01*
X799892Y591859D01*
X800471Y592760D01*
X801113Y593618D01*
X801815Y594428D01*
X802572Y595185D01*
X803382Y595887D01*
X804240Y596529D01*
X805141Y597108D01*
X806081Y597622D01*
X807056Y598067D01*
X808060Y598441D01*
X809088Y598743D01*
X810135Y598971D01*
X811196Y599124D01*
X812264Y599200D01*
X813336Y599200D01*
X814404Y599124D01*
X815465Y598971D01*
X816512Y598743D01*
X817540Y598441D01*
X818544Y598067D01*
X819519Y597622D01*
X820459Y597108D01*
X821360Y596529D01*
X822218Y595887D01*
X823028Y595185D01*
X823785Y594428D01*
X824487Y593618D01*
X825129Y592760D01*
X825708Y591859D01*
X826222Y590919D01*
X826667Y589944D01*
X827041Y588940D01*
X827343Y587912D01*
X827571Y586865D01*
X827724Y585804D01*
X827800Y584736D01*
X827800Y583664D01*
M02*
