G04 EAGLE Gerber RS-274X export*
G75*
%MOMM*%
%FSLAX34Y34*%
%LPD*%
%IN*%
%IPPOS*%
%AMOC8*
5,1,8,0,0,1.08239X$1,22.5*%
G01*
%ADD10C,0.254000*%


D10*
X139700Y127000D02*
X834900Y127000D01*
X834900Y609500D01*
X139700Y609500D01*
X139700Y127000D01*
X827800Y151864D02*
X827724Y150796D01*
X827571Y149735D01*
X827343Y148688D01*
X827041Y147660D01*
X826667Y146656D01*
X826222Y145681D01*
X825708Y144741D01*
X825129Y143840D01*
X824487Y142982D01*
X823785Y142172D01*
X823028Y141415D01*
X822218Y140713D01*
X821360Y140071D01*
X820459Y139492D01*
X819519Y138978D01*
X818544Y138533D01*
X817540Y138159D01*
X816512Y137857D01*
X815465Y137629D01*
X814404Y137476D01*
X813336Y137400D01*
X812264Y137400D01*
X811196Y137476D01*
X810135Y137629D01*
X809088Y137857D01*
X808060Y138159D01*
X807056Y138533D01*
X806081Y138978D01*
X805141Y139492D01*
X804240Y140071D01*
X803382Y140713D01*
X802572Y141415D01*
X801815Y142172D01*
X801113Y142982D01*
X800471Y143840D01*
X799892Y144741D01*
X799378Y145681D01*
X798933Y146656D01*
X798559Y147660D01*
X798257Y148688D01*
X798029Y149735D01*
X797876Y150796D01*
X797800Y151864D01*
X797800Y152936D01*
X797876Y154004D01*
X798029Y155065D01*
X798257Y156112D01*
X798559Y157140D01*
X798933Y158144D01*
X799378Y159119D01*
X799892Y160059D01*
X800471Y160960D01*
X801113Y161818D01*
X801815Y162628D01*
X802572Y163385D01*
X803382Y164087D01*
X804240Y164729D01*
X805141Y165308D01*
X806081Y165822D01*
X807056Y166267D01*
X808060Y166641D01*
X809088Y166943D01*
X810135Y167171D01*
X811196Y167324D01*
X812264Y167400D01*
X813336Y167400D01*
X814404Y167324D01*
X815465Y167171D01*
X816512Y166943D01*
X817540Y166641D01*
X818544Y166267D01*
X819519Y165822D01*
X820459Y165308D01*
X821360Y164729D01*
X822218Y164087D01*
X823028Y163385D01*
X823785Y162628D01*
X824487Y161818D01*
X825129Y160960D01*
X825708Y160059D01*
X826222Y159119D01*
X826667Y158144D01*
X827041Y157140D01*
X827343Y156112D01*
X827571Y155065D01*
X827724Y154004D01*
X827800Y152936D01*
X827800Y151864D01*
X180100Y151864D02*
X180024Y150796D01*
X179871Y149735D01*
X179643Y148688D01*
X179341Y147660D01*
X178967Y146656D01*
X178522Y145681D01*
X178008Y144741D01*
X177429Y143840D01*
X176787Y142982D01*
X176085Y142172D01*
X175328Y141415D01*
X174518Y140713D01*
X173660Y140071D01*
X172759Y139492D01*
X171819Y138978D01*
X170844Y138533D01*
X169840Y138159D01*
X168812Y137857D01*
X167765Y137629D01*
X166704Y137476D01*
X165636Y137400D01*
X164564Y137400D01*
X163496Y137476D01*
X162435Y137629D01*
X161388Y137857D01*
X160360Y138159D01*
X159356Y138533D01*
X158381Y138978D01*
X157441Y139492D01*
X156540Y140071D01*
X155682Y140713D01*
X154872Y141415D01*
X154115Y142172D01*
X153413Y142982D01*
X152771Y143840D01*
X152192Y144741D01*
X151678Y145681D01*
X151233Y146656D01*
X150859Y147660D01*
X150557Y148688D01*
X150329Y149735D01*
X150176Y150796D01*
X150100Y151864D01*
X150100Y152936D01*
X150176Y154004D01*
X150329Y155065D01*
X150557Y156112D01*
X150859Y157140D01*
X151233Y158144D01*
X151678Y159119D01*
X152192Y160059D01*
X152771Y160960D01*
X153413Y161818D01*
X154115Y162628D01*
X154872Y163385D01*
X155682Y164087D01*
X156540Y164729D01*
X157441Y165308D01*
X158381Y165822D01*
X159356Y166267D01*
X160360Y166641D01*
X161388Y166943D01*
X162435Y167171D01*
X163496Y167324D01*
X164564Y167400D01*
X165636Y167400D01*
X166704Y167324D01*
X167765Y167171D01*
X168812Y166943D01*
X169840Y166641D01*
X170844Y166267D01*
X171819Y165822D01*
X172759Y165308D01*
X173660Y164729D01*
X174518Y164087D01*
X175328Y163385D01*
X176085Y162628D01*
X176787Y161818D01*
X177429Y160960D01*
X178008Y160059D01*
X178522Y159119D01*
X178967Y158144D01*
X179341Y157140D01*
X179643Y156112D01*
X179871Y155065D01*
X180024Y154004D01*
X180100Y152936D01*
X180100Y151864D01*
X177052Y586712D02*
X176976Y585644D01*
X176823Y584583D01*
X176595Y583536D01*
X176293Y582508D01*
X175919Y581504D01*
X175474Y580529D01*
X174960Y579589D01*
X174381Y578688D01*
X173739Y577830D01*
X173037Y577020D01*
X172280Y576263D01*
X171470Y575561D01*
X170612Y574919D01*
X169711Y574340D01*
X168771Y573826D01*
X167796Y573381D01*
X166792Y573007D01*
X165764Y572705D01*
X164717Y572477D01*
X163656Y572324D01*
X162588Y572248D01*
X161516Y572248D01*
X160448Y572324D01*
X159387Y572477D01*
X158340Y572705D01*
X157312Y573007D01*
X156308Y573381D01*
X155333Y573826D01*
X154393Y574340D01*
X153492Y574919D01*
X152634Y575561D01*
X151824Y576263D01*
X151067Y577020D01*
X150365Y577830D01*
X149723Y578688D01*
X149144Y579589D01*
X148630Y580529D01*
X148185Y581504D01*
X147811Y582508D01*
X147509Y583536D01*
X147281Y584583D01*
X147128Y585644D01*
X147052Y586712D01*
X147052Y587784D01*
X147128Y588852D01*
X147281Y589913D01*
X147509Y590960D01*
X147811Y591988D01*
X148185Y592992D01*
X148630Y593967D01*
X149144Y594907D01*
X149723Y595808D01*
X150365Y596666D01*
X151067Y597476D01*
X151824Y598233D01*
X152634Y598935D01*
X153492Y599577D01*
X154393Y600156D01*
X155333Y600670D01*
X156308Y601115D01*
X157312Y601489D01*
X158340Y601791D01*
X159387Y602019D01*
X160448Y602172D01*
X161516Y602248D01*
X162588Y602248D01*
X163656Y602172D01*
X164717Y602019D01*
X165764Y601791D01*
X166792Y601489D01*
X167796Y601115D01*
X168771Y600670D01*
X169711Y600156D01*
X170612Y599577D01*
X171470Y598935D01*
X172280Y598233D01*
X173037Y597476D01*
X173739Y596666D01*
X174381Y595808D01*
X174960Y594907D01*
X175474Y593967D01*
X175919Y592992D01*
X176293Y591988D01*
X176595Y590960D01*
X176823Y589913D01*
X176976Y588852D01*
X177052Y587784D01*
X177052Y586712D01*
X827800Y583664D02*
X827724Y582596D01*
X827571Y581535D01*
X827343Y580488D01*
X827041Y579460D01*
X826667Y578456D01*
X826222Y577481D01*
X825708Y576541D01*
X825129Y575640D01*
X824487Y574782D01*
X823785Y573972D01*
X823028Y573215D01*
X822218Y572513D01*
X821360Y571871D01*
X820459Y571292D01*
X819519Y570778D01*
X818544Y570333D01*
X817540Y569959D01*
X816512Y569657D01*
X815465Y569429D01*
X814404Y569276D01*
X813336Y569200D01*
X812264Y569200D01*
X811196Y569276D01*
X810135Y569429D01*
X809088Y569657D01*
X808060Y569959D01*
X807056Y570333D01*
X806081Y570778D01*
X805141Y571292D01*
X804240Y571871D01*
X803382Y572513D01*
X802572Y573215D01*
X801815Y573972D01*
X801113Y574782D01*
X800471Y575640D01*
X799892Y576541D01*
X799378Y577481D01*
X798933Y578456D01*
X798559Y579460D01*
X798257Y580488D01*
X798029Y581535D01*
X797876Y582596D01*
X797800Y583664D01*
X797800Y584736D01*
X797876Y585804D01*
X798029Y586865D01*
X798257Y587912D01*
X798559Y588940D01*
X798933Y589944D01*
X799378Y590919D01*
X799892Y591859D01*
X800471Y592760D01*
X801113Y593618D01*
X801815Y594428D01*
X802572Y595185D01*
X803382Y595887D01*
X804240Y596529D01*
X805141Y597108D01*
X806081Y597622D01*
X807056Y598067D01*
X808060Y598441D01*
X809088Y598743D01*
X810135Y598971D01*
X811196Y599124D01*
X812264Y599200D01*
X813336Y599200D01*
X814404Y599124D01*
X815465Y598971D01*
X816512Y598743D01*
X817540Y598441D01*
X818544Y598067D01*
X819519Y597622D01*
X820459Y597108D01*
X821360Y596529D01*
X822218Y595887D01*
X823028Y595185D01*
X823785Y594428D01*
X824487Y593618D01*
X825129Y592760D01*
X825708Y591859D01*
X826222Y590919D01*
X826667Y589944D01*
X827041Y588940D01*
X827343Y587912D01*
X827571Y586865D01*
X827724Y585804D01*
X827800Y584736D01*
X827800Y583664D01*
M02*
