G04 EAGLE Gerber RS-274X export*
G75*
%MOMM*%
%FSLAX34Y34*%
%LPD*%
%INTop Copper*%
%IPPOS*%
%AMOC8*
5,1,8,0,0,1.08239X$1,22.5*%
G01*
%ADD10C,1.879600*%
%ADD11C,1.981200*%
%ADD12R,1.000000X1.100000*%
%ADD13R,1.100000X1.000000*%
%ADD14P,1.785944X8X22.500000*%
%ADD15P,1.785944X8X292.500000*%
%ADD16R,1.676400X1.676400*%
%ADD17C,1.676400*%
%ADD18C,0.914400*%
%ADD19C,0.756400*%


D10*
X317500Y736600D03*
X342900Y736600D03*
X368300Y736600D03*
X393700Y736600D03*
X419100Y736600D03*
X444500Y736600D03*
X469900Y736600D03*
X533400Y736600D03*
X558800Y736600D03*
X241300Y736600D03*
X266700Y736600D03*
X482600Y38100D03*
X457200Y38100D03*
D11*
X571500Y12700D03*
X571500Y114300D03*
D10*
X609600Y698500D03*
X635000Y698500D03*
X355600Y368300D03*
X381000Y368300D03*
X152400Y368300D03*
X177800Y368300D03*
D11*
X571500Y190500D03*
X571500Y292100D03*
X571500Y381000D03*
X571500Y482600D03*
X571500Y571500D03*
X571500Y673100D03*
X254000Y368300D03*
X254000Y469900D03*
X38100Y342900D03*
X38100Y444500D03*
D10*
X609600Y127000D03*
X635000Y127000D03*
X609600Y330200D03*
X635000Y330200D03*
X609600Y508000D03*
X635000Y508000D03*
X12700Y596900D03*
X12700Y622300D03*
X177800Y736600D03*
X647700Y63500D03*
X666750Y50800D03*
X647700Y38100D03*
X647700Y254000D03*
X666750Y241300D03*
X647700Y228600D03*
X647700Y444500D03*
X666750Y431800D03*
X647700Y419100D03*
X647700Y622300D03*
X666750Y609600D03*
X647700Y596900D03*
X292100Y330200D03*
X311150Y317500D03*
X292100Y304800D03*
X101600Y330200D03*
X120650Y317500D03*
X101600Y304800D03*
D12*
X673100Y93100D03*
X673100Y110100D03*
X381000Y313300D03*
X381000Y296300D03*
X673100Y681600D03*
X673100Y664600D03*
D13*
X148200Y685800D03*
X131200Y685800D03*
D12*
X673100Y296300D03*
X673100Y313300D03*
X673100Y486800D03*
X673100Y503800D03*
X177800Y326000D03*
X177800Y309000D03*
D10*
X952500Y114300D03*
X952500Y88900D03*
X952500Y63500D03*
X952500Y292100D03*
X952500Y266700D03*
X952500Y241300D03*
X952500Y482600D03*
X952500Y457200D03*
X952500Y431800D03*
X952500Y660400D03*
X952500Y635000D03*
X952500Y609600D03*
X139700Y38100D03*
X114300Y38100D03*
X88900Y38100D03*
X342900Y38100D03*
X317500Y38100D03*
X292100Y38100D03*
X317500Y546100D03*
X317500Y571500D03*
X317500Y596900D03*
X317500Y622300D03*
X317500Y647700D03*
X317500Y673100D03*
D14*
X749300Y161600D03*
X749300Y41600D03*
X871300Y161600D03*
X871300Y41600D03*
X729300Y101600D03*
X749300Y339400D03*
X749300Y219400D03*
X871300Y339400D03*
X871300Y219400D03*
X729300Y279400D03*
D15*
X377500Y228600D03*
X257500Y228600D03*
X377500Y106600D03*
X257500Y106600D03*
X317500Y248600D03*
D14*
X749300Y517200D03*
X749300Y397200D03*
X871300Y517200D03*
X871300Y397200D03*
X729300Y457200D03*
X749300Y695000D03*
X749300Y575000D03*
X871300Y695000D03*
X871300Y575000D03*
X729300Y635000D03*
D15*
X174300Y228600D03*
X54300Y228600D03*
X174300Y106600D03*
X54300Y106600D03*
X114300Y248600D03*
D16*
X101600Y647700D03*
D17*
X101600Y622300D03*
X101600Y596900D03*
X101600Y571500D03*
X177800Y571500D03*
X177800Y596900D03*
X177800Y622300D03*
X177800Y647700D03*
D18*
X749300Y41275D02*
X739775Y31750D01*
X654050Y31750D01*
X647700Y38100D01*
X749300Y41275D02*
X749300Y41600D01*
X593725Y34925D02*
X571500Y12700D01*
X593725Y34925D02*
X644525Y34925D01*
X647700Y38100D01*
X654050Y222250D02*
X749300Y222250D01*
X654050Y222250D02*
X647700Y228600D01*
X749300Y222250D02*
X749300Y219400D01*
X606425Y225425D02*
X571500Y190500D01*
X606425Y225425D02*
X644525Y225425D01*
X647700Y228600D01*
X749300Y400050D02*
X736600Y412750D01*
X654050Y412750D01*
X647700Y419100D01*
X749300Y400050D02*
X749300Y397200D01*
X606425Y415925D02*
X571500Y381000D01*
X606425Y415925D02*
X644525Y415925D01*
X647700Y419100D01*
X76200Y304800D02*
X38100Y342900D01*
X76200Y304800D02*
X101600Y304800D01*
X120650Y292100D02*
X57150Y228600D01*
X120650Y292100D02*
X279400Y292100D01*
X292100Y304800D01*
X57150Y228600D02*
X54300Y228600D01*
X736600Y590550D02*
X749300Y577850D01*
X736600Y590550D02*
X654050Y590550D01*
X647700Y596900D01*
X749300Y577850D02*
X749300Y575000D01*
X593725Y593725D02*
X571500Y571500D01*
X593725Y593725D02*
X644525Y593725D01*
X647700Y596900D01*
X673100Y609600D02*
X673100Y664600D01*
X673100Y609600D02*
X666750Y609600D01*
X381000Y298450D02*
X330200Y298450D01*
X311150Y317500D01*
X381000Y298450D02*
X381000Y296300D01*
X177800Y311150D02*
X127000Y311150D01*
X120650Y317500D01*
X177800Y311150D02*
X177800Y309000D01*
X177800Y327025D02*
X161925Y327025D01*
X177800Y327025D02*
X177800Y326000D01*
D19*
X161925Y327025D03*
D18*
X381000Y313300D02*
X381000Y368300D01*
X673100Y682625D02*
X657225Y698500D01*
X635000Y698500D01*
X673100Y682625D02*
X673100Y681600D01*
X673100Y504825D02*
X679450Y504825D01*
X688975Y495300D01*
X688975Y431800D01*
X666750Y431800D01*
X673100Y503800D02*
X673100Y504825D01*
X673100Y488950D02*
X654050Y488950D01*
X635000Y508000D01*
X673100Y488950D02*
X673100Y486800D01*
X673100Y295275D02*
X669925Y292100D01*
X644525Y292100D01*
X673100Y295275D02*
X673100Y296300D01*
D19*
X644525Y292100D03*
D18*
X673100Y311150D02*
X723900Y311150D01*
X749300Y285750D01*
X749300Y241300D01*
X666750Y241300D01*
X673100Y311150D02*
X673100Y313300D01*
X673100Y92075D02*
X666750Y92075D01*
X635000Y123825D01*
X635000Y127000D01*
X673100Y93100D02*
X673100Y92075D01*
X673100Y107950D02*
X682625Y107950D01*
X688975Y101600D01*
X688975Y50800D01*
X666750Y50800D01*
X673100Y107950D02*
X673100Y110100D01*
X873125Y44450D02*
X892175Y63500D01*
X952500Y63500D01*
X873125Y44450D02*
X871300Y41600D01*
X917575Y114300D02*
X873125Y158750D01*
X917575Y114300D02*
X952500Y114300D01*
X873125Y158750D02*
X871300Y161600D01*
X873125Y222250D02*
X892175Y241300D01*
X952500Y241300D01*
X873125Y222250D02*
X871300Y219400D01*
X749300Y336550D02*
X742950Y330200D01*
X663575Y330200D01*
X638175Y304800D01*
X584200Y304800D01*
X571500Y292100D01*
X749300Y336550D02*
X749300Y339400D01*
X904875Y482600D02*
X873125Y514350D01*
X904875Y482600D02*
X952500Y482600D01*
X873125Y514350D02*
X871300Y517200D01*
X873125Y336550D02*
X917575Y292100D01*
X952500Y292100D01*
X873125Y336550D02*
X871300Y339400D01*
X904875Y660400D02*
X873125Y692150D01*
X904875Y660400D02*
X952500Y660400D01*
X873125Y692150D02*
X871300Y695000D01*
X904875Y609600D02*
X873125Y577850D01*
X904875Y609600D02*
X952500Y609600D01*
X873125Y577850D02*
X871300Y575000D01*
X149225Y647700D02*
X149225Y685800D01*
X149225Y647700D02*
X177800Y647700D01*
X149225Y685800D02*
X148200Y685800D01*
X130175Y685800D02*
X130175Y647700D01*
X101600Y647700D01*
X130175Y685800D02*
X131200Y685800D01*
X101600Y622300D02*
X12700Y622300D01*
X101600Y571500D02*
X177800Y571500D01*
X266700Y574675D02*
X266700Y736600D01*
X266700Y574675D02*
X180975Y574675D01*
X177800Y571500D01*
X174625Y228600D02*
X193675Y209550D01*
X355600Y209550D01*
X374650Y228600D01*
X174625Y228600D02*
X174300Y228600D01*
X374650Y228600D02*
X377500Y228600D01*
X736600Y146050D02*
X749300Y158750D01*
X736600Y146050D02*
X600075Y146050D01*
X571500Y117475D01*
X571500Y114300D01*
X749300Y158750D02*
X749300Y161600D01*
X63500Y469900D02*
X38100Y444500D01*
X63500Y469900D02*
X254000Y469900D01*
X266700Y482600D01*
X571500Y482600D01*
X114300Y342900D02*
X101600Y330200D01*
X114300Y342900D02*
X279400Y342900D01*
X292100Y330200D01*
X457200Y63500D02*
X457200Y38100D01*
X457200Y63500D02*
X647700Y63500D01*
X292100Y336550D02*
X400050Y444500D01*
X647700Y444500D01*
X292100Y336550D02*
X292100Y330200D01*
X323850Y565150D02*
X317500Y571500D01*
X323850Y565150D02*
X415925Y565150D01*
D19*
X415925Y565150D03*
D18*
X323850Y590550D02*
X317500Y596900D01*
X323850Y590550D02*
X523875Y590550D01*
X606425Y508000D01*
X609600Y508000D01*
X323850Y628650D02*
X317500Y622300D01*
X323850Y628650D02*
X498475Y628650D01*
X568325Y698500D01*
X609600Y698500D01*
X904875Y431800D02*
X873125Y400050D01*
X904875Y431800D02*
X952500Y431800D01*
X873125Y400050D02*
X871300Y397200D01*
X342900Y736600D02*
X317500Y736600D01*
X342900Y736600D02*
X368300Y736600D01*
X393700Y736600D01*
X419100Y736600D01*
X444500Y736600D01*
X469900Y736600D01*
X533400Y736600D01*
X317500Y247650D02*
X114300Y247650D01*
X114300Y248600D01*
X317500Y248600D02*
X317500Y247650D01*
X577850Y717550D02*
X558800Y736600D01*
X577850Y717550D02*
X663575Y717550D01*
X727075Y654050D01*
X727075Y635000D01*
X729300Y635000D01*
X342900Y273050D02*
X320675Y250825D01*
X342900Y273050D02*
X720725Y273050D01*
X727075Y279400D01*
X320675Y250825D02*
X317500Y248600D01*
X727075Y279400D02*
X729300Y279400D01*
X101600Y596900D02*
X12700Y596900D01*
M02*
