G04 EAGLE Gerber RS-274X export*
G75*
%MOMM*%
%FSLAX34Y34*%
%LPD*%
%IN*%
%IPPOS*%
%AMOC8*
5,1,8,0,0,1.08239X$1,22.5*%
G01*
%ADD10C,0.254000*%


D10*
X-25400Y-12700D02*
X1000000Y-12700D01*
X1000000Y812700D01*
X-25400Y812700D01*
X-25400Y-12700D01*
X8000Y787007D02*
X7923Y786225D01*
X7770Y785454D01*
X7541Y784702D01*
X7241Y783975D01*
X6870Y783282D01*
X6433Y782629D01*
X5935Y782021D01*
X5379Y781465D01*
X4771Y780967D01*
X4118Y780530D01*
X3425Y780159D01*
X2698Y779859D01*
X1946Y779630D01*
X1175Y779477D01*
X393Y779400D01*
X-393Y779400D01*
X-1175Y779477D01*
X-1946Y779630D01*
X-2698Y779859D01*
X-3425Y780159D01*
X-4118Y780530D01*
X-4771Y780967D01*
X-5379Y781465D01*
X-5935Y782021D01*
X-6433Y782629D01*
X-6870Y783282D01*
X-7241Y783975D01*
X-7541Y784702D01*
X-7770Y785454D01*
X-7923Y786225D01*
X-8000Y787007D01*
X-8000Y787793D01*
X-7923Y788575D01*
X-7770Y789346D01*
X-7541Y790098D01*
X-7241Y790825D01*
X-6870Y791518D01*
X-6433Y792171D01*
X-5935Y792779D01*
X-5379Y793335D01*
X-4771Y793833D01*
X-4118Y794270D01*
X-3425Y794641D01*
X-2698Y794941D01*
X-1946Y795170D01*
X-1175Y795323D01*
X-393Y795400D01*
X393Y795400D01*
X1175Y795323D01*
X1946Y795170D01*
X2698Y794941D01*
X3425Y794641D01*
X4118Y794270D01*
X4771Y793833D01*
X5379Y793335D01*
X5935Y792779D01*
X6433Y792171D01*
X6870Y791518D01*
X7241Y790825D01*
X7541Y790098D01*
X7770Y789346D01*
X7923Y788575D01*
X8000Y787793D01*
X8000Y787007D01*
X8000Y12307D02*
X7923Y11525D01*
X7770Y10754D01*
X7541Y10002D01*
X7241Y9275D01*
X6870Y8582D01*
X6433Y7929D01*
X5935Y7321D01*
X5379Y6765D01*
X4771Y6267D01*
X4118Y5830D01*
X3425Y5459D01*
X2698Y5159D01*
X1946Y4930D01*
X1175Y4777D01*
X393Y4700D01*
X-393Y4700D01*
X-1175Y4777D01*
X-1946Y4930D01*
X-2698Y5159D01*
X-3425Y5459D01*
X-4118Y5830D01*
X-4771Y6267D01*
X-5379Y6765D01*
X-5935Y7321D01*
X-6433Y7929D01*
X-6870Y8582D01*
X-7241Y9275D01*
X-7541Y10002D01*
X-7770Y10754D01*
X-7923Y11525D01*
X-8000Y12307D01*
X-8000Y13093D01*
X-7923Y13875D01*
X-7770Y14646D01*
X-7541Y15398D01*
X-7241Y16125D01*
X-6870Y16818D01*
X-6433Y17471D01*
X-5935Y18079D01*
X-5379Y18635D01*
X-4771Y19133D01*
X-4118Y19570D01*
X-3425Y19941D01*
X-2698Y20241D01*
X-1946Y20470D01*
X-1175Y20623D01*
X-393Y20700D01*
X393Y20700D01*
X1175Y20623D01*
X1946Y20470D01*
X2698Y20241D01*
X3425Y19941D01*
X4118Y19570D01*
X4771Y19133D01*
X5379Y18635D01*
X5935Y18079D01*
X6433Y17471D01*
X6870Y16818D01*
X7241Y16125D01*
X7541Y15398D01*
X7770Y14646D01*
X7923Y13875D01*
X8000Y13093D01*
X8000Y12307D01*
X985900Y12307D02*
X985823Y11525D01*
X985670Y10754D01*
X985441Y10002D01*
X985141Y9275D01*
X984770Y8582D01*
X984333Y7929D01*
X983835Y7321D01*
X983279Y6765D01*
X982671Y6267D01*
X982018Y5830D01*
X981325Y5459D01*
X980598Y5159D01*
X979846Y4930D01*
X979075Y4777D01*
X978293Y4700D01*
X977507Y4700D01*
X976725Y4777D01*
X975954Y4930D01*
X975202Y5159D01*
X974475Y5459D01*
X973782Y5830D01*
X973129Y6267D01*
X972521Y6765D01*
X971965Y7321D01*
X971467Y7929D01*
X971030Y8582D01*
X970659Y9275D01*
X970359Y10002D01*
X970130Y10754D01*
X969977Y11525D01*
X969900Y12307D01*
X969900Y13093D01*
X969977Y13875D01*
X970130Y14646D01*
X970359Y15398D01*
X970659Y16125D01*
X971030Y16818D01*
X971467Y17471D01*
X971965Y18079D01*
X972521Y18635D01*
X973129Y19133D01*
X973782Y19570D01*
X974475Y19941D01*
X975202Y20241D01*
X975954Y20470D01*
X976725Y20623D01*
X977507Y20700D01*
X978293Y20700D01*
X979075Y20623D01*
X979846Y20470D01*
X980598Y20241D01*
X981325Y19941D01*
X982018Y19570D01*
X982671Y19133D01*
X983279Y18635D01*
X983835Y18079D01*
X984333Y17471D01*
X984770Y16818D01*
X985141Y16125D01*
X985441Y15398D01*
X985670Y14646D01*
X985823Y13875D01*
X985900Y13093D01*
X985900Y12307D01*
X985900Y787007D02*
X985823Y786225D01*
X985670Y785454D01*
X985441Y784702D01*
X985141Y783975D01*
X984770Y783282D01*
X984333Y782629D01*
X983835Y782021D01*
X983279Y781465D01*
X982671Y780967D01*
X982018Y780530D01*
X981325Y780159D01*
X980598Y779859D01*
X979846Y779630D01*
X979075Y779477D01*
X978293Y779400D01*
X977507Y779400D01*
X976725Y779477D01*
X975954Y779630D01*
X975202Y779859D01*
X974475Y780159D01*
X973782Y780530D01*
X973129Y780967D01*
X972521Y781465D01*
X971965Y782021D01*
X971467Y782629D01*
X971030Y783282D01*
X970659Y783975D01*
X970359Y784702D01*
X970130Y785454D01*
X969977Y786225D01*
X969900Y787007D01*
X969900Y787793D01*
X969977Y788575D01*
X970130Y789346D01*
X970359Y790098D01*
X970659Y790825D01*
X971030Y791518D01*
X971467Y792171D01*
X971965Y792779D01*
X972521Y793335D01*
X973129Y793833D01*
X973782Y794270D01*
X974475Y794641D01*
X975202Y794941D01*
X975954Y795170D01*
X976725Y795323D01*
X977507Y795400D01*
X978293Y795400D01*
X979075Y795323D01*
X979846Y795170D01*
X980598Y794941D01*
X981325Y794641D01*
X982018Y794270D01*
X982671Y793833D01*
X983279Y793335D01*
X983835Y792779D01*
X984333Y792171D01*
X984770Y791518D01*
X985141Y790825D01*
X985441Y790098D01*
X985670Y789346D01*
X985823Y788575D01*
X985900Y787793D01*
X985900Y787007D01*
M02*
