M48
;GenerationSoftware,Autodesk,EAGLE,9.3.0*%
;CreationDate,2019-03-28T05:33:53Z*%
FMAT,2
ICI,OFF
METRIC,TZ,000.000
T6C0.350
T5C0.508
T4C0.914
T3C1.016
T2C1.200
T1C3.000
%
G90
M71
T1
X81280Y15240
X16510Y15240
X16205Y58725
X81280Y58420
T2
X25400Y25400
X20320Y25400
X22860Y25400
X20320Y44450
X22860Y44450
X25400Y44450
T3
X27363Y54668
X29903Y54668
X32443Y54668
X34983Y54668
X37523Y54668
X54610Y15240
X80010Y46990
X80010Y49530
X80010Y52070
X30480Y29210
X49530Y15240
X44277Y16157
X60986Y58463
X22720Y58367
X31750Y48260
X24823Y54668
X22283Y54668
X45720Y58420
X53340Y58420
X48260Y58420
X50800Y58420
X70409Y58141
X76911Y58141
X70409Y53619
X76911Y53619
X58699Y15799
X58699Y22301
X63221Y15799
X63221Y22301
X41910Y58420
X39370Y58420
X30480Y16510
X33020Y16510
X35560Y16510
X38100Y16510
X40640Y16510
X19050Y54610
X16510Y54610
X54610Y19050
X52070Y19050
X49530Y19050
X46990Y19050
T4
X33020Y35560
X33020Y38100
X73866Y47426
X73866Y49966
T5
X46990Y51021
X50800Y55982
X64770Y49530
X67458Y14757
X57113Y16547
X42520Y49530
X41986Y34452
X43180Y19126
X41121Y33665
X50800Y35821
X62230Y41910
X62230Y39370
X54610Y54254
X54610Y51021
X55619Y44450
X52070Y54254
X52070Y51021
X55245Y40411
X38186Y52070
X58420Y34290
X58420Y27940
X60960Y27940
X63500Y30480
X57150Y34290
X64770Y20320
X38100Y26670
X39214Y39441
X36830Y27940
X39009Y40723
X59175Y40242
X62631Y45779
X63500Y25400
X60960Y43180
X41529Y50267
X39878Y41656
X60960Y36830
X59690Y44450
X67310Y50800
X67310Y54610
X54391Y32320
X58420Y50800
X45720Y45720
X62230Y54610
X50800Y53340
X48260Y45720
X46990Y36830
X55880Y21590
X63500Y24130
X59690Y34290
X43441Y38100
X55559Y32360
X44654Y37926
X50800Y46990
X46457Y47107
X45720Y41910
X54971Y47727
X52070Y38384
X46300Y39370
X58674Y48514
X64592Y42875
T6
X27940Y49530
X30480Y45720
X27940Y50800
X31750Y45720
M30