M48
;GenerationSoftware,Autodesk,EAGLE,9.3.0*%
;CreationDate,2019-03-11T22:09:01Z*%
FMAT,2
ICI,OFF
METRIC,TZ,000.000
T6C0.350
T5C0.508
T4C0.914
T3C1.016
T2C1.200
T1C3.000
%
G90
M71
T1
X81280Y58420
X12700Y58420
X12700Y12700
X81280Y12700
T2
X25400Y44450
X22860Y44450
X20320Y44450
X25400Y25400
X22860Y25400
X20320Y25400
T3
X30480Y29210
X19050Y54610
X57150Y12700
X39246Y12691
X60986Y58463
X20180Y58367
X31750Y48260
X70409Y58141
X76911Y58141
X70409Y53619
X76911Y53619
X58699Y15799
X58699Y22301
X63221Y15799
X63221Y22301
X58420Y58420
X55880Y58420
X53340Y58420
X50800Y58420
X48260Y58420
X45720Y58420
X36830Y13970
X34290Y13970
X31750Y13970
X29210Y13970
X26670Y13970
X24130Y13970
X22860Y58420
X25400Y58420
X27940Y58420
X30480Y58420
X33020Y58420
X35560Y58420
X41910Y58420
X39370Y58420
X53340Y12700
X50800Y12700
X48260Y12700
X45720Y12700
X43180Y12700
X16510Y54610
T4
X73866Y49966
X33020Y35560
X33020Y38100
X73866Y47426
T5
X44654Y37926
X45720Y41910
X55559Y32071
X46457Y47107
X50800Y46990
X58420Y34290
X58420Y27940
X60960Y27940
X63500Y30480
X57150Y34290
X68580Y24130
X45436Y40640
X43441Y38100
X59690Y34290
X41656Y52832
X39878Y41656
X60960Y36830
X60960Y44450
X67310Y50800
X67310Y54610
X52070Y17780
X48260Y17780
X54391Y32320
X63500Y24130
X59690Y36830
X55880Y21590
X46990Y36830
X55619Y43180
X59690Y54610
X55880Y54254
X55880Y52070
X58420Y50800
X45720Y45720
X62230Y54610
X50800Y53340
X48260Y45720
X54971Y47727
X52070Y38384
X46300Y39370
X58674Y48514
X63754Y43434
X60960Y12700
T6
X62484Y40894
X66040Y46482
X38100Y40640
X45466Y51308
X42672Y48768
X43434Y39878
M30