G04 EAGLE Gerber RS-274X export*
G75*
%MOMM*%
%FSLAX34Y34*%
%LPD*%
%INTop Copper*%
%IPPOS*%
%AMOC8*
5,1,8,0,0,1.08239X$1,22.5*%
G01*
%ADD10R,0.900000X0.850000*%
%ADD11R,1.100000X1.000000*%
%ADD12R,0.300000X1.600000*%
%ADD13R,1.600000X0.300000*%
%ADD14C,1.422400*%
%ADD15C,1.524000*%
%ADD16C,1.879600*%
%ADD17R,1.000000X1.100000*%
%ADD18R,1.200000X2.000000*%
%ADD19R,1.700000X1.100000*%
%ADD20R,1.800000X1.800000*%
%ADD21C,1.800000*%
%ADD22R,5.334000X1.930400*%
%ADD23C,0.152400*%
%ADD24C,0.609600*%
%ADD25C,0.304800*%
%ADD26C,0.914400*%
%ADD27C,0.914400*%


D10*
X571500Y311700D03*
X571500Y323300D03*
X622300Y640800D03*
X622300Y629200D03*
D11*
X131200Y342900D03*
X148200Y342900D03*
X465700Y215900D03*
X448700Y215900D03*
X512200Y215900D03*
X529200Y215900D03*
X224400Y533400D03*
X207400Y533400D03*
X131200Y546100D03*
X148200Y546100D03*
X198257Y343081D03*
X181257Y343081D03*
D12*
X435300Y343100D03*
X440300Y343100D03*
X445300Y343100D03*
X450300Y343100D03*
X455300Y343100D03*
X460300Y343100D03*
X465300Y343100D03*
X470300Y343100D03*
X475300Y343100D03*
X480300Y343100D03*
X485300Y343100D03*
X490300Y343100D03*
X495300Y343100D03*
X500300Y343100D03*
X505300Y343100D03*
X510300Y343100D03*
X515300Y343100D03*
X520300Y343100D03*
X525300Y343100D03*
X530300Y343100D03*
X535300Y343100D03*
X540300Y343100D03*
X545300Y343100D03*
X550300Y343100D03*
X555300Y343100D03*
D13*
X571300Y359100D03*
X571300Y364100D03*
X571300Y369100D03*
X571300Y374100D03*
X571300Y379100D03*
X571300Y384100D03*
X571300Y389100D03*
X571300Y394100D03*
X571300Y399100D03*
X571300Y404100D03*
X571300Y409100D03*
X571300Y414100D03*
X571300Y419100D03*
X571300Y424100D03*
X571300Y429100D03*
X571300Y434100D03*
X571300Y439100D03*
X571300Y444100D03*
X571300Y449100D03*
X571300Y454100D03*
X571300Y459100D03*
X571300Y464100D03*
X571300Y469100D03*
X571300Y474100D03*
X571300Y479100D03*
D12*
X555300Y495100D03*
X550300Y495100D03*
X545300Y495100D03*
X540300Y495100D03*
X535300Y495100D03*
X530300Y495100D03*
X525300Y495100D03*
X520300Y495100D03*
X515300Y495100D03*
X510300Y495100D03*
X505300Y495100D03*
X500300Y495100D03*
X495300Y495100D03*
X490300Y495100D03*
X485300Y495100D03*
X480300Y495100D03*
X475300Y495100D03*
X470300Y495100D03*
X465300Y495100D03*
X460300Y495100D03*
X455300Y495100D03*
X450300Y495100D03*
X445300Y495100D03*
X440300Y495100D03*
X435300Y495100D03*
D13*
X419300Y479100D03*
X419300Y474100D03*
X419300Y469100D03*
X419300Y464100D03*
X419300Y459100D03*
X419300Y454100D03*
X419300Y449100D03*
X419300Y444100D03*
X419300Y439100D03*
X419300Y434100D03*
X419300Y429100D03*
X419300Y424100D03*
X419300Y419100D03*
X419300Y414100D03*
X419300Y409100D03*
X419300Y404100D03*
X419300Y399100D03*
X419300Y394100D03*
X419300Y389100D03*
X419300Y384100D03*
X419300Y379100D03*
X419300Y374100D03*
X419300Y369100D03*
X419300Y364100D03*
X419300Y359100D03*
D14*
X299212Y355600D02*
X284988Y355600D01*
X284988Y381000D02*
X299212Y381000D01*
X731549Y512358D02*
X745773Y512358D01*
X745773Y537758D02*
X731549Y537758D01*
D15*
X101600Y576580D02*
X101600Y591820D01*
X127000Y591820D02*
X127000Y576580D01*
D16*
X393700Y622300D03*
X419100Y622300D03*
D17*
X673100Y499500D03*
X673100Y516500D03*
X698500Y499500D03*
X698500Y516500D03*
X330200Y397900D03*
X330200Y414900D03*
X609600Y309000D03*
X609600Y326000D03*
D16*
X644906Y159512D03*
X644906Y94488D03*
X599694Y159512D03*
X599694Y94488D03*
X769112Y586994D03*
X704088Y586994D03*
X769112Y632206D03*
X704088Y632206D03*
D18*
X806600Y417900D03*
X786600Y417900D03*
X766600Y417900D03*
X746600Y417900D03*
X726600Y417900D03*
X706600Y417900D03*
X686600Y417900D03*
X666600Y417900D03*
X666600Y267900D03*
X686600Y267900D03*
X706600Y267900D03*
X726600Y267900D03*
X746600Y267900D03*
X766600Y267900D03*
X786600Y267900D03*
X806600Y267900D03*
D19*
X651600Y392900D03*
X651600Y372900D03*
X651600Y352900D03*
X651600Y332900D03*
X651600Y312900D03*
X651600Y292900D03*
D20*
X152400Y254000D03*
D21*
X177800Y254000D03*
X203200Y254000D03*
D20*
X152400Y469900D03*
D21*
X177800Y469900D03*
X203200Y469900D03*
D22*
X543560Y266700D03*
X447040Y266700D03*
D16*
X152400Y622300D03*
X584460Y622729D03*
D11*
X448132Y562986D03*
X465132Y562986D03*
X601100Y469900D03*
X618100Y469900D03*
D16*
X342900Y101600D03*
X800100Y520700D03*
X800100Y495300D03*
X800100Y469900D03*
X368300Y101346D03*
X342900Y622300D03*
X317500Y622300D03*
X292100Y622300D03*
X266700Y622300D03*
X241300Y622300D03*
X215900Y622300D03*
X190500Y622300D03*
X469900Y622300D03*
X495300Y622300D03*
X520700Y622300D03*
X546100Y622300D03*
D17*
X723900Y465700D03*
X723900Y448700D03*
X698500Y465700D03*
X698500Y448700D03*
X774700Y465700D03*
X774700Y448700D03*
D16*
X419100Y101600D03*
X444500Y101600D03*
X469900Y101600D03*
X520700Y101600D03*
D17*
X330200Y376800D03*
X330200Y359800D03*
D16*
X-25400Y254000D03*
X0Y254000D03*
X-25400Y304800D03*
X0Y304800D03*
X25400Y304800D03*
X495300Y101600D03*
X736600Y101600D03*
X711200Y101600D03*
D11*
X690000Y190500D03*
X707000Y190500D03*
X766200Y190500D03*
X783200Y190500D03*
X783200Y152400D03*
X766200Y152400D03*
X707000Y152400D03*
X690000Y152400D03*
D16*
X292100Y101600D03*
X266700Y101600D03*
X241300Y101600D03*
X215900Y101600D03*
X-25400Y546100D03*
X-25400Y520700D03*
X-25400Y368300D03*
X-25400Y393700D03*
X0Y368300D03*
X0Y393700D03*
X25400Y368300D03*
X25400Y393700D03*
X50800Y368300D03*
X50800Y393700D03*
X-25400Y469900D03*
X-25400Y444500D03*
X0Y469900D03*
X0Y444500D03*
D17*
X660400Y643500D03*
X660400Y626500D03*
D23*
X215900Y622300D02*
X215900Y596900D01*
X419244Y429044D02*
X419300Y429100D01*
X419244Y429044D02*
X383756Y429044D01*
X215900Y596900D01*
X190500Y596900D02*
X362966Y424434D01*
X190500Y596900D02*
X190500Y622300D01*
X418966Y424434D02*
X419300Y424100D01*
X418966Y424434D02*
X362966Y424434D01*
D24*
X203200Y312738D02*
X203200Y254000D01*
X203200Y312738D02*
X198257Y317681D01*
X198257Y343081D01*
X203200Y254000D02*
X292100Y254000D01*
X355600Y317500D01*
X393700Y355600D01*
D25*
X655828Y428752D02*
X665480Y419100D01*
X655828Y428752D02*
X645922Y428752D01*
X665480Y419100D02*
X666600Y417900D01*
D26*
X645922Y428752D03*
X586740Y485140D03*
D25*
X460300Y363636D02*
X460300Y343100D01*
X460300Y363636D02*
X460300Y381000D01*
X460300Y391000D01*
X463000Y393700D01*
D26*
X463000Y393700D03*
X520700Y383836D03*
D25*
X522600Y381936D02*
X522600Y368300D01*
X522600Y381936D02*
X520700Y383836D01*
X419300Y359100D02*
X415800Y355600D01*
X393700Y355600D01*
X419300Y359100D02*
X455764Y359100D01*
X460300Y363636D01*
X460300Y343100D02*
X460300Y330649D01*
X465300Y325649D01*
X478049Y325649D01*
X485300Y332900D02*
X485300Y343100D01*
X485300Y332900D02*
X478049Y325649D01*
X525300Y365600D02*
X533663Y357237D01*
X540300Y357237D01*
X540300Y343100D01*
X525300Y343100D02*
X525300Y365600D01*
X522600Y368300D01*
X552163Y369100D02*
X571300Y369100D01*
X552163Y369100D02*
X540300Y357237D01*
X551544Y479100D02*
X571300Y479100D01*
X551544Y479100D02*
X549709Y477266D01*
D26*
X549709Y477266D03*
D25*
X435300Y495100D02*
X435300Y441000D01*
X457200Y419100D01*
D26*
X457200Y419100D03*
X464566Y471068D03*
D25*
X506832Y471068D01*
X508000Y469900D01*
D26*
X508000Y469900D03*
D25*
X535300Y355600D02*
X535300Y343100D01*
X535300Y355600D02*
X533663Y357237D01*
X571300Y479100D02*
X577340Y485140D01*
X586740Y485140D01*
D26*
X446544Y379264D03*
D25*
X458564Y379264D01*
X460300Y381000D01*
X673100Y596900D02*
X673100Y613800D01*
D26*
X673100Y596900D03*
X647700Y546100D03*
D25*
X647700Y541900D01*
X673100Y516500D01*
X638370Y481770D01*
X651070Y469070D02*
X626500Y444500D01*
X596900Y444500D01*
D26*
X596900Y444500D03*
X609600Y368300D03*
D25*
X330200Y414900D02*
X330200Y427600D01*
X427990Y566166D02*
X438404Y576580D01*
X427990Y566166D02*
X427990Y528066D01*
X638370Y481770D02*
X651070Y469070D01*
D26*
X322580Y441960D03*
X427990Y528066D03*
D25*
X609092Y367411D02*
X609092Y326898D01*
X609600Y326000D01*
X609092Y367411D02*
X609600Y368300D01*
D26*
X254000Y355600D03*
X254000Y406400D03*
D24*
X262500Y414900D02*
X330200Y414900D01*
X262500Y414900D02*
X254000Y406400D01*
D25*
X322580Y435220D02*
X330200Y427600D01*
X322580Y435220D02*
X322580Y441960D01*
X543560Y576580D02*
X638370Y481770D01*
X543560Y576580D02*
X438404Y576580D01*
D24*
X254000Y355600D02*
X254000Y304800D01*
X203200Y254000D01*
X177800Y228600D01*
X114300Y228600D01*
X50800Y228600D01*
X25400Y254000D01*
X0Y254000D01*
X-25400Y254000D01*
X50800Y292100D02*
X114300Y228600D01*
X50800Y292100D02*
X50800Y368300D01*
X25400Y368300D01*
X0Y368300D01*
X-25400Y368300D01*
D26*
X381000Y190500D03*
D24*
X381000Y292100D01*
D26*
X660400Y190500D03*
D24*
X690000Y190500D01*
X381000Y292100D02*
X355600Y317500D01*
D26*
X660400Y127000D03*
D25*
X673100Y613800D02*
X660400Y626500D01*
D24*
X783200Y135500D02*
X774700Y127000D01*
X783200Y135500D02*
X783200Y152400D01*
X774700Y127000D02*
X660400Y127000D01*
X766200Y169400D02*
X766200Y190500D01*
X777288Y158312D02*
X783200Y152400D01*
X777288Y158312D02*
X777288Y159715D01*
X774015Y162988D01*
X772612Y162988D01*
X766200Y169400D01*
D23*
X545300Y333889D02*
X545300Y343100D01*
X545300Y333889D02*
X555593Y323596D01*
D26*
X555593Y323596D03*
D24*
X181257Y343081D02*
X177800Y339624D01*
X177800Y254000D01*
X177800Y381000D02*
X177800Y469900D01*
X177800Y381000D02*
X177800Y346538D01*
X181257Y343081D01*
X182000Y508000D02*
X207400Y533400D01*
X182000Y508000D02*
X182000Y474100D01*
X177800Y469900D01*
X148200Y546100D02*
X148200Y563000D01*
X127000Y584200D01*
D25*
X376800Y364100D02*
X419300Y364100D01*
X376800Y364100D02*
X355600Y342900D01*
X304800Y342900D01*
X292100Y355600D01*
D26*
X435428Y394970D03*
D25*
X435428Y364100D02*
X419300Y364100D01*
X435428Y364100D02*
X435428Y394970D01*
X769112Y571500D02*
X769112Y586994D01*
X769112Y571500D02*
X769112Y542810D01*
X738661Y512358D01*
X666600Y267900D02*
X666600Y257406D01*
X649097Y239903D01*
X590000Y323300D02*
X571500Y323300D01*
X596900Y330200D02*
X596900Y342900D01*
X596900Y330200D02*
X590000Y323300D01*
D26*
X596900Y342900D03*
X635000Y241300D03*
D25*
X636397Y239903D01*
X647700Y239903D01*
X649097Y239903D01*
D24*
X292100Y355600D02*
X266700Y381000D01*
X177800Y381000D01*
D27*
X181076Y342900D02*
X148200Y342900D01*
X181076Y342900D02*
X181257Y343081D01*
D25*
X596900Y342900D02*
X596900Y355600D01*
D26*
X558800Y215900D03*
D25*
X480300Y343100D02*
X480300Y357900D01*
X469900Y368300D01*
D26*
X469900Y368300D03*
D25*
X440300Y483121D02*
X440300Y495100D01*
X466221Y457200D02*
X482600Y457200D01*
D26*
X482600Y457200D03*
X495300Y533400D03*
D25*
X440300Y483121D02*
X461711Y461711D01*
X466221Y457200D01*
X622300Y584200D02*
X622300Y629200D01*
X622300Y584200D02*
X622300Y571500D01*
D26*
X622300Y571500D03*
D25*
X588400Y364100D02*
X571300Y364100D01*
X588400Y364100D02*
X596900Y355600D01*
D26*
X457200Y457200D03*
D25*
X461711Y461711D01*
X461711Y461711D01*
X590931Y629200D02*
X622300Y629200D01*
X590931Y629200D02*
X584460Y622729D01*
X465714Y562986D02*
X465132Y562986D01*
X465714Y562986D02*
X495300Y533400D01*
X584200Y503800D02*
X618100Y469900D01*
X584200Y503800D02*
X584200Y520700D01*
D26*
X584200Y520700D03*
D27*
X150997Y608197D02*
X152400Y622300D01*
X150997Y608197D02*
X127000Y584200D01*
D24*
X186300Y533400D02*
X207400Y533400D01*
X186300Y533400D02*
X173600Y546100D01*
X148200Y546100D01*
D25*
X622300Y584200D02*
X635000Y571500D01*
X769112Y571500D01*
D24*
X448700Y215900D02*
X448700Y148200D01*
X495300Y101600D01*
X529200Y135500D02*
X529200Y215900D01*
X529200Y135500D02*
X495300Y101600D01*
D26*
X512826Y520700D03*
D25*
X584200Y520700D01*
D24*
X558800Y215900D02*
X529200Y215900D01*
D25*
X647700Y239903D02*
X647700Y162306D01*
X644906Y159512D01*
X680094Y162306D02*
X690000Y152400D01*
X680094Y162306D02*
X647700Y162306D01*
D27*
X152400Y254000D02*
X152400Y295054D01*
X152400Y438600D02*
X152400Y469900D01*
X152400Y438600D02*
X130813Y417013D01*
X101600Y574040D02*
X101600Y584200D01*
X131200Y546100D02*
X131200Y478400D01*
X139700Y469900D02*
X152400Y469900D01*
X139700Y469900D02*
X131200Y478400D01*
X129540Y546100D02*
X101600Y574040D01*
X129540Y546100D02*
X131200Y546100D01*
X38100Y520700D02*
X-25400Y520700D01*
X38100Y520700D02*
X101600Y584200D01*
X130813Y316641D02*
X152400Y295054D01*
X130813Y343287D02*
X130813Y417013D01*
X130813Y343287D02*
X131200Y342900D01*
X131200Y317029D01*
X130813Y316641D01*
D24*
X224400Y495300D02*
X224400Y533400D01*
X224400Y495300D02*
X203200Y474100D01*
X203200Y469900D01*
X215900Y457200D01*
X215900Y419100D01*
D26*
X215900Y419100D03*
X108461Y444500D03*
D24*
X0Y444500D01*
X-25400Y444500D01*
D23*
X795900Y465700D02*
X800100Y469900D01*
X795900Y465700D02*
X774700Y465700D01*
D25*
X698500Y499500D02*
X673100Y499500D01*
X673100Y482600D01*
X604600Y414100D01*
X571300Y414100D01*
D23*
X419300Y449100D02*
X394732Y449100D01*
X311733Y616533D02*
X317500Y622300D01*
X311733Y616533D02*
X311733Y532098D01*
X394732Y449100D01*
X418900Y444500D02*
X419300Y444100D01*
X418900Y444500D02*
X393700Y444500D01*
X292100Y546100D01*
X292100Y622300D01*
X392660Y439100D02*
X419300Y439100D01*
X266700Y565060D02*
X266700Y622300D01*
X266700Y565060D02*
X392660Y439100D01*
X391400Y434100D02*
X419300Y434100D01*
X391400Y434100D02*
X241300Y584200D01*
X241300Y622300D01*
D25*
X530300Y343100D02*
X530300Y333300D01*
X540396Y323204D02*
X543909Y323204D01*
D26*
X543909Y323204D03*
D25*
X540396Y323204D02*
X530300Y333300D01*
X445300Y495100D02*
X445300Y560154D01*
X448132Y562986D01*
X571300Y474100D02*
X596900Y474100D01*
X601100Y469900D01*
X769112Y632206D02*
X753618Y647700D01*
X816506Y584812D02*
X816506Y431800D01*
X816506Y584812D02*
X769112Y632206D01*
X816506Y431800D02*
X806600Y421894D01*
X806600Y417900D01*
X660400Y643500D02*
X664600Y647700D01*
X753618Y647700D01*
X660400Y643500D02*
X625000Y643500D01*
X622300Y640800D01*
X419300Y389100D02*
X372200Y389100D01*
X353500Y370400D01*
X353500Y370840D01*
X353500Y370400D02*
X353500Y359800D01*
X353500Y370400D02*
X330200Y393700D01*
X330200Y397900D01*
D23*
X353060Y370840D02*
X353500Y370840D01*
X353060Y370840D02*
X353500Y370400D01*
D25*
X353500Y359800D02*
X330200Y359800D01*
X406400Y609600D02*
X419100Y622300D01*
X406400Y609600D02*
X406400Y533400D01*
X404274Y469100D02*
X419300Y469100D01*
X404274Y469100D02*
X399600Y473774D01*
X399600Y526600D01*
X406400Y533400D01*
X393700Y470316D02*
X393700Y622300D01*
X393700Y470316D02*
X399916Y464100D01*
X419300Y464100D01*
X500300Y343100D02*
X500300Y332441D01*
X504676Y328065D02*
X526835Y328065D01*
X543200Y311700D01*
X555900Y311700D02*
X571500Y311700D01*
X555900Y311700D02*
X543200Y311700D01*
X504676Y328065D02*
X500300Y332441D01*
X571500Y311700D02*
X606900Y311700D01*
X609600Y309000D01*
X609600Y301888D02*
X625094Y286394D01*
X609600Y301888D02*
X609600Y309000D01*
X625094Y286394D02*
X625094Y184912D01*
X620141Y179959D01*
X599694Y159512D01*
X574294Y155194D02*
X520700Y101600D01*
X574294Y293306D02*
X555900Y311700D01*
X574294Y293306D02*
X574294Y155194D01*
X512200Y235340D02*
X543560Y266700D01*
X512200Y235340D02*
X512200Y215900D01*
X495300Y317500D02*
X495300Y343100D01*
X495300Y317500D02*
X543560Y269240D01*
X543560Y266700D01*
X490300Y320153D02*
X490300Y343100D01*
X490300Y320153D02*
X447040Y276893D01*
X447040Y266700D01*
X447040Y234560D02*
X465700Y215900D01*
X447040Y234560D02*
X447040Y266700D01*
X730102Y529200D02*
X738661Y537758D01*
X730102Y529200D02*
X711200Y529200D01*
X698500Y516500D01*
X330200Y376800D02*
X296300Y376800D01*
X292100Y381000D01*
X766600Y360200D02*
X766600Y417900D01*
X766600Y360200D02*
X723900Y317500D01*
D26*
X723900Y317500D03*
X739902Y184150D03*
D25*
X739902Y178698D01*
X766200Y152400D01*
D26*
X591746Y402416D03*
D23*
X571498Y389298D02*
X571300Y389100D01*
X571498Y389298D02*
X580668Y389298D01*
X591746Y400376D01*
X591746Y402416D01*
D26*
X345387Y427552D03*
D25*
X401000Y399100D02*
X419300Y399100D01*
X385248Y414852D02*
X358087Y414852D01*
X345387Y427552D01*
X385248Y414852D02*
X401000Y399100D01*
X419300Y394100D02*
X361598Y394100D01*
X359369Y391871D01*
D26*
X359369Y391871D03*
X355600Y254000D03*
D25*
X266700Y165100D01*
X266700Y101600D01*
D23*
X395479Y454100D02*
X419300Y454100D01*
X395479Y454100D02*
X335890Y513690D01*
X335890Y615290D02*
X342900Y622300D01*
X335890Y615290D02*
X335890Y513690D01*
X722906Y495300D02*
X800100Y495300D01*
X722906Y495300D02*
X698500Y467478D01*
X698500Y465700D01*
X736600Y468235D02*
X748575Y482600D01*
X736600Y468235D02*
X726435Y468235D01*
X723900Y465700D01*
X748575Y482600D02*
X749300Y482600D01*
D26*
X749300Y482600D03*
D25*
X786600Y267900D02*
X786600Y253200D01*
X762000Y228600D01*
X660400Y228600D01*
D26*
X660400Y228600D03*
X571500Y342900D03*
D25*
X571300Y343100D02*
X555300Y343100D01*
X571300Y343100D02*
X571500Y342900D01*
D26*
X584200Y190500D03*
D25*
X584200Y139700D01*
X609600Y114300D01*
X698500Y114300D02*
X711200Y101600D01*
X698500Y114300D02*
X609600Y114300D01*
X796664Y277836D02*
X806600Y267900D01*
X796664Y277836D02*
X796664Y279583D01*
X641417Y303336D02*
X639953Y304800D01*
X635000Y304800D01*
X772911Y303336D02*
X796664Y279583D01*
X772911Y303336D02*
X641417Y303336D01*
D26*
X635000Y304800D03*
X609600Y279400D03*
D25*
X584200Y279400D01*
D26*
X584200Y279400D03*
X584200Y342900D03*
D25*
X584200Y346200D02*
X571300Y359100D01*
X584200Y346200D02*
X584200Y342900D01*
X806600Y267900D02*
X806600Y133500D01*
X774700Y101600D01*
X736600Y101600D01*
D23*
X419300Y459100D02*
X419126Y459274D01*
X397917Y459274D01*
X369164Y488028D01*
X369164Y558800D01*
D26*
X369164Y558800D03*
D23*
X552464Y404100D02*
X571300Y404100D01*
X552464Y404100D02*
X552450Y404114D01*
D26*
X552450Y404114D03*
X553902Y443738D03*
D23*
X570110Y410290D02*
X571300Y409100D01*
X570110Y410290D02*
X562377Y410290D01*
X553902Y418765D01*
X553902Y443738D01*
D26*
X533400Y596900D03*
D23*
X508000Y596900D01*
X495300Y609600D01*
X495300Y622300D01*
X571300Y374100D02*
X604264Y374100D01*
X606338Y376174D01*
X764030Y448700D02*
X774700Y448700D01*
X764030Y448700D02*
X757298Y441968D01*
X641732Y381702D02*
X636204Y376174D01*
X606338Y376174D01*
X641732Y381702D02*
X731072Y381702D01*
X757298Y407928D01*
X757298Y441968D01*
D26*
X622300Y393700D03*
D23*
X571498Y379298D02*
X571300Y379100D01*
X601378Y393700D02*
X622300Y393700D01*
X586976Y379298D02*
X571498Y379298D01*
X586976Y379298D02*
X601378Y393700D01*
D26*
X622300Y419100D03*
D23*
X651900Y448700D02*
X698500Y448700D01*
X651900Y448700D02*
X622300Y419100D01*
X693968Y404598D02*
X695902Y406532D01*
X586030Y384100D02*
X571300Y384100D01*
X586030Y384100D02*
X606528Y404598D01*
X711559Y439171D02*
X723900Y448700D01*
X711559Y439171D02*
X698859Y439171D01*
X695902Y436214D01*
X693968Y404598D02*
X606528Y404598D01*
X695902Y406532D02*
X695902Y436214D01*
D26*
X509016Y362022D03*
D23*
X419498Y413902D02*
X419300Y414100D01*
X419498Y413902D02*
X428668Y413902D01*
X440996Y401574D01*
X466262Y401574D01*
X505814Y362022D02*
X509016Y362022D01*
X505814Y362022D02*
X466262Y401574D01*
D26*
X389116Y335629D03*
D23*
X389116Y131584D01*
X419100Y101600D01*
D26*
X469900Y535612D03*
D23*
X450498Y495298D02*
X450300Y495100D01*
X450498Y495298D02*
X450498Y529868D01*
X456242Y535612D01*
X469900Y535612D01*
D26*
X495300Y585216D03*
X635000Y508000D03*
D23*
X499110Y581406D02*
X495300Y585216D01*
X499110Y581406D02*
X555719Y581406D01*
X629125Y508000D02*
X635000Y508000D01*
X629125Y508000D02*
X555719Y581406D01*
D26*
X674584Y84074D03*
D23*
X672298Y81788D01*
X584200Y81788D01*
X581733Y81788D01*
X489712Y81788D01*
X469900Y101600D01*
X419300Y479100D02*
X419300Y504500D01*
X415800Y508000D01*
X412496Y508000D01*
D26*
X412496Y508000D03*
X407164Y344519D03*
D23*
X404368Y341724D01*
X404368Y214122D01*
X410718Y207772D01*
X410718Y135382D01*
X444500Y101600D01*
D25*
X726600Y264000D02*
X726600Y267900D01*
X726600Y264000D02*
X749300Y241300D01*
D26*
X749300Y241300D03*
X774700Y215900D03*
D25*
X783200Y207400D01*
X783200Y190500D01*
X706600Y245900D02*
X706600Y267900D01*
X706600Y245900D02*
X711200Y241300D01*
D26*
X711200Y241300D03*
X711200Y215900D03*
D25*
X711200Y194700D01*
X707000Y190500D01*
X686600Y242100D02*
X686600Y267900D01*
X686600Y242100D02*
X685800Y241300D01*
D26*
X685800Y241300D03*
X727456Y171196D03*
D25*
X727456Y158496D01*
X721360Y152400D01*
X707000Y152400D01*
M02*
