G04 EAGLE Gerber RS-274X export*
G75*
%MOMM*%
%FSLAX34Y34*%
%LPD*%
%INBottom Copper*%
%IPPOS*%
%AMOC8*
5,1,8,0,0,1.08239X$1,22.5*%
G01*
%ADD10R,0.900000X0.850000*%
%ADD11R,0.850000X0.900000*%
%ADD12R,1.000000X1.100000*%
%ADD13C,1.422400*%
%ADD14C,1.524000*%
%ADD15C,1.879600*%
%ADD16R,1.800000X1.800000*%
%ADD17C,1.800000*%
%ADD18C,0.304800*%
%ADD19C,0.914400*%
%ADD20C,0.609600*%
%ADD21C,0.152400*%
%ADD22C,0.914400*%


D10*
X482600Y374100D03*
X482600Y362500D03*
X508000Y386800D03*
X508000Y375200D03*
X469900Y413300D03*
X469900Y424900D03*
X495300Y413300D03*
X495300Y424900D03*
X546100Y386800D03*
X546100Y375200D03*
D11*
X527600Y469900D03*
X539200Y469900D03*
X539200Y444500D03*
X527600Y444500D03*
X527600Y419100D03*
X539200Y419100D03*
D12*
X444500Y465700D03*
X444500Y448700D03*
D11*
X450300Y368300D03*
X438700Y368300D03*
D13*
X299212Y355600D02*
X284988Y355600D01*
X284988Y381000D02*
X299212Y381000D01*
X731549Y512358D02*
X745773Y512358D01*
X745773Y537758D02*
X731549Y537758D01*
D14*
X101600Y576580D02*
X101600Y591820D01*
X127000Y591820D02*
X127000Y576580D01*
D15*
X393700Y622300D03*
X419100Y622300D03*
X644906Y159512D03*
X644906Y94488D03*
X599694Y159512D03*
X599694Y94488D03*
X769112Y586994D03*
X704088Y586994D03*
X769112Y632206D03*
X704088Y632206D03*
D16*
X152400Y254000D03*
D17*
X177800Y254000D03*
X203200Y254000D03*
D16*
X152400Y469900D03*
D17*
X177800Y469900D03*
X203200Y469900D03*
D15*
X152400Y622300D03*
X584460Y622729D03*
X342900Y101600D03*
X800100Y520700D03*
X800100Y495300D03*
X800100Y469900D03*
X368300Y101346D03*
X342900Y622300D03*
X317500Y622300D03*
X292100Y622300D03*
X266700Y622300D03*
X241300Y622300D03*
X215900Y622300D03*
X190500Y622300D03*
X469900Y622300D03*
X495300Y622300D03*
X520700Y622300D03*
X546100Y622300D03*
X419100Y101600D03*
X444500Y101600D03*
X469900Y101600D03*
X520700Y101600D03*
X-25400Y254000D03*
X0Y254000D03*
X-25400Y304800D03*
X0Y304800D03*
X25400Y304800D03*
X495300Y101600D03*
X736600Y101600D03*
X711200Y101600D03*
X292100Y101600D03*
X266700Y101600D03*
X241300Y101600D03*
X215900Y101600D03*
X-25400Y546100D03*
X-25400Y520700D03*
X-25400Y368300D03*
X-25400Y393700D03*
X0Y368300D03*
X0Y393700D03*
X25400Y368300D03*
X25400Y393700D03*
X50800Y368300D03*
X50800Y393700D03*
X-25400Y469900D03*
X-25400Y444500D03*
X0Y469900D03*
X0Y444500D03*
D18*
X645922Y459994D02*
X645922Y428752D01*
X645922Y459994D02*
X620776Y485140D01*
X586740Y485140D01*
D19*
X645922Y428752D03*
X586740Y485140D03*
D18*
X508000Y400600D02*
X508000Y386800D01*
X508000Y400600D02*
X495300Y413300D01*
X469900Y413300D01*
X463000Y406400D02*
X463000Y393700D01*
X463000Y406400D02*
X469900Y413300D01*
D19*
X463000Y393700D03*
D18*
X539200Y444500D02*
X539200Y469900D01*
X539200Y419100D02*
X539200Y393700D01*
X546100Y386800D01*
X523664Y386800D01*
X520700Y383836D01*
D19*
X520700Y383836D03*
D18*
X517736Y386800D02*
X508000Y386800D01*
X517736Y386800D02*
X520700Y383836D01*
X482600Y374100D02*
X463000Y393700D01*
X539200Y419100D02*
X539200Y444500D01*
D19*
X549709Y477266D03*
D18*
X542344Y469900D01*
X542097Y469900D02*
X539200Y469900D01*
D19*
X457200Y419100D03*
D18*
X463000Y413300D01*
X469900Y413300D01*
D19*
X464566Y471068D03*
D18*
X453487Y465700D02*
X444500Y465700D01*
X453487Y465700D02*
X453623Y465836D01*
X459334Y465836D01*
X464566Y471068D01*
D19*
X508000Y469900D03*
D18*
X521667Y478464D02*
X533533Y478464D01*
X513103Y469900D02*
X508000Y469900D01*
X542097Y469900D02*
X542344Y469900D01*
X521667Y478464D02*
X513103Y469900D01*
X533533Y478464D02*
X542097Y469900D01*
X450300Y375508D02*
X450300Y368300D01*
X450300Y375508D02*
X446544Y379264D01*
D19*
X446544Y379264D03*
X673100Y596900D03*
D18*
X673100Y558800D01*
X660400Y546100D01*
X647700Y546100D01*
D19*
X647700Y546100D03*
X596900Y444500D03*
X609600Y368300D03*
D18*
X600710Y440690D02*
X596900Y444500D01*
X600710Y440690D02*
X600710Y377190D01*
X427990Y528066D02*
X408686Y528066D01*
X322580Y441960D01*
D19*
X322580Y441960D03*
X427990Y528066D03*
D18*
X600710Y377190D02*
X609600Y368300D01*
D19*
X254000Y355600D03*
D20*
X254000Y406400D01*
D19*
X254000Y406400D03*
X381000Y190500D03*
D20*
X393700Y177800D02*
X647700Y177800D01*
X393700Y177800D02*
X381000Y190500D01*
X647700Y177800D02*
X660400Y190500D01*
D19*
X660400Y190500D03*
D20*
X660400Y127000D01*
D19*
X660400Y127000D03*
X555593Y323596D03*
D21*
X547171Y315330D02*
X540648Y315330D01*
X555437Y323596D02*
X555593Y323596D01*
X555437Y323596D02*
X547171Y315330D01*
X540648Y315330D02*
X538478Y317500D01*
X419100Y317500D01*
X378460Y276860D01*
X378460Y241046D01*
X368300Y228346D01*
X368300Y101346D01*
D18*
X495300Y362500D02*
X508000Y375200D01*
X495300Y362500D02*
X482600Y362500D01*
X508000Y375200D02*
X546100Y375200D01*
X527600Y444500D02*
X527600Y469900D01*
X527600Y444500D02*
X527600Y419100D01*
X521800Y424900D01*
X495300Y424900D01*
X469900Y424900D01*
X444500Y387900D02*
X442498Y387900D01*
X435428Y394970D01*
D19*
X435428Y394970D03*
X596900Y342900D03*
D18*
X596900Y279400D01*
X609600Y266700D01*
D19*
X635000Y241300D03*
D18*
X609600Y266700D01*
D19*
X558800Y215900D03*
D18*
X609600Y266700D01*
D19*
X469900Y368300D03*
X482600Y457200D03*
D18*
X495300Y469900D01*
X495300Y533400D01*
D19*
X495300Y533400D03*
X622300Y571500D03*
D18*
X622300Y558800D01*
X584200Y539750D01*
X527600Y469900D02*
X514900Y457200D01*
X482600Y457200D01*
X596900Y355600D02*
X596900Y342900D01*
X596900Y355600D02*
X577300Y375200D01*
X546100Y375200D01*
X448700Y448700D02*
X444500Y448700D01*
X448700Y448700D02*
X457200Y457200D01*
D19*
X457200Y457200D03*
D18*
X450300Y387900D02*
X469900Y368300D01*
X450300Y387900D02*
X444500Y387900D01*
X435428Y394970D02*
X435428Y371572D01*
X438700Y368300D01*
X475700Y362500D02*
X482600Y362500D01*
X475700Y362500D02*
X469900Y368300D01*
X444500Y387900D02*
X444500Y448700D01*
D19*
X584200Y520700D03*
D18*
X584200Y539750D01*
X500126Y533400D02*
X495300Y533400D01*
X500126Y533400D02*
X512826Y520700D01*
D19*
X512826Y520700D03*
D22*
X127000Y584200D02*
X116332Y573532D01*
X116332Y570478D01*
X91954Y546100D01*
X-25400Y546100D01*
X58677Y512823D02*
X91954Y546100D01*
X58677Y512823D02*
X15754Y469900D01*
X0Y469900D01*
X-25400Y469900D01*
D20*
X177800Y254000D02*
X177800Y139700D01*
X215900Y101600D01*
D22*
X58677Y431800D02*
X58677Y512823D01*
X58677Y431800D02*
X58677Y401577D01*
X50800Y393700D01*
X25400Y393700D01*
X0Y393700D01*
X-25400Y393700D01*
X58677Y431800D02*
X86489Y403989D01*
X25400Y304800D02*
X0Y304800D01*
X-25400Y304800D01*
X86489Y365889D02*
X86489Y403989D01*
X86489Y365889D02*
X25400Y304800D01*
D19*
X215900Y419100D03*
D20*
X241300Y393700D01*
X241300Y101600D01*
X177800Y444500D02*
X203200Y469900D01*
X177800Y444500D02*
X108461Y444500D01*
D19*
X108461Y444500D03*
X543909Y323204D03*
D18*
X539104Y328009D01*
X404209Y328009D01*
X372323Y296123D01*
X372323Y249977D02*
X342900Y220554D01*
X342900Y101600D01*
X372323Y249977D02*
X372323Y296123D01*
D19*
X723900Y317500D03*
X739902Y184150D03*
D18*
X723900Y211103D02*
X723900Y317500D01*
X723900Y211103D02*
X729488Y205515D01*
X729488Y194564D02*
X739902Y184150D01*
X729488Y194564D02*
X729488Y205515D01*
D19*
X591746Y402416D03*
D21*
X588952Y405210D02*
X588952Y471792D01*
X588952Y405210D02*
X591746Y402416D01*
X588952Y471792D02*
X566166Y494578D01*
X566166Y596900D01*
X566166Y602234D01*
X546100Y622300D01*
D19*
X345387Y427552D03*
D18*
X345387Y269187D01*
X342900Y266700D01*
X342900Y228456D01*
X337312Y222868D01*
X337312Y146812D02*
X292100Y101600D01*
X337312Y146812D02*
X337312Y222868D01*
D19*
X359369Y391871D03*
D18*
X359369Y257769D01*
X355600Y254000D01*
D19*
X355600Y254000D03*
X749300Y482600D03*
D21*
X762000Y482600D01*
X800100Y520700D01*
D19*
X660400Y228600D03*
X571500Y342900D03*
D18*
X622300Y228600D02*
X660400Y228600D01*
X622300Y228600D02*
X609600Y228600D01*
X571500Y190500D01*
X558800Y190500D01*
X546100Y203200D01*
X546100Y215413D01*
X571500Y240813D01*
X571500Y342900D01*
X622300Y228600D02*
X584200Y190500D01*
D19*
X584200Y190500D03*
X635000Y304800D03*
D18*
X609600Y279400D01*
D19*
X609600Y279400D03*
X584200Y279400D03*
D18*
X584200Y342900D01*
D19*
X584200Y342900D03*
X369164Y558800D03*
D21*
X457200Y622300D02*
X469900Y622300D01*
X457200Y622300D02*
X406400Y571500D01*
X381864Y571500D01*
X369164Y558800D01*
D19*
X552450Y404114D03*
D21*
X557583Y474004D02*
X557583Y480527D01*
X546862Y463283D02*
X546862Y409702D01*
X552450Y404114D01*
X557583Y480527D02*
X520700Y517410D01*
X557583Y474004D02*
X546862Y463283D01*
X520700Y517410D02*
X520700Y622300D01*
D19*
X553902Y443738D03*
D21*
X553902Y466012D01*
X560631Y472742D01*
X560631Y521081D01*
X546100Y535612D01*
X546100Y584200D01*
X533400Y596900D01*
D19*
X533400Y596900D03*
X622300Y393700D03*
D21*
X622300Y419100D01*
D19*
X622300Y419100D03*
X509016Y362022D03*
D21*
X423152Y335629D02*
X389116Y335629D01*
D19*
X389116Y335629D03*
D21*
X489894Y342900D02*
X509016Y362022D01*
X430422Y342900D02*
X423152Y335629D01*
X430422Y342900D02*
X489894Y342900D01*
D19*
X469900Y535612D03*
D21*
X495300Y561012D01*
X495300Y585216D01*
D19*
X495300Y585216D03*
X635000Y508000D03*
X674584Y84074D03*
D21*
X647700Y495300D02*
X635000Y508000D01*
X647700Y495300D02*
X647700Y477741D01*
X672338Y86320D02*
X674584Y84074D01*
X672338Y453103D02*
X647700Y477741D01*
X672338Y453103D02*
X672338Y86320D01*
D19*
X412496Y508000D03*
D21*
X412496Y349852D01*
X407164Y344519D01*
D19*
X407164Y344519D03*
X749300Y241300D03*
D18*
X774700Y215900D01*
D19*
X774700Y215900D03*
X711200Y241300D03*
D18*
X711200Y215900D01*
D19*
X711200Y215900D03*
X685800Y241300D03*
X727456Y171196D03*
D18*
X698500Y228600D02*
X685800Y241300D01*
X698500Y228600D02*
X698500Y190500D01*
X717804Y171196D01*
X727456Y171196D01*
M02*
