G04 EAGLE Gerber RS-274X export*
G75*
%MOMM*%
%FSLAX34Y34*%
%LPD*%
%IN*%
%IPPOS*%
%AMOC8*
5,1,8,0,0,1.08239X$1,22.5*%
G01*
%ADD10C,0.254000*%


D10*
X-88900Y63500D02*
X834900Y63500D01*
X834900Y673000D01*
X-88900Y673000D01*
X-88900Y63500D01*
X827800Y88364D02*
X827724Y87296D01*
X827571Y86235D01*
X827343Y85188D01*
X827041Y84160D01*
X826667Y83156D01*
X826222Y82181D01*
X825708Y81241D01*
X825129Y80340D01*
X824487Y79482D01*
X823785Y78672D01*
X823028Y77915D01*
X822218Y77213D01*
X821360Y76571D01*
X820459Y75992D01*
X819519Y75478D01*
X818544Y75033D01*
X817540Y74659D01*
X816512Y74357D01*
X815465Y74129D01*
X814404Y73976D01*
X813336Y73900D01*
X812264Y73900D01*
X811196Y73976D01*
X810135Y74129D01*
X809088Y74357D01*
X808060Y74659D01*
X807056Y75033D01*
X806081Y75478D01*
X805141Y75992D01*
X804240Y76571D01*
X803382Y77213D01*
X802572Y77915D01*
X801815Y78672D01*
X801113Y79482D01*
X800471Y80340D01*
X799892Y81241D01*
X799378Y82181D01*
X798933Y83156D01*
X798559Y84160D01*
X798257Y85188D01*
X798029Y86235D01*
X797876Y87296D01*
X797800Y88364D01*
X797800Y89436D01*
X797876Y90504D01*
X798029Y91565D01*
X798257Y92612D01*
X798559Y93640D01*
X798933Y94644D01*
X799378Y95619D01*
X799892Y96559D01*
X800471Y97460D01*
X801113Y98318D01*
X801815Y99128D01*
X802572Y99885D01*
X803382Y100587D01*
X804240Y101229D01*
X805141Y101808D01*
X806081Y102322D01*
X807056Y102767D01*
X808060Y103141D01*
X809088Y103443D01*
X810135Y103671D01*
X811196Y103824D01*
X812264Y103900D01*
X813336Y103900D01*
X814404Y103824D01*
X815465Y103671D01*
X816512Y103443D01*
X817540Y103141D01*
X818544Y102767D01*
X819519Y102322D01*
X820459Y101808D01*
X821360Y101229D01*
X822218Y100587D01*
X823028Y99885D01*
X823785Y99128D01*
X824487Y98318D01*
X825129Y97460D01*
X825708Y96559D01*
X826222Y95619D01*
X826667Y94644D01*
X827041Y93640D01*
X827343Y92612D01*
X827571Y91565D01*
X827724Y90504D01*
X827800Y89436D01*
X827800Y88364D01*
X827800Y647164D02*
X827724Y646096D01*
X827571Y645035D01*
X827343Y643988D01*
X827041Y642960D01*
X826667Y641956D01*
X826222Y640981D01*
X825708Y640041D01*
X825129Y639140D01*
X824487Y638282D01*
X823785Y637472D01*
X823028Y636715D01*
X822218Y636013D01*
X821360Y635371D01*
X820459Y634792D01*
X819519Y634278D01*
X818544Y633833D01*
X817540Y633459D01*
X816512Y633157D01*
X815465Y632929D01*
X814404Y632776D01*
X813336Y632700D01*
X812264Y632700D01*
X811196Y632776D01*
X810135Y632929D01*
X809088Y633157D01*
X808060Y633459D01*
X807056Y633833D01*
X806081Y634278D01*
X805141Y634792D01*
X804240Y635371D01*
X803382Y636013D01*
X802572Y636715D01*
X801815Y637472D01*
X801113Y638282D01*
X800471Y639140D01*
X799892Y640041D01*
X799378Y640981D01*
X798933Y641956D01*
X798559Y642960D01*
X798257Y643988D01*
X798029Y645035D01*
X797876Y646096D01*
X797800Y647164D01*
X797800Y648236D01*
X797876Y649304D01*
X798029Y650365D01*
X798257Y651412D01*
X798559Y652440D01*
X798933Y653444D01*
X799378Y654419D01*
X799892Y655359D01*
X800471Y656260D01*
X801113Y657118D01*
X801815Y657928D01*
X802572Y658685D01*
X803382Y659387D01*
X804240Y660029D01*
X805141Y660608D01*
X806081Y661122D01*
X807056Y661567D01*
X808060Y661941D01*
X809088Y662243D01*
X810135Y662471D01*
X811196Y662624D01*
X812264Y662700D01*
X813336Y662700D01*
X814404Y662624D01*
X815465Y662471D01*
X816512Y662243D01*
X817540Y661941D01*
X818544Y661567D01*
X819519Y661122D01*
X820459Y660608D01*
X821360Y660029D01*
X822218Y659387D01*
X823028Y658685D01*
X823785Y657928D01*
X824487Y657118D01*
X825129Y656260D01*
X825708Y655359D01*
X826222Y654419D01*
X826667Y653444D01*
X827041Y652440D01*
X827343Y651412D01*
X827571Y650365D01*
X827724Y649304D01*
X827800Y648236D01*
X827800Y647164D01*
X-48500Y647164D02*
X-48576Y646096D01*
X-48729Y645035D01*
X-48957Y643988D01*
X-49259Y642960D01*
X-49633Y641956D01*
X-50078Y640981D01*
X-50592Y640041D01*
X-51171Y639140D01*
X-51813Y638282D01*
X-52515Y637472D01*
X-53272Y636715D01*
X-54082Y636013D01*
X-54940Y635371D01*
X-55841Y634792D01*
X-56781Y634278D01*
X-57756Y633833D01*
X-58760Y633459D01*
X-59788Y633157D01*
X-60835Y632929D01*
X-61896Y632776D01*
X-62964Y632700D01*
X-64036Y632700D01*
X-65104Y632776D01*
X-66165Y632929D01*
X-67212Y633157D01*
X-68240Y633459D01*
X-69244Y633833D01*
X-70219Y634278D01*
X-71159Y634792D01*
X-72060Y635371D01*
X-72918Y636013D01*
X-73728Y636715D01*
X-74485Y637472D01*
X-75187Y638282D01*
X-75829Y639140D01*
X-76408Y640041D01*
X-76922Y640981D01*
X-77367Y641956D01*
X-77741Y642960D01*
X-78043Y643988D01*
X-78271Y645035D01*
X-78424Y646096D01*
X-78500Y647164D01*
X-78500Y648236D01*
X-78424Y649304D01*
X-78271Y650365D01*
X-78043Y651412D01*
X-77741Y652440D01*
X-77367Y653444D01*
X-76922Y654419D01*
X-76408Y655359D01*
X-75829Y656260D01*
X-75187Y657118D01*
X-74485Y657928D01*
X-73728Y658685D01*
X-72918Y659387D01*
X-72060Y660029D01*
X-71159Y660608D01*
X-70219Y661122D01*
X-69244Y661567D01*
X-68240Y661941D01*
X-67212Y662243D01*
X-66165Y662471D01*
X-65104Y662624D01*
X-64036Y662700D01*
X-62964Y662700D01*
X-61896Y662624D01*
X-60835Y662471D01*
X-59788Y662243D01*
X-58760Y661941D01*
X-57756Y661567D01*
X-56781Y661122D01*
X-55841Y660608D01*
X-54940Y660029D01*
X-54082Y659387D01*
X-53272Y658685D01*
X-52515Y657928D01*
X-51813Y657118D01*
X-51171Y656260D01*
X-50592Y655359D01*
X-50078Y654419D01*
X-49633Y653444D01*
X-49259Y652440D01*
X-48957Y651412D01*
X-48729Y650365D01*
X-48576Y649304D01*
X-48500Y648236D01*
X-48500Y647164D01*
X-48500Y88364D02*
X-48576Y87296D01*
X-48729Y86235D01*
X-48957Y85188D01*
X-49259Y84160D01*
X-49633Y83156D01*
X-50078Y82181D01*
X-50592Y81241D01*
X-51171Y80340D01*
X-51813Y79482D01*
X-52515Y78672D01*
X-53272Y77915D01*
X-54082Y77213D01*
X-54940Y76571D01*
X-55841Y75992D01*
X-56781Y75478D01*
X-57756Y75033D01*
X-58760Y74659D01*
X-59788Y74357D01*
X-60835Y74129D01*
X-61896Y73976D01*
X-62964Y73900D01*
X-64036Y73900D01*
X-65104Y73976D01*
X-66165Y74129D01*
X-67212Y74357D01*
X-68240Y74659D01*
X-69244Y75033D01*
X-70219Y75478D01*
X-71159Y75992D01*
X-72060Y76571D01*
X-72918Y77213D01*
X-73728Y77915D01*
X-74485Y78672D01*
X-75187Y79482D01*
X-75829Y80340D01*
X-76408Y81241D01*
X-76922Y82181D01*
X-77367Y83156D01*
X-77741Y84160D01*
X-78043Y85188D01*
X-78271Y86235D01*
X-78424Y87296D01*
X-78500Y88364D01*
X-78500Y89436D01*
X-78424Y90504D01*
X-78271Y91565D01*
X-78043Y92612D01*
X-77741Y93640D01*
X-77367Y94644D01*
X-76922Y95619D01*
X-76408Y96559D01*
X-75829Y97460D01*
X-75187Y98318D01*
X-74485Y99128D01*
X-73728Y99885D01*
X-72918Y100587D01*
X-72060Y101229D01*
X-71159Y101808D01*
X-70219Y102322D01*
X-69244Y102767D01*
X-68240Y103141D01*
X-67212Y103443D01*
X-66165Y103671D01*
X-65104Y103824D01*
X-64036Y103900D01*
X-62964Y103900D01*
X-61896Y103824D01*
X-60835Y103671D01*
X-59788Y103443D01*
X-58760Y103141D01*
X-57756Y102767D01*
X-56781Y102322D01*
X-55841Y101808D01*
X-54940Y101229D01*
X-54082Y100587D01*
X-53272Y99885D01*
X-52515Y99128D01*
X-51813Y98318D01*
X-51171Y97460D01*
X-50592Y96559D01*
X-50078Y95619D01*
X-49633Y94644D01*
X-49259Y93640D01*
X-48957Y92612D01*
X-48729Y91565D01*
X-48576Y90504D01*
X-48500Y89436D01*
X-48500Y88364D01*
M02*
