G04 EAGLE Gerber RS-274X export*
G75*
%MOMM*%
%FSLAX34Y34*%
%LPD*%
%INSilkscreen Bottom*%
%IPPOS*%
%AMOC8*
5,1,8,0,0,1.08239X$1,22.5*%
G01*
%ADD10C,0.127000*%
%ADD11C,0.203200*%


D10*
X486839Y380619D02*
X487912Y380619D01*
X487977Y380621D01*
X488041Y380627D01*
X488105Y380637D01*
X488169Y380650D01*
X488231Y380668D01*
X488292Y380689D01*
X488352Y380713D01*
X488410Y380742D01*
X488467Y380774D01*
X488521Y380809D01*
X488573Y380847D01*
X488623Y380889D01*
X488670Y380933D01*
X488714Y380980D01*
X488756Y381030D01*
X488794Y381082D01*
X488829Y381136D01*
X488861Y381193D01*
X488890Y381251D01*
X488914Y381311D01*
X488935Y381372D01*
X488953Y381434D01*
X488966Y381498D01*
X488976Y381562D01*
X488982Y381626D01*
X488984Y381691D01*
X488984Y384373D01*
X488982Y384438D01*
X488976Y384502D01*
X488966Y384566D01*
X488953Y384630D01*
X488935Y384692D01*
X488914Y384753D01*
X488890Y384813D01*
X488861Y384871D01*
X488829Y384928D01*
X488794Y384982D01*
X488756Y385034D01*
X488714Y385084D01*
X488670Y385131D01*
X488623Y385175D01*
X488573Y385217D01*
X488521Y385255D01*
X488467Y385290D01*
X488410Y385322D01*
X488352Y385351D01*
X488292Y385375D01*
X488231Y385396D01*
X488169Y385414D01*
X488105Y385427D01*
X488041Y385437D01*
X487977Y385443D01*
X487912Y385445D01*
X486839Y385445D01*
X484383Y384373D02*
X483043Y385445D01*
X483043Y380619D01*
X484383Y380619D02*
X481702Y380619D01*
X478897Y383032D02*
X478895Y383152D01*
X478890Y383272D01*
X478881Y383392D01*
X478868Y383512D01*
X478852Y383631D01*
X478832Y383750D01*
X478808Y383868D01*
X478781Y383985D01*
X478751Y384101D01*
X478717Y384216D01*
X478679Y384331D01*
X478638Y384444D01*
X478594Y384555D01*
X478546Y384666D01*
X478495Y384775D01*
X478474Y384832D01*
X478448Y384888D01*
X478420Y384943D01*
X478388Y384995D01*
X478352Y385046D01*
X478314Y385094D01*
X478273Y385140D01*
X478229Y385183D01*
X478183Y385223D01*
X478134Y385260D01*
X478082Y385294D01*
X478029Y385325D01*
X477974Y385353D01*
X477918Y385377D01*
X477860Y385398D01*
X477801Y385415D01*
X477741Y385428D01*
X477680Y385437D01*
X477618Y385443D01*
X477557Y385445D01*
X477496Y385443D01*
X477434Y385437D01*
X477373Y385428D01*
X477313Y385415D01*
X477254Y385398D01*
X477196Y385377D01*
X477140Y385353D01*
X477085Y385325D01*
X477032Y385294D01*
X476980Y385260D01*
X476932Y385223D01*
X476885Y385183D01*
X476841Y385140D01*
X476800Y385094D01*
X476762Y385046D01*
X476726Y384995D01*
X476694Y384943D01*
X476666Y384888D01*
X476640Y384832D01*
X476619Y384775D01*
X476618Y384775D02*
X476567Y384666D01*
X476519Y384555D01*
X476475Y384444D01*
X476434Y384331D01*
X476396Y384216D01*
X476362Y384101D01*
X476332Y383985D01*
X476305Y383868D01*
X476281Y383750D01*
X476261Y383631D01*
X476245Y383512D01*
X476232Y383392D01*
X476223Y383272D01*
X476218Y383152D01*
X476216Y383032D01*
X478897Y383032D02*
X478895Y382912D01*
X478890Y382792D01*
X478881Y382672D01*
X478868Y382552D01*
X478852Y382433D01*
X478832Y382314D01*
X478808Y382196D01*
X478781Y382079D01*
X478751Y381963D01*
X478717Y381848D01*
X478679Y381733D01*
X478638Y381620D01*
X478594Y381509D01*
X478546Y381398D01*
X478495Y381289D01*
X478474Y381232D01*
X478448Y381176D01*
X478420Y381121D01*
X478388Y381069D01*
X478352Y381018D01*
X478314Y380970D01*
X478273Y380924D01*
X478229Y380881D01*
X478183Y380841D01*
X478134Y380804D01*
X478082Y380770D01*
X478029Y380739D01*
X477974Y380711D01*
X477918Y380687D01*
X477860Y380666D01*
X477801Y380649D01*
X477741Y380636D01*
X477680Y380627D01*
X477618Y380621D01*
X477557Y380619D01*
X476618Y381289D02*
X476567Y381398D01*
X476519Y381509D01*
X476475Y381620D01*
X476434Y381733D01*
X476396Y381848D01*
X476362Y381963D01*
X476332Y382079D01*
X476305Y382196D01*
X476281Y382314D01*
X476261Y382433D01*
X476245Y382552D01*
X476232Y382672D01*
X476223Y382792D01*
X476218Y382912D01*
X476216Y383032D01*
X476619Y381289D02*
X476640Y381232D01*
X476666Y381176D01*
X476694Y381121D01*
X476726Y381069D01*
X476762Y381018D01*
X476800Y380970D01*
X476841Y380924D01*
X476885Y380881D01*
X476932Y380841D01*
X476980Y380804D01*
X477032Y380770D01*
X477085Y380739D01*
X477140Y380711D01*
X477196Y380687D01*
X477254Y380666D01*
X477313Y380649D01*
X477373Y380636D01*
X477434Y380627D01*
X477496Y380621D01*
X477557Y380619D01*
X478629Y381691D02*
X476484Y384373D01*
X524685Y390779D02*
X525758Y390779D01*
X525823Y390781D01*
X525887Y390787D01*
X525951Y390797D01*
X526015Y390810D01*
X526077Y390828D01*
X526138Y390849D01*
X526198Y390873D01*
X526256Y390902D01*
X526313Y390934D01*
X526367Y390969D01*
X526419Y391007D01*
X526469Y391049D01*
X526516Y391093D01*
X526560Y391140D01*
X526602Y391190D01*
X526640Y391242D01*
X526675Y391296D01*
X526707Y391353D01*
X526736Y391411D01*
X526760Y391471D01*
X526781Y391532D01*
X526799Y391594D01*
X526812Y391658D01*
X526822Y391722D01*
X526828Y391786D01*
X526830Y391851D01*
X526830Y394533D01*
X526828Y394598D01*
X526822Y394662D01*
X526812Y394726D01*
X526799Y394790D01*
X526781Y394852D01*
X526760Y394913D01*
X526736Y394973D01*
X526707Y395031D01*
X526675Y395088D01*
X526640Y395142D01*
X526602Y395194D01*
X526560Y395244D01*
X526516Y395291D01*
X526469Y395335D01*
X526419Y395377D01*
X526367Y395415D01*
X526313Y395450D01*
X526256Y395482D01*
X526198Y395511D01*
X526138Y395535D01*
X526077Y395556D01*
X526015Y395574D01*
X525951Y395587D01*
X525887Y395597D01*
X525823Y395603D01*
X525758Y395605D01*
X524685Y395605D01*
X522229Y394533D02*
X520889Y395605D01*
X520889Y390779D01*
X522229Y390779D02*
X519548Y390779D01*
X516743Y394533D02*
X515403Y395605D01*
X515403Y390779D01*
X516743Y390779D02*
X514062Y390779D01*
X476990Y400177D02*
X475917Y400177D01*
X476990Y400177D02*
X477055Y400179D01*
X477119Y400185D01*
X477183Y400195D01*
X477247Y400208D01*
X477309Y400226D01*
X477370Y400247D01*
X477430Y400271D01*
X477488Y400300D01*
X477545Y400332D01*
X477599Y400367D01*
X477651Y400405D01*
X477701Y400447D01*
X477748Y400491D01*
X477792Y400538D01*
X477834Y400588D01*
X477872Y400640D01*
X477907Y400694D01*
X477939Y400751D01*
X477968Y400809D01*
X477992Y400869D01*
X478013Y400930D01*
X478031Y400992D01*
X478044Y401056D01*
X478054Y401120D01*
X478060Y401184D01*
X478062Y401249D01*
X478062Y403931D01*
X478060Y403996D01*
X478054Y404060D01*
X478044Y404124D01*
X478031Y404188D01*
X478013Y404250D01*
X477992Y404311D01*
X477968Y404371D01*
X477939Y404429D01*
X477907Y404486D01*
X477872Y404540D01*
X477834Y404592D01*
X477792Y404642D01*
X477748Y404689D01*
X477701Y404733D01*
X477651Y404775D01*
X477599Y404813D01*
X477545Y404848D01*
X477488Y404880D01*
X477430Y404909D01*
X477370Y404933D01*
X477309Y404954D01*
X477247Y404972D01*
X477183Y404985D01*
X477119Y404995D01*
X477055Y405001D01*
X476990Y405003D01*
X475917Y405003D01*
X473461Y403931D02*
X472121Y405003D01*
X472121Y400177D01*
X473461Y400177D02*
X470780Y400177D01*
X466500Y405003D02*
X466432Y405001D01*
X466365Y404995D01*
X466298Y404986D01*
X466231Y404973D01*
X466166Y404956D01*
X466101Y404935D01*
X466038Y404911D01*
X465976Y404883D01*
X465916Y404852D01*
X465858Y404818D01*
X465802Y404780D01*
X465747Y404740D01*
X465696Y404696D01*
X465647Y404649D01*
X465600Y404600D01*
X465556Y404549D01*
X465516Y404494D01*
X465478Y404438D01*
X465444Y404380D01*
X465413Y404320D01*
X465385Y404258D01*
X465361Y404195D01*
X465340Y404130D01*
X465323Y404065D01*
X465310Y403998D01*
X465301Y403931D01*
X465295Y403864D01*
X465293Y403796D01*
X466500Y405003D02*
X466578Y405001D01*
X466656Y404995D01*
X466733Y404985D01*
X466810Y404972D01*
X466886Y404954D01*
X466961Y404933D01*
X467035Y404908D01*
X467107Y404879D01*
X467178Y404847D01*
X467247Y404811D01*
X467315Y404772D01*
X467380Y404729D01*
X467443Y404683D01*
X467504Y404634D01*
X467562Y404582D01*
X467617Y404527D01*
X467670Y404470D01*
X467719Y404410D01*
X467766Y404347D01*
X467809Y404282D01*
X467849Y404216D01*
X467886Y404147D01*
X467919Y404076D01*
X467949Y404004D01*
X467975Y403930D01*
X465696Y402858D02*
X465647Y402907D01*
X465600Y402959D01*
X465557Y403014D01*
X465516Y403071D01*
X465478Y403130D01*
X465444Y403191D01*
X465413Y403254D01*
X465385Y403318D01*
X465361Y403384D01*
X465341Y403450D01*
X465324Y403518D01*
X465311Y403587D01*
X465302Y403656D01*
X465296Y403726D01*
X465294Y403796D01*
X465696Y402858D02*
X467975Y400177D01*
X465294Y400177D01*
X498269Y399669D02*
X499342Y399669D01*
X499407Y399671D01*
X499471Y399677D01*
X499535Y399687D01*
X499599Y399700D01*
X499661Y399718D01*
X499722Y399739D01*
X499782Y399763D01*
X499840Y399792D01*
X499897Y399824D01*
X499951Y399859D01*
X500003Y399897D01*
X500053Y399939D01*
X500100Y399983D01*
X500144Y400030D01*
X500186Y400080D01*
X500224Y400132D01*
X500259Y400186D01*
X500291Y400243D01*
X500320Y400301D01*
X500344Y400361D01*
X500365Y400422D01*
X500383Y400484D01*
X500396Y400548D01*
X500406Y400612D01*
X500412Y400676D01*
X500414Y400741D01*
X500414Y403423D01*
X500412Y403488D01*
X500406Y403552D01*
X500396Y403616D01*
X500383Y403680D01*
X500365Y403742D01*
X500344Y403803D01*
X500320Y403863D01*
X500291Y403921D01*
X500259Y403978D01*
X500224Y404032D01*
X500186Y404084D01*
X500144Y404134D01*
X500100Y404181D01*
X500053Y404225D01*
X500003Y404267D01*
X499951Y404305D01*
X499897Y404340D01*
X499840Y404372D01*
X499782Y404401D01*
X499722Y404425D01*
X499661Y404446D01*
X499599Y404464D01*
X499535Y404477D01*
X499471Y404487D01*
X499407Y404493D01*
X499342Y404495D01*
X498269Y404495D01*
X495813Y403423D02*
X494473Y404495D01*
X494473Y399669D01*
X495813Y399669D02*
X493132Y399669D01*
X490327Y399669D02*
X488987Y399669D01*
X488916Y399671D01*
X488844Y399677D01*
X488774Y399686D01*
X488704Y399699D01*
X488634Y399716D01*
X488566Y399737D01*
X488499Y399761D01*
X488433Y399789D01*
X488369Y399820D01*
X488306Y399855D01*
X488246Y399893D01*
X488187Y399934D01*
X488131Y399978D01*
X488077Y400025D01*
X488026Y400074D01*
X487978Y400127D01*
X487932Y400182D01*
X487890Y400239D01*
X487850Y400299D01*
X487814Y400360D01*
X487781Y400424D01*
X487752Y400489D01*
X487726Y400555D01*
X487703Y400623D01*
X487684Y400692D01*
X487669Y400762D01*
X487658Y400832D01*
X487650Y400903D01*
X487646Y400974D01*
X487646Y401046D01*
X487650Y401117D01*
X487658Y401188D01*
X487669Y401258D01*
X487684Y401328D01*
X487703Y401397D01*
X487726Y401465D01*
X487752Y401531D01*
X487781Y401596D01*
X487814Y401660D01*
X487850Y401721D01*
X487890Y401781D01*
X487932Y401838D01*
X487978Y401893D01*
X488026Y401946D01*
X488077Y401995D01*
X488131Y402042D01*
X488187Y402086D01*
X488246Y402127D01*
X488306Y402165D01*
X488369Y402200D01*
X488433Y402231D01*
X488499Y402259D01*
X488566Y402283D01*
X488634Y402304D01*
X488704Y402321D01*
X488774Y402334D01*
X488844Y402343D01*
X488916Y402349D01*
X488987Y402351D01*
X488718Y404495D02*
X490327Y404495D01*
X488718Y404495D02*
X488653Y404493D01*
X488589Y404487D01*
X488525Y404477D01*
X488461Y404464D01*
X488399Y404446D01*
X488338Y404425D01*
X488278Y404401D01*
X488220Y404372D01*
X488163Y404340D01*
X488109Y404305D01*
X488057Y404267D01*
X488007Y404225D01*
X487960Y404181D01*
X487916Y404134D01*
X487874Y404084D01*
X487836Y404032D01*
X487801Y403978D01*
X487769Y403921D01*
X487740Y403863D01*
X487716Y403803D01*
X487695Y403742D01*
X487677Y403680D01*
X487664Y403616D01*
X487654Y403552D01*
X487648Y403488D01*
X487646Y403423D01*
X487648Y403358D01*
X487654Y403294D01*
X487664Y403230D01*
X487677Y403166D01*
X487695Y403104D01*
X487716Y403043D01*
X487740Y402983D01*
X487769Y402925D01*
X487801Y402868D01*
X487836Y402814D01*
X487874Y402762D01*
X487916Y402712D01*
X487960Y402665D01*
X488007Y402621D01*
X488057Y402579D01*
X488109Y402541D01*
X488163Y402506D01*
X488220Y402474D01*
X488278Y402445D01*
X488338Y402421D01*
X488399Y402400D01*
X488461Y402382D01*
X488525Y402369D01*
X488589Y402359D01*
X488653Y402353D01*
X488718Y402351D01*
X488718Y402350D02*
X489791Y402350D01*
X564563Y391287D02*
X565636Y391287D01*
X565701Y391289D01*
X565765Y391295D01*
X565829Y391305D01*
X565893Y391318D01*
X565955Y391336D01*
X566016Y391357D01*
X566076Y391381D01*
X566134Y391410D01*
X566191Y391442D01*
X566245Y391477D01*
X566297Y391515D01*
X566347Y391557D01*
X566394Y391601D01*
X566438Y391648D01*
X566480Y391698D01*
X566518Y391750D01*
X566553Y391804D01*
X566585Y391861D01*
X566614Y391919D01*
X566638Y391979D01*
X566659Y392040D01*
X566677Y392102D01*
X566690Y392166D01*
X566700Y392230D01*
X566706Y392294D01*
X566708Y392359D01*
X566708Y395041D01*
X566706Y395106D01*
X566700Y395170D01*
X566690Y395234D01*
X566677Y395298D01*
X566659Y395360D01*
X566638Y395421D01*
X566614Y395481D01*
X566585Y395539D01*
X566553Y395596D01*
X566518Y395650D01*
X566480Y395702D01*
X566438Y395752D01*
X566394Y395799D01*
X566347Y395843D01*
X566297Y395885D01*
X566245Y395923D01*
X566191Y395958D01*
X566134Y395990D01*
X566076Y396019D01*
X566016Y396043D01*
X565955Y396064D01*
X565893Y396082D01*
X565829Y396095D01*
X565765Y396105D01*
X565701Y396111D01*
X565636Y396113D01*
X564563Y396113D01*
X562107Y395041D02*
X560767Y396113D01*
X560767Y391287D01*
X562107Y391287D02*
X559426Y391287D01*
X556621Y392359D02*
X555549Y396113D01*
X556621Y392359D02*
X553940Y392359D01*
X554744Y393432D02*
X554744Y391287D01*
X537442Y480949D02*
X536369Y480949D01*
X537442Y480949D02*
X537507Y480951D01*
X537571Y480957D01*
X537635Y480967D01*
X537699Y480980D01*
X537761Y480998D01*
X537822Y481019D01*
X537882Y481043D01*
X537940Y481072D01*
X537997Y481104D01*
X538051Y481139D01*
X538103Y481177D01*
X538153Y481219D01*
X538200Y481263D01*
X538244Y481310D01*
X538286Y481360D01*
X538324Y481412D01*
X538359Y481466D01*
X538391Y481523D01*
X538420Y481581D01*
X538444Y481641D01*
X538465Y481702D01*
X538483Y481764D01*
X538496Y481828D01*
X538506Y481892D01*
X538512Y481956D01*
X538514Y482021D01*
X538514Y484703D01*
X538512Y484768D01*
X538506Y484832D01*
X538496Y484896D01*
X538483Y484960D01*
X538465Y485022D01*
X538444Y485083D01*
X538420Y485143D01*
X538391Y485201D01*
X538359Y485258D01*
X538324Y485312D01*
X538286Y485364D01*
X538244Y485414D01*
X538200Y485461D01*
X538153Y485505D01*
X538103Y485547D01*
X538051Y485585D01*
X537997Y485620D01*
X537940Y485652D01*
X537882Y485681D01*
X537822Y485705D01*
X537761Y485726D01*
X537699Y485744D01*
X537635Y485757D01*
X537571Y485767D01*
X537507Y485773D01*
X537442Y485775D01*
X536369Y485775D01*
X533913Y484703D02*
X532573Y485775D01*
X532573Y480949D01*
X533913Y480949D02*
X531232Y480949D01*
X528427Y480949D02*
X526818Y480949D01*
X526753Y480951D01*
X526689Y480957D01*
X526625Y480967D01*
X526561Y480980D01*
X526499Y480998D01*
X526438Y481019D01*
X526378Y481043D01*
X526320Y481072D01*
X526263Y481104D01*
X526209Y481139D01*
X526157Y481177D01*
X526107Y481219D01*
X526060Y481263D01*
X526016Y481310D01*
X525974Y481360D01*
X525936Y481412D01*
X525901Y481466D01*
X525869Y481523D01*
X525840Y481581D01*
X525816Y481641D01*
X525795Y481702D01*
X525777Y481764D01*
X525764Y481828D01*
X525754Y481892D01*
X525748Y481956D01*
X525746Y482021D01*
X525746Y482558D01*
X525748Y482623D01*
X525754Y482687D01*
X525764Y482751D01*
X525777Y482815D01*
X525795Y482877D01*
X525816Y482938D01*
X525840Y482998D01*
X525869Y483056D01*
X525901Y483113D01*
X525936Y483167D01*
X525974Y483219D01*
X526016Y483269D01*
X526060Y483316D01*
X526107Y483360D01*
X526157Y483402D01*
X526209Y483440D01*
X526263Y483475D01*
X526320Y483507D01*
X526378Y483536D01*
X526438Y483560D01*
X526499Y483581D01*
X526561Y483599D01*
X526625Y483612D01*
X526689Y483622D01*
X526753Y483628D01*
X526818Y483630D01*
X528427Y483630D01*
X528427Y485775D01*
X525746Y485775D01*
X518646Y447421D02*
X517573Y447421D01*
X518646Y447421D02*
X518711Y447423D01*
X518775Y447429D01*
X518839Y447439D01*
X518903Y447452D01*
X518965Y447470D01*
X519026Y447491D01*
X519086Y447515D01*
X519144Y447544D01*
X519201Y447576D01*
X519255Y447611D01*
X519307Y447649D01*
X519357Y447691D01*
X519404Y447735D01*
X519448Y447782D01*
X519490Y447832D01*
X519528Y447884D01*
X519563Y447938D01*
X519595Y447995D01*
X519624Y448053D01*
X519648Y448113D01*
X519669Y448174D01*
X519687Y448236D01*
X519700Y448300D01*
X519710Y448364D01*
X519716Y448428D01*
X519718Y448493D01*
X519718Y451175D01*
X519716Y451240D01*
X519710Y451304D01*
X519700Y451368D01*
X519687Y451432D01*
X519669Y451494D01*
X519648Y451555D01*
X519624Y451615D01*
X519595Y451673D01*
X519563Y451730D01*
X519528Y451784D01*
X519490Y451836D01*
X519448Y451886D01*
X519404Y451933D01*
X519357Y451977D01*
X519307Y452019D01*
X519255Y452057D01*
X519201Y452092D01*
X519144Y452124D01*
X519086Y452153D01*
X519026Y452177D01*
X518965Y452198D01*
X518903Y452216D01*
X518839Y452229D01*
X518775Y452239D01*
X518711Y452245D01*
X518646Y452247D01*
X517573Y452247D01*
X515117Y451175D02*
X513777Y452247D01*
X513777Y447421D01*
X515117Y447421D02*
X512436Y447421D01*
X509631Y450102D02*
X508022Y450102D01*
X507957Y450100D01*
X507893Y450094D01*
X507829Y450084D01*
X507765Y450071D01*
X507703Y450053D01*
X507642Y450032D01*
X507582Y450008D01*
X507524Y449979D01*
X507467Y449947D01*
X507413Y449912D01*
X507361Y449874D01*
X507311Y449832D01*
X507264Y449788D01*
X507220Y449741D01*
X507178Y449691D01*
X507140Y449639D01*
X507105Y449585D01*
X507073Y449528D01*
X507044Y449470D01*
X507020Y449410D01*
X506999Y449349D01*
X506981Y449287D01*
X506968Y449223D01*
X506958Y449159D01*
X506952Y449095D01*
X506950Y449030D01*
X506950Y448762D01*
X506949Y448762D02*
X506951Y448691D01*
X506957Y448619D01*
X506966Y448549D01*
X506979Y448479D01*
X506996Y448409D01*
X507017Y448341D01*
X507041Y448274D01*
X507069Y448208D01*
X507100Y448144D01*
X507135Y448081D01*
X507173Y448021D01*
X507214Y447962D01*
X507258Y447906D01*
X507305Y447852D01*
X507354Y447801D01*
X507407Y447753D01*
X507462Y447707D01*
X507519Y447665D01*
X507579Y447625D01*
X507640Y447589D01*
X507704Y447556D01*
X507769Y447527D01*
X507835Y447501D01*
X507903Y447478D01*
X507972Y447459D01*
X508042Y447444D01*
X508112Y447433D01*
X508183Y447425D01*
X508254Y447421D01*
X508326Y447421D01*
X508397Y447425D01*
X508468Y447433D01*
X508538Y447444D01*
X508608Y447459D01*
X508677Y447478D01*
X508745Y447501D01*
X508811Y447527D01*
X508876Y447556D01*
X508940Y447589D01*
X509001Y447625D01*
X509061Y447665D01*
X509118Y447707D01*
X509173Y447753D01*
X509226Y447801D01*
X509275Y447852D01*
X509322Y447906D01*
X509366Y447962D01*
X509407Y448021D01*
X509445Y448081D01*
X509480Y448144D01*
X509511Y448208D01*
X509539Y448274D01*
X509563Y448341D01*
X509584Y448409D01*
X509601Y448479D01*
X509614Y448549D01*
X509623Y448619D01*
X509629Y448691D01*
X509631Y448762D01*
X509631Y450102D01*
X509629Y450193D01*
X509623Y450284D01*
X509614Y450374D01*
X509600Y450465D01*
X509583Y450554D01*
X509562Y450642D01*
X509537Y450730D01*
X509508Y450817D01*
X509476Y450902D01*
X509441Y450986D01*
X509401Y451068D01*
X509359Y451148D01*
X509313Y451227D01*
X509263Y451303D01*
X509211Y451377D01*
X509155Y451450D01*
X509096Y451519D01*
X509035Y451586D01*
X508970Y451651D01*
X508903Y451712D01*
X508834Y451771D01*
X508761Y451827D01*
X508687Y451879D01*
X508611Y451929D01*
X508532Y451975D01*
X508452Y452017D01*
X508370Y452057D01*
X508286Y452092D01*
X508201Y452124D01*
X508114Y452153D01*
X508026Y452178D01*
X507938Y452199D01*
X507849Y452216D01*
X507758Y452230D01*
X507668Y452239D01*
X507577Y452245D01*
X507486Y452247D01*
X533829Y406273D02*
X534902Y406273D01*
X534967Y406275D01*
X535031Y406281D01*
X535095Y406291D01*
X535159Y406304D01*
X535221Y406322D01*
X535282Y406343D01*
X535342Y406367D01*
X535400Y406396D01*
X535457Y406428D01*
X535511Y406463D01*
X535563Y406501D01*
X535613Y406543D01*
X535660Y406587D01*
X535704Y406634D01*
X535746Y406684D01*
X535784Y406736D01*
X535819Y406790D01*
X535851Y406847D01*
X535880Y406905D01*
X535904Y406965D01*
X535925Y407026D01*
X535943Y407088D01*
X535956Y407152D01*
X535966Y407216D01*
X535972Y407280D01*
X535974Y407345D01*
X535974Y410027D01*
X535972Y410092D01*
X535966Y410156D01*
X535956Y410220D01*
X535943Y410284D01*
X535925Y410346D01*
X535904Y410407D01*
X535880Y410467D01*
X535851Y410525D01*
X535819Y410582D01*
X535784Y410636D01*
X535746Y410688D01*
X535704Y410738D01*
X535660Y410785D01*
X535613Y410829D01*
X535563Y410871D01*
X535511Y410909D01*
X535457Y410944D01*
X535400Y410976D01*
X535342Y411005D01*
X535282Y411029D01*
X535221Y411050D01*
X535159Y411068D01*
X535095Y411081D01*
X535031Y411091D01*
X534967Y411097D01*
X534902Y411099D01*
X533829Y411099D01*
X531373Y410027D02*
X530033Y411099D01*
X530033Y406273D01*
X531373Y406273D02*
X528692Y406273D01*
X525887Y410563D02*
X525887Y411099D01*
X523206Y411099D01*
X524547Y406273D01*
X434368Y467233D02*
X433296Y467233D01*
X434368Y467233D02*
X434433Y467235D01*
X434497Y467241D01*
X434561Y467251D01*
X434625Y467264D01*
X434687Y467282D01*
X434748Y467303D01*
X434808Y467327D01*
X434866Y467356D01*
X434923Y467388D01*
X434977Y467423D01*
X435029Y467461D01*
X435079Y467503D01*
X435126Y467547D01*
X435170Y467594D01*
X435212Y467644D01*
X435250Y467696D01*
X435285Y467750D01*
X435317Y467807D01*
X435346Y467865D01*
X435370Y467925D01*
X435391Y467986D01*
X435409Y468048D01*
X435422Y468112D01*
X435432Y468176D01*
X435438Y468240D01*
X435440Y468305D01*
X435441Y468305D02*
X435441Y470987D01*
X435440Y470987D02*
X435438Y471052D01*
X435432Y471116D01*
X435422Y471180D01*
X435409Y471244D01*
X435391Y471306D01*
X435370Y471367D01*
X435346Y471427D01*
X435317Y471485D01*
X435285Y471542D01*
X435250Y471596D01*
X435212Y471648D01*
X435170Y471698D01*
X435126Y471745D01*
X435079Y471789D01*
X435029Y471831D01*
X434977Y471869D01*
X434923Y471904D01*
X434866Y471936D01*
X434808Y471965D01*
X434748Y471989D01*
X434687Y472010D01*
X434625Y472028D01*
X434561Y472041D01*
X434497Y472051D01*
X434433Y472057D01*
X434368Y472059D01*
X433296Y472059D01*
X430841Y468574D02*
X430839Y468645D01*
X430833Y468717D01*
X430824Y468787D01*
X430811Y468857D01*
X430794Y468927D01*
X430773Y468995D01*
X430749Y469062D01*
X430721Y469128D01*
X430690Y469192D01*
X430655Y469255D01*
X430617Y469315D01*
X430576Y469374D01*
X430532Y469430D01*
X430485Y469484D01*
X430436Y469535D01*
X430383Y469583D01*
X430328Y469629D01*
X430271Y469671D01*
X430211Y469711D01*
X430150Y469747D01*
X430086Y469780D01*
X430021Y469809D01*
X429955Y469835D01*
X429887Y469858D01*
X429818Y469877D01*
X429748Y469892D01*
X429678Y469903D01*
X429607Y469911D01*
X429536Y469915D01*
X429464Y469915D01*
X429393Y469911D01*
X429322Y469903D01*
X429252Y469892D01*
X429182Y469877D01*
X429113Y469858D01*
X429045Y469835D01*
X428979Y469809D01*
X428914Y469780D01*
X428850Y469747D01*
X428789Y469711D01*
X428729Y469671D01*
X428672Y469629D01*
X428617Y469583D01*
X428564Y469535D01*
X428515Y469484D01*
X428468Y469430D01*
X428424Y469374D01*
X428383Y469315D01*
X428345Y469255D01*
X428310Y469192D01*
X428279Y469128D01*
X428251Y469062D01*
X428227Y468995D01*
X428206Y468927D01*
X428189Y468857D01*
X428176Y468787D01*
X428167Y468717D01*
X428161Y468645D01*
X428159Y468574D01*
X428161Y468503D01*
X428167Y468431D01*
X428176Y468361D01*
X428189Y468291D01*
X428206Y468221D01*
X428227Y468153D01*
X428251Y468086D01*
X428279Y468020D01*
X428310Y467956D01*
X428345Y467893D01*
X428383Y467833D01*
X428424Y467774D01*
X428468Y467718D01*
X428515Y467664D01*
X428564Y467613D01*
X428617Y467565D01*
X428672Y467519D01*
X428729Y467477D01*
X428789Y467437D01*
X428850Y467401D01*
X428914Y467368D01*
X428979Y467339D01*
X429045Y467313D01*
X429113Y467290D01*
X429182Y467271D01*
X429252Y467256D01*
X429322Y467245D01*
X429393Y467237D01*
X429464Y467233D01*
X429536Y467233D01*
X429607Y467237D01*
X429678Y467245D01*
X429748Y467256D01*
X429818Y467271D01*
X429887Y467290D01*
X429955Y467313D01*
X430021Y467339D01*
X430086Y467368D01*
X430150Y467401D01*
X430211Y467437D01*
X430271Y467477D01*
X430328Y467519D01*
X430383Y467565D01*
X430436Y467613D01*
X430485Y467664D01*
X430532Y467718D01*
X430576Y467774D01*
X430617Y467833D01*
X430655Y467893D01*
X430690Y467956D01*
X430721Y468020D01*
X430749Y468086D01*
X430773Y468153D01*
X430794Y468221D01*
X430811Y468291D01*
X430824Y468361D01*
X430833Y468431D01*
X430839Y468503D01*
X430841Y468574D01*
X430572Y470987D02*
X430570Y471052D01*
X430564Y471116D01*
X430554Y471180D01*
X430541Y471244D01*
X430523Y471306D01*
X430502Y471367D01*
X430478Y471427D01*
X430449Y471485D01*
X430417Y471542D01*
X430382Y471596D01*
X430344Y471648D01*
X430302Y471698D01*
X430258Y471745D01*
X430211Y471789D01*
X430161Y471831D01*
X430109Y471869D01*
X430055Y471904D01*
X429998Y471936D01*
X429940Y471965D01*
X429880Y471989D01*
X429819Y472010D01*
X429757Y472028D01*
X429693Y472041D01*
X429629Y472051D01*
X429565Y472057D01*
X429500Y472059D01*
X429435Y472057D01*
X429371Y472051D01*
X429307Y472041D01*
X429243Y472028D01*
X429181Y472010D01*
X429120Y471989D01*
X429060Y471965D01*
X429002Y471936D01*
X428945Y471904D01*
X428891Y471869D01*
X428839Y471831D01*
X428789Y471789D01*
X428742Y471745D01*
X428698Y471698D01*
X428656Y471648D01*
X428618Y471596D01*
X428583Y471542D01*
X428551Y471485D01*
X428522Y471427D01*
X428498Y471367D01*
X428477Y471306D01*
X428459Y471244D01*
X428446Y471180D01*
X428436Y471116D01*
X428430Y471052D01*
X428428Y470987D01*
X428430Y470922D01*
X428436Y470858D01*
X428446Y470794D01*
X428459Y470730D01*
X428477Y470668D01*
X428498Y470607D01*
X428522Y470547D01*
X428551Y470489D01*
X428583Y470432D01*
X428618Y470378D01*
X428656Y470326D01*
X428698Y470276D01*
X428742Y470229D01*
X428789Y470185D01*
X428839Y470143D01*
X428891Y470105D01*
X428945Y470070D01*
X429002Y470038D01*
X429060Y470009D01*
X429120Y469985D01*
X429181Y469964D01*
X429243Y469946D01*
X429307Y469933D01*
X429371Y469923D01*
X429435Y469917D01*
X429500Y469915D01*
X429565Y469917D01*
X429629Y469923D01*
X429693Y469933D01*
X429757Y469946D01*
X429819Y469964D01*
X429880Y469985D01*
X429940Y470009D01*
X429998Y470038D01*
X430055Y470070D01*
X430109Y470105D01*
X430161Y470143D01*
X430211Y470185D01*
X430258Y470229D01*
X430302Y470276D01*
X430344Y470326D01*
X430382Y470378D01*
X430417Y470432D01*
X430449Y470489D01*
X430478Y470547D01*
X430502Y470607D01*
X430523Y470668D01*
X430541Y470730D01*
X430554Y470794D01*
X430564Y470858D01*
X430570Y470922D01*
X430572Y470987D01*
D11*
X-19050Y353060D02*
X-31750Y353060D01*
M02*
