G04 EAGLE Gerber RS-274X export*
G75*
%MOMM*%
%FSLAX34Y34*%
%LPD*%
%INSoldermask Top*%
%IPPOS*%
%AMOC8*
5,1,8,0,0,1.08239X$1,22.5*%
G01*
%ADD10C,3.203200*%
%ADD11R,1.103200X1.053200*%
%ADD12R,1.303200X1.203200*%
%ADD13R,0.503200X1.803200*%
%ADD14R,1.803200X0.503200*%
%ADD15C,1.625600*%
%ADD16C,1.727200*%
%ADD17C,2.082800*%
%ADD18R,1.203200X1.303200*%
%ADD19R,1.403200X2.203200*%
%ADD20R,1.903200X1.303200*%
%ADD21R,2.003200X2.003200*%
%ADD22C,2.003200*%
%ADD23R,5.537200X2.133600*%
%ADD24C,1.117600*%

G36*
X644985Y154464D02*
X644985Y154464D01*
X645952Y154567D01*
X646000Y154581D01*
X646091Y154598D01*
X647021Y154917D01*
X647065Y154942D01*
X647150Y154978D01*
X647986Y155497D01*
X648023Y155530D01*
X648098Y155585D01*
X648797Y156276D01*
X648826Y156318D01*
X648887Y156387D01*
X649415Y157217D01*
X649434Y157264D01*
X649477Y157345D01*
X649808Y158272D01*
X649816Y158322D01*
X649840Y158410D01*
X649953Y159363D01*
X649973Y159467D01*
X649973Y159471D01*
X649975Y159474D01*
X649981Y159662D01*
X649870Y160620D01*
X649856Y160668D01*
X649838Y160758D01*
X649517Y161667D01*
X649492Y161711D01*
X649455Y161795D01*
X649067Y162408D01*
X648940Y162610D01*
X648906Y162647D01*
X648851Y162720D01*
X648167Y163400D01*
X648126Y163429D01*
X648056Y163488D01*
X647238Y163999D01*
X647191Y164017D01*
X647110Y164060D01*
X646199Y164375D01*
X646149Y164383D01*
X646060Y164407D01*
X645102Y164512D01*
X645072Y164509D01*
X645033Y164515D01*
X644932Y164515D01*
X644905Y164510D01*
X644868Y164512D01*
X643895Y164413D01*
X643846Y164400D01*
X643756Y164383D01*
X642829Y164071D01*
X642785Y164046D01*
X642700Y164011D01*
X641866Y163500D01*
X641828Y163466D01*
X641754Y163412D01*
X641054Y162728D01*
X641025Y162687D01*
X640965Y162618D01*
X640435Y161796D01*
X640418Y161756D01*
X640406Y161742D01*
X640398Y161718D01*
X640371Y161669D01*
X640038Y160749D01*
X640029Y160700D01*
X640004Y160611D01*
X639884Y159640D01*
X639884Y159630D01*
X639884Y159628D01*
X639883Y159626D01*
X639881Y159618D01*
X639854Y159315D01*
X639859Y159265D01*
X639859Y159166D01*
X640001Y158209D01*
X640017Y158161D01*
X640022Y158139D01*
X640022Y158134D01*
X640024Y158128D01*
X640037Y158071D01*
X640389Y157169D01*
X640415Y157126D01*
X640455Y157044D01*
X640998Y156243D01*
X641034Y156207D01*
X641091Y156135D01*
X641799Y155475D01*
X641841Y155448D01*
X641913Y155391D01*
X642750Y154905D01*
X642798Y154888D01*
X642881Y154848D01*
X643805Y154561D01*
X643855Y154555D01*
X643945Y154534D01*
X644877Y154463D01*
X644906Y154459D01*
X644958Y154459D01*
X644985Y154464D01*
G37*
G36*
X599697Y154413D02*
X599697Y154413D01*
X600664Y154516D01*
X600712Y154530D01*
X600803Y154547D01*
X601733Y154866D01*
X601777Y154891D01*
X601862Y154927D01*
X602698Y155446D01*
X602735Y155479D01*
X602810Y155534D01*
X603509Y156225D01*
X603538Y156267D01*
X603599Y156336D01*
X604127Y157166D01*
X604146Y157213D01*
X604189Y157294D01*
X604520Y158221D01*
X604528Y158271D01*
X604552Y158359D01*
X604665Y159312D01*
X604685Y159416D01*
X604685Y159420D01*
X604687Y159423D01*
X604693Y159611D01*
X604582Y160569D01*
X604568Y160617D01*
X604550Y160707D01*
X604229Y161616D01*
X604204Y161660D01*
X604167Y161744D01*
X603779Y162357D01*
X603652Y162559D01*
X603618Y162596D01*
X603563Y162669D01*
X602879Y163349D01*
X602838Y163378D01*
X602768Y163437D01*
X601950Y163948D01*
X601903Y163966D01*
X601822Y164009D01*
X600911Y164324D01*
X600861Y164332D01*
X600772Y164356D01*
X599814Y164461D01*
X599784Y164458D01*
X599745Y164464D01*
X599644Y164464D01*
X599617Y164459D01*
X599580Y164461D01*
X598607Y164362D01*
X598558Y164349D01*
X598468Y164332D01*
X597541Y164020D01*
X597497Y163995D01*
X597412Y163960D01*
X596578Y163449D01*
X596540Y163415D01*
X596466Y163361D01*
X595766Y162677D01*
X595737Y162636D01*
X595677Y162567D01*
X595147Y161745D01*
X595130Y161705D01*
X595118Y161691D01*
X595110Y161667D01*
X595083Y161618D01*
X594750Y160698D01*
X594741Y160649D01*
X594716Y160560D01*
X594596Y159589D01*
X594596Y159579D01*
X594596Y159577D01*
X594595Y159575D01*
X594593Y159567D01*
X594566Y159264D01*
X594571Y159214D01*
X594571Y159115D01*
X594713Y158158D01*
X594729Y158110D01*
X594734Y158088D01*
X594734Y158083D01*
X594736Y158077D01*
X594749Y158020D01*
X595101Y157118D01*
X595127Y157075D01*
X595167Y156993D01*
X595710Y156192D01*
X595746Y156156D01*
X595803Y156084D01*
X596511Y155424D01*
X596553Y155397D01*
X596625Y155340D01*
X597462Y154854D01*
X597510Y154837D01*
X597593Y154797D01*
X598517Y154510D01*
X598567Y154504D01*
X598657Y154483D01*
X599589Y154412D01*
X599618Y154408D01*
X599670Y154408D01*
X599697Y154413D01*
G37*
G36*
X599722Y89389D02*
X599722Y89389D01*
X600689Y89492D01*
X600737Y89506D01*
X600828Y89523D01*
X601758Y89842D01*
X601802Y89867D01*
X601887Y89903D01*
X602723Y90422D01*
X602760Y90455D01*
X602835Y90510D01*
X603534Y91201D01*
X603563Y91243D01*
X603624Y91312D01*
X604152Y92142D01*
X604171Y92189D01*
X604214Y92270D01*
X604545Y93197D01*
X604553Y93247D01*
X604577Y93335D01*
X604690Y94288D01*
X604710Y94392D01*
X604710Y94396D01*
X604712Y94399D01*
X604718Y94587D01*
X604607Y95545D01*
X604593Y95593D01*
X604575Y95683D01*
X604254Y96592D01*
X604229Y96636D01*
X604192Y96720D01*
X603804Y97333D01*
X603677Y97535D01*
X603643Y97572D01*
X603588Y97645D01*
X602904Y98325D01*
X602863Y98354D01*
X602793Y98413D01*
X601975Y98924D01*
X601928Y98942D01*
X601847Y98985D01*
X600936Y99300D01*
X600886Y99308D01*
X600797Y99332D01*
X599839Y99437D01*
X599809Y99434D01*
X599770Y99440D01*
X599669Y99440D01*
X599642Y99435D01*
X599605Y99437D01*
X598632Y99338D01*
X598583Y99325D01*
X598493Y99308D01*
X597566Y98996D01*
X597522Y98971D01*
X597437Y98936D01*
X596603Y98425D01*
X596565Y98391D01*
X596491Y98337D01*
X595791Y97653D01*
X595762Y97612D01*
X595702Y97543D01*
X595172Y96721D01*
X595155Y96681D01*
X595143Y96667D01*
X595135Y96643D01*
X595108Y96594D01*
X594775Y95674D01*
X594766Y95625D01*
X594741Y95536D01*
X594621Y94565D01*
X594621Y94555D01*
X594621Y94553D01*
X594620Y94551D01*
X594618Y94543D01*
X594591Y94240D01*
X594596Y94190D01*
X594596Y94091D01*
X594738Y93134D01*
X594754Y93086D01*
X594759Y93064D01*
X594759Y93059D01*
X594761Y93053D01*
X594774Y92996D01*
X595126Y92094D01*
X595152Y92051D01*
X595192Y91969D01*
X595735Y91168D01*
X595771Y91132D01*
X595828Y91060D01*
X596536Y90400D01*
X596578Y90373D01*
X596650Y90316D01*
X597487Y89830D01*
X597535Y89813D01*
X597618Y89773D01*
X598542Y89486D01*
X598592Y89480D01*
X598682Y89459D01*
X599614Y89388D01*
X599643Y89384D01*
X599695Y89384D01*
X599722Y89389D01*
G37*
G36*
X644960Y89389D02*
X644960Y89389D01*
X645927Y89492D01*
X645975Y89506D01*
X646066Y89523D01*
X646996Y89842D01*
X647040Y89867D01*
X647125Y89903D01*
X647961Y90422D01*
X647998Y90455D01*
X648073Y90510D01*
X648772Y91201D01*
X648801Y91243D01*
X648862Y91312D01*
X649390Y92142D01*
X649409Y92189D01*
X649452Y92270D01*
X649783Y93197D01*
X649791Y93247D01*
X649815Y93335D01*
X649928Y94288D01*
X649948Y94392D01*
X649948Y94396D01*
X649950Y94399D01*
X649956Y94587D01*
X649845Y95545D01*
X649831Y95593D01*
X649813Y95683D01*
X649492Y96592D01*
X649467Y96636D01*
X649430Y96720D01*
X649042Y97333D01*
X648915Y97535D01*
X648881Y97572D01*
X648826Y97645D01*
X648142Y98325D01*
X648101Y98354D01*
X648031Y98413D01*
X647213Y98924D01*
X647166Y98942D01*
X647085Y98985D01*
X646174Y99300D01*
X646124Y99308D01*
X646035Y99332D01*
X645077Y99437D01*
X645047Y99434D01*
X645008Y99440D01*
X644907Y99440D01*
X644880Y99435D01*
X644843Y99437D01*
X643870Y99338D01*
X643821Y99325D01*
X643731Y99308D01*
X642804Y98996D01*
X642760Y98971D01*
X642675Y98936D01*
X641841Y98425D01*
X641803Y98391D01*
X641729Y98337D01*
X641029Y97653D01*
X641000Y97612D01*
X640940Y97543D01*
X640410Y96721D01*
X640393Y96681D01*
X640381Y96667D01*
X640373Y96643D01*
X640346Y96594D01*
X640013Y95674D01*
X640004Y95625D01*
X639979Y95536D01*
X639859Y94565D01*
X639859Y94555D01*
X639859Y94553D01*
X639858Y94551D01*
X639856Y94543D01*
X639829Y94240D01*
X639834Y94190D01*
X639834Y94091D01*
X639976Y93134D01*
X639992Y93086D01*
X639997Y93064D01*
X639997Y93059D01*
X639999Y93053D01*
X640012Y92996D01*
X640364Y92094D01*
X640390Y92051D01*
X640430Y91969D01*
X640973Y91168D01*
X641009Y91132D01*
X641066Y91060D01*
X641774Y90400D01*
X641816Y90373D01*
X641888Y90316D01*
X642725Y89830D01*
X642773Y89813D01*
X642856Y89773D01*
X643780Y89486D01*
X643830Y89480D01*
X643920Y89459D01*
X644852Y89388D01*
X644881Y89384D01*
X644933Y89384D01*
X644960Y89389D01*
G37*
G36*
X770169Y627318D02*
X770169Y627318D01*
X770217Y627332D01*
X770307Y627350D01*
X771216Y627671D01*
X771260Y627696D01*
X771344Y627733D01*
X772159Y628248D01*
X772196Y628282D01*
X772269Y628337D01*
X772949Y629021D01*
X772978Y629062D01*
X773037Y629132D01*
X773548Y629950D01*
X773566Y629997D01*
X773609Y630078D01*
X773924Y630989D01*
X773932Y631039D01*
X773956Y631128D01*
X774061Y632086D01*
X774058Y632116D01*
X774064Y632155D01*
X774064Y632256D01*
X774059Y632284D01*
X774061Y632320D01*
X773962Y633293D01*
X773949Y633342D01*
X773932Y633432D01*
X773620Y634359D01*
X773595Y634403D01*
X773560Y634488D01*
X773049Y635322D01*
X773015Y635360D01*
X772961Y635434D01*
X772277Y636134D01*
X772236Y636163D01*
X772167Y636223D01*
X771345Y636753D01*
X771298Y636773D01*
X771218Y636817D01*
X770298Y637150D01*
X770249Y637159D01*
X770160Y637184D01*
X769189Y637304D01*
X769179Y637304D01*
X769167Y637307D01*
X768864Y637334D01*
X768814Y637329D01*
X768715Y637329D01*
X767758Y637187D01*
X767710Y637171D01*
X767620Y637151D01*
X766718Y636799D01*
X766675Y636773D01*
X766593Y636733D01*
X765792Y636190D01*
X765756Y636154D01*
X765684Y636097D01*
X765024Y635389D01*
X764997Y635347D01*
X764940Y635275D01*
X764454Y634438D01*
X764437Y634390D01*
X764397Y634307D01*
X764110Y633383D01*
X764104Y633333D01*
X764083Y633243D01*
X764017Y632378D01*
X764015Y632370D01*
X764015Y632352D01*
X764012Y632311D01*
X764008Y632282D01*
X764008Y632230D01*
X764013Y632203D01*
X764116Y631236D01*
X764130Y631188D01*
X764147Y631097D01*
X764466Y630167D01*
X764491Y630123D01*
X764527Y630038D01*
X765046Y629202D01*
X765079Y629165D01*
X765134Y629091D01*
X765825Y628391D01*
X765867Y628362D01*
X765936Y628301D01*
X766766Y627773D01*
X766813Y627754D01*
X766894Y627711D01*
X767821Y627380D01*
X767871Y627372D01*
X767959Y627348D01*
X768912Y627235D01*
X769016Y627215D01*
X769020Y627215D01*
X769023Y627213D01*
X769211Y627207D01*
X770169Y627318D01*
G37*
G36*
X705145Y627293D02*
X705145Y627293D01*
X705193Y627307D01*
X705283Y627325D01*
X706192Y627646D01*
X706236Y627671D01*
X706320Y627708D01*
X707135Y628223D01*
X707172Y628257D01*
X707245Y628312D01*
X707925Y628996D01*
X707954Y629037D01*
X708013Y629107D01*
X708524Y629925D01*
X708542Y629972D01*
X708585Y630053D01*
X708900Y630964D01*
X708908Y631014D01*
X708932Y631103D01*
X709037Y632061D01*
X709034Y632091D01*
X709040Y632130D01*
X709040Y632231D01*
X709035Y632259D01*
X709037Y632295D01*
X708938Y633268D01*
X708925Y633317D01*
X708908Y633407D01*
X708596Y634334D01*
X708571Y634378D01*
X708536Y634463D01*
X708025Y635297D01*
X707991Y635335D01*
X707937Y635409D01*
X707253Y636109D01*
X707212Y636138D01*
X707143Y636198D01*
X706321Y636728D01*
X706274Y636748D01*
X706194Y636792D01*
X705274Y637125D01*
X705225Y637134D01*
X705136Y637159D01*
X704165Y637279D01*
X704155Y637279D01*
X704143Y637282D01*
X703840Y637309D01*
X703790Y637304D01*
X703691Y637304D01*
X702734Y637162D01*
X702686Y637146D01*
X702596Y637126D01*
X701694Y636774D01*
X701651Y636748D01*
X701569Y636708D01*
X700768Y636165D01*
X700732Y636129D01*
X700660Y636072D01*
X700000Y635364D01*
X699973Y635322D01*
X699916Y635250D01*
X699430Y634413D01*
X699413Y634365D01*
X699373Y634282D01*
X699086Y633358D01*
X699080Y633308D01*
X699059Y633218D01*
X698993Y632353D01*
X698991Y632345D01*
X698991Y632327D01*
X698988Y632286D01*
X698984Y632257D01*
X698984Y632205D01*
X698989Y632178D01*
X699092Y631211D01*
X699106Y631163D01*
X699123Y631072D01*
X699442Y630142D01*
X699467Y630098D01*
X699503Y630013D01*
X700022Y629177D01*
X700055Y629140D01*
X700110Y629066D01*
X700801Y628366D01*
X700843Y628337D01*
X700912Y628276D01*
X701742Y627748D01*
X701789Y627729D01*
X701870Y627686D01*
X702797Y627355D01*
X702847Y627347D01*
X702935Y627323D01*
X703888Y627210D01*
X703992Y627190D01*
X703996Y627190D01*
X703999Y627188D01*
X704187Y627182D01*
X705145Y627293D01*
G37*
G36*
X705145Y582055D02*
X705145Y582055D01*
X705193Y582069D01*
X705283Y582087D01*
X706192Y582408D01*
X706236Y582433D01*
X706320Y582470D01*
X707135Y582985D01*
X707172Y583019D01*
X707245Y583074D01*
X707925Y583758D01*
X707954Y583799D01*
X708013Y583869D01*
X708524Y584687D01*
X708542Y584734D01*
X708585Y584815D01*
X708900Y585726D01*
X708908Y585776D01*
X708932Y585865D01*
X709037Y586823D01*
X709034Y586853D01*
X709040Y586892D01*
X709040Y586993D01*
X709035Y587021D01*
X709037Y587057D01*
X708938Y588030D01*
X708925Y588079D01*
X708908Y588169D01*
X708596Y589096D01*
X708571Y589140D01*
X708536Y589225D01*
X708025Y590059D01*
X707991Y590097D01*
X707937Y590171D01*
X707253Y590871D01*
X707212Y590900D01*
X707143Y590960D01*
X706321Y591490D01*
X706274Y591510D01*
X706194Y591554D01*
X705274Y591887D01*
X705225Y591896D01*
X705136Y591921D01*
X704165Y592041D01*
X704155Y592041D01*
X704143Y592044D01*
X703840Y592071D01*
X703790Y592066D01*
X703691Y592066D01*
X702734Y591924D01*
X702686Y591908D01*
X702596Y591888D01*
X701694Y591536D01*
X701651Y591510D01*
X701569Y591470D01*
X700768Y590927D01*
X700732Y590891D01*
X700660Y590834D01*
X700000Y590126D01*
X699973Y590084D01*
X699916Y590012D01*
X699430Y589175D01*
X699413Y589127D01*
X699373Y589044D01*
X699086Y588120D01*
X699080Y588070D01*
X699059Y587980D01*
X698993Y587115D01*
X698991Y587107D01*
X698991Y587089D01*
X698988Y587048D01*
X698984Y587019D01*
X698984Y586967D01*
X698989Y586940D01*
X699092Y585973D01*
X699106Y585925D01*
X699123Y585834D01*
X699442Y584904D01*
X699467Y584860D01*
X699503Y584775D01*
X700022Y583939D01*
X700055Y583902D01*
X700110Y583828D01*
X700801Y583128D01*
X700843Y583099D01*
X700912Y583038D01*
X701742Y582510D01*
X701789Y582491D01*
X701870Y582448D01*
X702797Y582117D01*
X702847Y582109D01*
X702935Y582085D01*
X703888Y581972D01*
X703992Y581952D01*
X703996Y581952D01*
X703999Y581950D01*
X704187Y581944D01*
X705145Y582055D01*
G37*
G36*
X770220Y582030D02*
X770220Y582030D01*
X770268Y582044D01*
X770358Y582062D01*
X771267Y582383D01*
X771311Y582408D01*
X771395Y582445D01*
X772210Y582960D01*
X772247Y582994D01*
X772320Y583049D01*
X773000Y583733D01*
X773029Y583774D01*
X773088Y583844D01*
X773599Y584662D01*
X773617Y584709D01*
X773660Y584790D01*
X773975Y585701D01*
X773983Y585751D01*
X774007Y585840D01*
X774112Y586798D01*
X774109Y586828D01*
X774115Y586867D01*
X774115Y586968D01*
X774110Y586996D01*
X774112Y587032D01*
X774013Y588005D01*
X774000Y588054D01*
X773983Y588144D01*
X773671Y589071D01*
X773646Y589115D01*
X773611Y589200D01*
X773100Y590034D01*
X773066Y590072D01*
X773012Y590146D01*
X772328Y590846D01*
X772287Y590875D01*
X772218Y590935D01*
X771396Y591465D01*
X771349Y591485D01*
X771269Y591529D01*
X770349Y591862D01*
X770300Y591871D01*
X770211Y591896D01*
X769240Y592016D01*
X769230Y592016D01*
X769218Y592019D01*
X768915Y592046D01*
X768865Y592041D01*
X768766Y592041D01*
X767809Y591899D01*
X767761Y591883D01*
X767671Y591863D01*
X766769Y591511D01*
X766726Y591485D01*
X766644Y591445D01*
X765843Y590902D01*
X765807Y590866D01*
X765735Y590809D01*
X765075Y590101D01*
X765048Y590059D01*
X764991Y589987D01*
X764505Y589150D01*
X764488Y589102D01*
X764448Y589019D01*
X764161Y588095D01*
X764155Y588045D01*
X764134Y587955D01*
X764068Y587090D01*
X764066Y587082D01*
X764066Y587064D01*
X764063Y587023D01*
X764059Y586994D01*
X764059Y586942D01*
X764064Y586915D01*
X764167Y585948D01*
X764181Y585900D01*
X764198Y585809D01*
X764517Y584879D01*
X764542Y584835D01*
X764578Y584750D01*
X765097Y583914D01*
X765130Y583877D01*
X765185Y583803D01*
X765876Y583103D01*
X765918Y583074D01*
X765987Y583013D01*
X766817Y582485D01*
X766864Y582466D01*
X766945Y582423D01*
X767872Y582092D01*
X767922Y582084D01*
X768010Y582060D01*
X768963Y581947D01*
X769067Y581927D01*
X769071Y581927D01*
X769074Y581925D01*
X769262Y581919D01*
X770220Y582030D01*
G37*
D10*
X812800Y88900D03*
X812800Y647700D03*
X-63500Y647700D03*
X-63500Y88900D03*
D11*
X571500Y311700D03*
X571500Y323300D03*
X622300Y640800D03*
X622300Y629200D03*
D12*
X131200Y342900D03*
X148200Y342900D03*
X465700Y215900D03*
X448700Y215900D03*
X512200Y215900D03*
X529200Y215900D03*
X224400Y533400D03*
X207400Y533400D03*
X131200Y546100D03*
X148200Y546100D03*
X198257Y343081D03*
X181257Y343081D03*
D13*
X435300Y343100D03*
X440300Y343100D03*
X445300Y343100D03*
X450300Y343100D03*
X455300Y343100D03*
X460300Y343100D03*
X465300Y343100D03*
X470300Y343100D03*
X475300Y343100D03*
X480300Y343100D03*
X485300Y343100D03*
X490300Y343100D03*
X495300Y343100D03*
X500300Y343100D03*
X505300Y343100D03*
X510300Y343100D03*
X515300Y343100D03*
X520300Y343100D03*
X525300Y343100D03*
X530300Y343100D03*
X535300Y343100D03*
X540300Y343100D03*
X545300Y343100D03*
X550300Y343100D03*
X555300Y343100D03*
D14*
X571300Y359100D03*
X571300Y364100D03*
X571300Y369100D03*
X571300Y374100D03*
X571300Y379100D03*
X571300Y384100D03*
X571300Y389100D03*
X571300Y394100D03*
X571300Y399100D03*
X571300Y404100D03*
X571300Y409100D03*
X571300Y414100D03*
X571300Y419100D03*
X571300Y424100D03*
X571300Y429100D03*
X571300Y434100D03*
X571300Y439100D03*
X571300Y444100D03*
X571300Y449100D03*
X571300Y454100D03*
X571300Y459100D03*
X571300Y464100D03*
X571300Y469100D03*
X571300Y474100D03*
X571300Y479100D03*
D13*
X555300Y495100D03*
X550300Y495100D03*
X545300Y495100D03*
X540300Y495100D03*
X535300Y495100D03*
X530300Y495100D03*
X525300Y495100D03*
X520300Y495100D03*
X515300Y495100D03*
X510300Y495100D03*
X505300Y495100D03*
X500300Y495100D03*
X495300Y495100D03*
X490300Y495100D03*
X485300Y495100D03*
X480300Y495100D03*
X475300Y495100D03*
X470300Y495100D03*
X465300Y495100D03*
X460300Y495100D03*
X455300Y495100D03*
X450300Y495100D03*
X445300Y495100D03*
X440300Y495100D03*
X435300Y495100D03*
D14*
X419300Y479100D03*
X419300Y474100D03*
X419300Y469100D03*
X419300Y464100D03*
X419300Y459100D03*
X419300Y454100D03*
X419300Y449100D03*
X419300Y444100D03*
X419300Y439100D03*
X419300Y434100D03*
X419300Y429100D03*
X419300Y424100D03*
X419300Y419100D03*
X419300Y414100D03*
X419300Y409100D03*
X419300Y404100D03*
X419300Y399100D03*
X419300Y394100D03*
X419300Y389100D03*
X419300Y384100D03*
X419300Y379100D03*
X419300Y374100D03*
X419300Y369100D03*
X419300Y364100D03*
X419300Y359100D03*
D15*
X299212Y355600D02*
X284988Y355600D01*
X284988Y381000D02*
X299212Y381000D01*
X731549Y512358D02*
X745773Y512358D01*
X745773Y537758D02*
X731549Y537758D01*
D16*
X101600Y576580D02*
X101600Y591820D01*
X127000Y591820D02*
X127000Y576580D01*
D17*
X393700Y622300D03*
X419100Y622300D03*
D18*
X673100Y499500D03*
X673100Y516500D03*
X698500Y499500D03*
X698500Y516500D03*
X330200Y397900D03*
X330200Y414900D03*
X609600Y309000D03*
X609600Y326000D03*
D19*
X806600Y417900D03*
X786600Y417900D03*
X766600Y417900D03*
X746600Y417900D03*
X726600Y417900D03*
X706600Y417900D03*
X686600Y417900D03*
X666600Y417900D03*
X666600Y267900D03*
X686600Y267900D03*
X706600Y267900D03*
X726600Y267900D03*
X746600Y267900D03*
X766600Y267900D03*
X786600Y267900D03*
X806600Y267900D03*
D20*
X651600Y392900D03*
X651600Y372900D03*
X651600Y352900D03*
X651600Y332900D03*
X651600Y312900D03*
X651600Y292900D03*
D21*
X152400Y254000D03*
D22*
X177800Y254000D03*
X203200Y254000D03*
D21*
X152400Y469900D03*
D22*
X177800Y469900D03*
X203200Y469900D03*
D23*
X543560Y266700D03*
X447040Y266700D03*
D17*
X152400Y622300D03*
X584460Y622729D03*
D12*
X448132Y562986D03*
X465132Y562986D03*
X601100Y469900D03*
X618100Y469900D03*
D17*
X342900Y101600D03*
X800100Y520700D03*
X800100Y495300D03*
X800100Y469900D03*
X368300Y101346D03*
X342900Y622300D03*
X317500Y622300D03*
X292100Y622300D03*
X266700Y622300D03*
X241300Y622300D03*
X215900Y622300D03*
X190500Y622300D03*
X469900Y622300D03*
X495300Y622300D03*
X520700Y622300D03*
X546100Y622300D03*
D18*
X723900Y465700D03*
X723900Y448700D03*
X698500Y465700D03*
X698500Y448700D03*
X774700Y465700D03*
X774700Y448700D03*
D17*
X419100Y101600D03*
X444500Y101600D03*
X469900Y101600D03*
X520700Y101600D03*
D18*
X330200Y376800D03*
X330200Y359800D03*
D17*
X-25400Y254000D03*
X0Y254000D03*
X-25400Y304800D03*
X0Y304800D03*
X25400Y304800D03*
X495300Y101600D03*
X736600Y101600D03*
X711200Y101600D03*
D12*
X690000Y190500D03*
X707000Y190500D03*
X766200Y190500D03*
X783200Y190500D03*
X783200Y152400D03*
X766200Y152400D03*
X707000Y152400D03*
X690000Y152400D03*
D17*
X292100Y101600D03*
X266700Y101600D03*
X241300Y101600D03*
X215900Y101600D03*
X-25400Y546100D03*
X-25400Y520700D03*
X-25400Y368300D03*
X-25400Y393700D03*
X0Y368300D03*
X0Y393700D03*
X25400Y368300D03*
X25400Y393700D03*
X50800Y368300D03*
X50800Y393700D03*
X-25400Y469900D03*
X-25400Y444500D03*
X0Y469900D03*
X0Y444500D03*
D18*
X660400Y643500D03*
X660400Y626500D03*
D24*
X645922Y428752D03*
X586740Y485140D03*
X463000Y393700D03*
X520700Y383836D03*
X549709Y477266D03*
X457200Y419100D03*
X464566Y471068D03*
X508000Y469900D03*
X446544Y379264D03*
X673100Y596900D03*
X647700Y546100D03*
X596900Y444500D03*
X609600Y368300D03*
X322580Y441960D03*
X427990Y528066D03*
X254000Y355600D03*
X254000Y406400D03*
X381000Y190500D03*
X660400Y190500D03*
X660400Y127000D03*
X555593Y323596D03*
X435428Y394970D03*
X596900Y342900D03*
X635000Y241300D03*
X558800Y215900D03*
X469900Y368300D03*
X482600Y457200D03*
X495300Y533400D03*
X622300Y571500D03*
X457200Y457200D03*
X584200Y520700D03*
X512826Y520700D03*
X215900Y419100D03*
X108461Y444500D03*
X543909Y323204D03*
X723900Y317500D03*
X739902Y184150D03*
X591746Y402416D03*
X345387Y427552D03*
X359369Y391871D03*
X355600Y254000D03*
X749300Y482600D03*
X660400Y228600D03*
X571500Y342900D03*
X584200Y190500D03*
X635000Y304800D03*
X609600Y279400D03*
X584200Y279400D03*
X584200Y342900D03*
X369164Y558800D03*
X552450Y404114D03*
X553902Y443738D03*
X533400Y596900D03*
X622300Y393700D03*
X622300Y419100D03*
X509016Y362022D03*
X389116Y335629D03*
X469900Y535612D03*
X495300Y585216D03*
X635000Y508000D03*
X674584Y84074D03*
X412496Y508000D03*
X407164Y344519D03*
X749300Y241300D03*
X774700Y215900D03*
X711200Y241300D03*
X711200Y215900D03*
X685800Y241300D03*
X727456Y171196D03*
M02*
