M48
;GenerationSoftware,Autodesk,EAGLE,9.3.0*%
;CreationDate,2019-03-28T14:31:47Z*%
FMAT,2
ICI,OFF
METRIC,TZ,000.000
T7C0.350
T6C0.813
T5C1.000
T4C1.016
T3C1.100
T2C1.118
T1C1.600
%
G90
M71
T1
X0Y78740
X0Y1270
X97790Y1270
X97790Y78740
T2
X17780Y64770
X17780Y62230
X17780Y59690
X10160Y64770
X10160Y62230
X10160Y59690
X10160Y57150
X17780Y57150
T3
X87130Y69500
X74930Y39720
X87130Y4160
X87130Y16160
X74930Y4160
X74930Y16160
X74930Y33940
X74930Y21940
X87130Y33940
X87130Y21940
X72930Y27940
X37750Y22860
X25750Y22860
X37750Y10660
X25750Y10660
X11430Y24860
X31750Y24860
X74930Y51720
X72930Y10160
X87130Y51720
X87130Y39720
X72930Y45720
X74930Y69500
X74930Y57500
X87130Y57500
X72930Y63500
X5430Y10660
X17430Y10660
X5430Y22860
X17430Y22860
T4
X95250Y29210
X53340Y73660
X1270Y59690
X1270Y62230
X17780Y73660
X44450Y73660
X55880Y73660
X24130Y73660
X26670Y73660
X31750Y67310
X31750Y64770
X31750Y62230
X31750Y59690
X31750Y57150
X31750Y73660
X34290Y73660
X36830Y73660
X39370Y73660
X41910Y73660
X31750Y54610
X29210Y3810
X45720Y3810
X48260Y3810
X95250Y11430
X95250Y8890
X95250Y6350
X46990Y73660
X95250Y26670
X95250Y24130
X95250Y48260
X95250Y45720
X95250Y43180
X95250Y66040
X95250Y63500
X95250Y60960
X13970Y3810
X11430Y3810
X8890Y3810
X34290Y3810
X31750Y3810
T5
X57150Y1270
X57150Y11430
X57150Y19050
X57150Y29210
X57150Y38100
X57150Y48260
X57150Y57150
X57150Y67310
X25400Y36830
X25400Y46990
X3810Y34290
X3810Y44450
T6
X10160Y30480
X12065Y31750
X10160Y33020
X29210Y30480
X31115Y31750
X29210Y33020
X64770Y59690
X66675Y60960
X64770Y62230
X64770Y41910
X66675Y43180
X64770Y44450
X64770Y22860
X66675Y24130
X64770Y25400
X64770Y3810
X66675Y5080
X64770Y6350
X63500Y50800
X60960Y50800
X63500Y33020
X60960Y33020
X63500Y12700
X60960Y12700
X17780Y36830
X15240Y36830
X38100Y36830
X35560Y36830
X63500Y69850
X60960Y69850
T7
X41593Y56515
X64452Y29210
X16192Y32702
M30